G04*
G04 #@! TF.GenerationSoftware,Altium Limited,Altium Designer,22.8.2 (66)*
G04*
G04 Layer_Color=65535*
%FSLAX44Y44*%
%MOMM*%
G71*
G04*
G04 #@! TF.SameCoordinates,4CF3C48C-3265-4FA0-8EEF-0F06EE1AF109*
G04*
G04*
G04 #@! TF.FilePolarity,Positive*
G04*
G01*
G75*
%ADD10C,0.2000*%
%ADD11C,0.5000*%
%ADD12C,0.1500*%
%ADD13C,0.1000*%
G36*
X948514Y77060D02*
X948531Y77026D01*
X948599Y77009D01*
X950756Y76983D01*
X951352Y76967D01*
X951446Y76941D01*
X952375Y76915D01*
X952887Y76898D01*
X953330Y76881D01*
X953424Y76856D01*
X954165Y76830D01*
X954575Y76813D01*
X954916Y76796D01*
X954992Y76770D01*
X955666Y76745D01*
X956007Y76728D01*
X956314Y76711D01*
X956390Y76685D01*
X956510Y76702D01*
X956714Y76668D01*
X957447Y76651D01*
X957498Y76634D01*
X957618Y76617D01*
X957874Y76600D01*
X957925Y76583D01*
X958590Y76566D01*
X958641Y76549D01*
X958709Y76532D01*
X959144Y76506D01*
X959417Y76489D01*
X959655Y76472D01*
X959732Y76446D01*
X960422Y76404D01*
X960627Y76387D01*
X960721Y76361D01*
X961121Y76336D01*
X961360Y76319D01*
X961531Y76302D01*
X961599Y76284D01*
X961624Y76276D01*
X961675Y76293D01*
X961727Y76276D01*
X961897Y76259D01*
X962238Y76242D01*
X962272Y76225D01*
X962323Y76242D01*
X962409Y76208D01*
X962630Y76191D01*
X962681Y76174D01*
X963159Y76157D01*
X963244Y76123D01*
X963559Y76097D01*
X963798Y76080D01*
X963969Y76063D01*
X964062Y76037D01*
X964523Y76003D01*
X964761Y75969D01*
X964812Y75952D01*
X965273Y75918D01*
X965435Y75892D01*
X965520Y75875D01*
X965750Y75850D01*
X966006Y75833D01*
X966040Y75816D01*
X966091Y75833D01*
X966176Y75799D01*
X966389Y75773D01*
X966611Y75756D01*
X966765Y75739D01*
X966858Y75713D01*
X967233Y75679D01*
X967404Y75662D01*
X967540Y75628D01*
X968052Y75577D01*
X968171Y75543D01*
X968393Y75526D01*
X968461Y75509D01*
X968665Y75492D01*
X968717Y75475D01*
X968836Y75458D01*
X968887Y75441D01*
X969194Y75424D01*
X969245Y75406D01*
X969373Y75381D01*
X969509Y75364D01*
X969697Y75347D01*
X969902Y75313D01*
X969970Y75296D01*
X970106Y75279D01*
X970294Y75262D01*
X970379Y75245D01*
X970481Y75227D01*
X970549Y75210D01*
X970703Y75193D01*
X970873Y75176D01*
X970958Y75159D01*
X971027Y75142D01*
X971112Y75125D01*
X971300Y75108D01*
X971385Y75091D01*
X971521Y75074D01*
X971615Y75048D01*
X971683Y75031D01*
X971982Y75006D01*
X972075Y74980D01*
X972143Y74963D01*
X972365Y74946D01*
X972570Y74912D01*
X972774Y74861D01*
X972979Y74844D01*
X973030Y74827D01*
X973149Y74810D01*
X973201Y74793D01*
X973371Y74776D01*
X973516Y74750D01*
X973601Y74733D01*
X973669Y74716D01*
X973823Y74699D01*
X974027Y74665D01*
X974113Y74648D01*
X974206Y74622D01*
X974428Y74605D01*
X974479Y74588D01*
X974547Y74571D01*
X974752Y74537D01*
X974922Y74520D01*
X975008Y74486D01*
X975127Y74469D01*
X975195Y74452D01*
X975383Y74435D01*
X975434Y74418D01*
X975545Y74392D01*
X975613Y74375D01*
X975800Y74358D01*
X975945Y74315D01*
X976312Y74256D01*
X976448Y74222D01*
X976602Y74205D01*
X976704Y74187D01*
X976772Y74170D01*
X976917Y74128D01*
X977139Y74111D01*
X977224Y74077D01*
X977292Y74060D01*
X977411Y74043D01*
X977565Y74026D01*
X977616Y74008D01*
X977735Y73974D01*
X977932Y73949D01*
X978000Y73932D01*
X978093Y73906D01*
X978332Y73872D01*
X978452Y73838D01*
X978588Y73804D01*
X978758Y73787D01*
X978810Y73770D01*
X979014Y73719D01*
X979185Y73702D01*
X979270Y73667D01*
X979338Y73650D01*
X979457Y73633D01*
X979594Y73616D01*
X979679Y73582D01*
X979747Y73565D01*
X979986Y73531D01*
X980071Y73497D01*
X980191Y73480D01*
X980259Y73463D01*
X980387Y73437D01*
X980531Y73395D01*
X980702Y73378D01*
X980753Y73361D01*
X980872Y73327D01*
X980941Y73309D01*
X981103Y73284D01*
X981179Y73258D01*
X981316Y73224D01*
X981469Y73207D01*
X981554Y73173D01*
X981665Y73148D01*
X981802Y73130D01*
X981998Y73071D01*
X982219Y73037D01*
X982305Y73003D01*
X982373Y72986D01*
X982526Y72969D01*
X982611Y72934D01*
X982731Y72900D01*
X982884Y72883D01*
X982969Y72849D01*
X983106Y72815D01*
X983242Y72798D01*
X983327Y72764D01*
X983464Y72730D01*
X983583Y72713D01*
X983668Y72679D01*
X983873Y72645D01*
X983984Y72602D01*
X984052Y72585D01*
X984154Y72568D01*
X984240Y72551D01*
X984325Y72517D01*
X984393Y72500D01*
X984581Y72466D01*
X984691Y72423D01*
X984811Y72406D01*
X984904Y72380D01*
X985049Y72338D01*
X985169Y72321D01*
X985390Y72252D01*
X985510Y72235D01*
X985620Y72193D01*
X985689Y72176D01*
X985859Y72142D01*
X985970Y72099D01*
X986089Y72082D01*
X986226Y72048D01*
X986311Y72014D01*
X986379Y71997D01*
X986507Y71971D01*
X986592Y71937D01*
X986661Y71920D01*
X986763Y71903D01*
X986848Y71869D01*
X986942Y71843D01*
X987087Y71818D01*
X987172Y71784D01*
X987266Y71758D01*
X987394Y71733D01*
X987479Y71698D01*
X987547Y71681D01*
X987649Y71664D01*
X987735Y71630D01*
X987811Y71605D01*
X987879Y71588D01*
X987999Y71571D01*
X988118Y71519D01*
X988238Y71502D01*
X988348Y71460D01*
X988442Y71434D01*
X988510Y71417D01*
X988596Y71400D01*
X988715Y71349D01*
X988851Y71332D01*
X988971Y71281D01*
X989039Y71264D01*
X989167Y71238D01*
X989260Y71196D01*
X989329Y71178D01*
X989456Y71153D01*
X989482Y71127D01*
X989593Y71102D01*
X989695Y71085D01*
X989840Y71025D01*
X989942Y71008D01*
X990028Y70974D01*
X990147Y70940D01*
X990300Y70906D01*
X990420Y70855D01*
X990522Y70837D01*
X990641Y70786D01*
X990710Y70769D01*
X990803Y70744D01*
X990889Y70710D01*
X990957Y70693D01*
X991042Y70676D01*
X991127Y70641D01*
X991204Y70616D01*
X991315Y70590D01*
X991426Y70548D01*
X991562Y70514D01*
X991681Y70462D01*
X991860Y70420D01*
X991954Y70377D01*
X992022Y70360D01*
X992125Y70343D01*
X992244Y70292D01*
X992380Y70258D01*
X992500Y70207D01*
X992636Y70173D01*
X992755Y70121D01*
X992883Y70096D01*
X993028Y70036D01*
X993139Y70011D01*
X993284Y69951D01*
X993386Y69934D01*
X993540Y69866D01*
X993642Y69849D01*
X993676Y69815D01*
X993881Y69763D01*
X994000Y69712D01*
X994111Y69687D01*
X994256Y69627D01*
X994367Y69601D01*
X994443Y69559D01*
X994511Y69542D01*
X994605Y69516D01*
X994631Y69491D01*
X994835Y69440D01*
X994955Y69388D01*
X995176Y69303D01*
X995279Y69286D01*
X995432Y69218D01*
X995526Y69192D01*
X995620Y69150D01*
X995688Y69133D01*
X995910Y69047D01*
X995995Y69030D01*
X996029Y68996D01*
X996097Y68979D01*
X996191Y68954D01*
X996336Y68894D01*
X996430Y68868D01*
X996455Y68843D01*
X996591Y68809D01*
X996677Y68774D01*
X996796Y68723D01*
X996890Y68698D01*
X996966Y68655D01*
X997077Y68630D01*
X997171Y68587D01*
X997256Y68553D01*
X997342Y68536D01*
X997376Y68502D01*
X997444Y68485D01*
X997538Y68459D01*
X997648Y68400D01*
X997751Y68382D01*
X997785Y68348D01*
X997904Y68314D01*
X997972Y68297D01*
X998007Y68263D01*
X998126Y68229D01*
X998194Y68212D01*
X998228Y68178D01*
X998347Y68144D01*
X998501Y68076D01*
X998569Y68059D01*
X998723Y67990D01*
X998791Y67973D01*
X998944Y67905D01*
X999012Y67888D01*
X999098Y67837D01*
X999166Y67820D01*
X999319Y67752D01*
X999387Y67735D01*
X999541Y67666D01*
X999652Y67624D01*
X999677Y67598D01*
X999771Y67573D01*
X999856Y67538D01*
X999882Y67513D01*
X999950Y67496D01*
X1000044Y67470D01*
X1000086Y67428D01*
X1000197Y67402D01*
X1000376Y67325D01*
X1000530Y67257D01*
X1000615Y67223D01*
X1000734Y67172D01*
X1000803Y67155D01*
X1000837Y67121D01*
X1000922Y67087D01*
X1001007Y67070D01*
X1001041Y67036D01*
X1001126Y67002D01*
X1001195Y66984D01*
X1001229Y66950D01*
X1001297Y66933D01*
X1001408Y66891D01*
X1001450Y66848D01*
X1001578Y66823D01*
X1001621Y66780D01*
X1001715Y66754D01*
X1001825Y66695D01*
X1001894Y66677D01*
X1002269Y66507D01*
X1002337Y66490D01*
X1002388Y66439D01*
X1002490Y66422D01*
X1002524Y66388D01*
X1002610Y66354D01*
X1002797Y66268D01*
X1002882Y66234D01*
X1003002Y66183D01*
X1003087Y66132D01*
X1003172Y66098D01*
X1003223Y66081D01*
X1003309Y66030D01*
X1003394Y65996D01*
X1003513Y65944D01*
X1003735Y65842D01*
X1003769Y65825D01*
X1004059Y65689D01*
X1004246Y65603D01*
X1004280Y65586D01*
X1004314Y65552D01*
X1004451Y65501D01*
X1004485Y65467D01*
X1004621Y65433D01*
X1004672Y65382D01*
X1004766Y65356D01*
X1004792Y65331D01*
X1004826Y65314D01*
X1004911Y65279D01*
X1004945Y65262D01*
X1004979Y65228D01*
X1005116Y65177D01*
X1005150Y65143D01*
X1005218Y65126D01*
X1005303Y65075D01*
X1005389Y65041D01*
X1005474Y64990D01*
X1005559Y64956D01*
X1005593Y64939D01*
X1005678Y64887D01*
X1005764Y64853D01*
X1005798Y64819D01*
X1005934Y64768D01*
X1005968Y64734D01*
X1006036Y64717D01*
X1006122Y64666D01*
X1006207Y64632D01*
X1006292Y64580D01*
X1006412Y64512D01*
X1006531Y64461D01*
X1006565Y64444D01*
X1006599Y64410D01*
X1006736Y64359D01*
X1006769Y64325D01*
X1006880Y64282D01*
X1006923Y64240D01*
X1007034Y64197D01*
X1007145Y64137D01*
X1007179Y64120D01*
X1007213Y64086D01*
X1007298Y64052D01*
X1007520Y63933D01*
X1008440Y63421D01*
X1008560Y63353D01*
X1008713Y63268D01*
X1008832Y63200D01*
X1008986Y63114D01*
X1009105Y63046D01*
X1009259Y62961D01*
X1009293Y62927D01*
X1009378Y62893D01*
X1009412Y62859D01*
X1009566Y62773D01*
X1009685Y62705D01*
X1009719Y62671D01*
X1009787Y62654D01*
X1009821Y62620D01*
X1009855Y62603D01*
X1010094Y62467D01*
X1010128Y62432D01*
X1010486Y62228D01*
X1010537Y62177D01*
X1010605Y62160D01*
X1010657Y62108D01*
X1010895Y61972D01*
X1010929Y61938D01*
X1011168Y61802D01*
X1011202Y61768D01*
X1011253Y61750D01*
X1011304Y61699D01*
X1011543Y61563D01*
X1011577Y61529D01*
X1011663Y61478D01*
X1011697Y61444D01*
X1011765Y61427D01*
X1011816Y61375D01*
X1011901Y61324D01*
X1012021Y61256D01*
X1012072Y61205D01*
X1012157Y61154D01*
X1012276Y61086D01*
X1012327Y61034D01*
X1012413Y60983D01*
X1012575Y60872D01*
X1012668Y60813D01*
X1012711Y60787D01*
X1012720Y60779D01*
X1012839Y60693D01*
X1012873Y60676D01*
X1012907Y60642D01*
X1012992Y60591D01*
X1013044Y60540D01*
X1013095Y60523D01*
X1013129Y60489D01*
X1013163Y60472D01*
X1013521Y60216D01*
X1013555Y60199D01*
X1013606Y60148D01*
X1013691Y60097D01*
X1013726Y60063D01*
X1013811Y60012D01*
X1013845Y59977D01*
X1013930Y59926D01*
X1013964Y59892D01*
X1014049Y59841D01*
X1014083Y59807D01*
X1014160Y59764D01*
X1014169Y59739D01*
X1014254Y59688D01*
X1014288Y59653D01*
X1014373Y59602D01*
X1014407Y59568D01*
X1014442Y59551D01*
X1014484Y59526D01*
X1014493Y59500D01*
X1014527Y59483D01*
X1014621Y59406D01*
X1014714Y59347D01*
X1014748Y59313D01*
X1014782Y59295D01*
X1014834Y59244D01*
X1014868Y59227D01*
X1014919Y59176D01*
X1014953Y59159D01*
X1015047Y59082D01*
X1015192Y58972D01*
X1015217Y58963D01*
X1015234Y58929D01*
X1015328Y58869D01*
X1015379Y58818D01*
X1015413Y58801D01*
X1015464Y58750D01*
X1015550Y58699D01*
X1015618Y58630D01*
X1015652Y58614D01*
X1015686Y58579D01*
X1015720Y58562D01*
X1015729Y58503D01*
X985211Y58486D01*
X985194Y58435D01*
X985211Y48955D01*
X985237Y48930D01*
X1015737Y48913D01*
X1015746Y48887D01*
X1015686Y48828D01*
X1015652Y48810D01*
X1015618Y48776D01*
X1015584Y48759D01*
X1015516Y48691D01*
X1015481Y48674D01*
X1015430Y48623D01*
X1015396Y48606D01*
X1015303Y48529D01*
X1015243Y48486D01*
X1015209Y48452D01*
X1015175Y48435D01*
X1015106Y48367D01*
X1015021Y48316D01*
X1014987Y48282D01*
X1014953Y48265D01*
X1014902Y48214D01*
X1014817Y48163D01*
X1014765Y48111D01*
X1014731Y48094D01*
X1014680Y48043D01*
X1014595Y47992D01*
X1014561Y47958D01*
X1014527Y47941D01*
X1014459Y47873D01*
X1014373Y47822D01*
X1014339Y47787D01*
X1014254Y47736D01*
X1014220Y47702D01*
X1014186Y47685D01*
X1014135Y47634D01*
X1014049Y47583D01*
X1014015Y47549D01*
X1013930Y47498D01*
X1013896Y47464D01*
X1013862Y47446D01*
X1013811Y47395D01*
X1013726Y47344D01*
X1013691Y47310D01*
X1013606Y47259D01*
X1013572Y47225D01*
X1013487Y47174D01*
X1013453Y47140D01*
X1013367Y47088D01*
X1013248Y47003D01*
X1013214Y46969D01*
X1013163Y46952D01*
X1013112Y46901D01*
X1012992Y46833D01*
X1012958Y46799D01*
X1012873Y46747D01*
X1012754Y46662D01*
X1012541Y46517D01*
X1012515Y46492D01*
X1012430Y46441D01*
X1012396Y46406D01*
X1012310Y46372D01*
X1012259Y46321D01*
X1012174Y46270D01*
X1012055Y46202D01*
X1012003Y46151D01*
X1011918Y46100D01*
X1011799Y46031D01*
X1011765Y45997D01*
X1011646Y45929D01*
X1011526Y45844D01*
X1011407Y45776D01*
X1011373Y45742D01*
X1011322Y45725D01*
X1011270Y45673D01*
X1011185Y45639D01*
X1011134Y45588D01*
X1011049Y45554D01*
X1010998Y45503D01*
X1010929Y45486D01*
X1010861Y45418D01*
X1010776Y45384D01*
X1010742Y45349D01*
X1010503Y45213D01*
X1010469Y45179D01*
X1010375Y45136D01*
X1010367Y45111D01*
X1010282Y45077D01*
X1010247Y45060D01*
X1010196Y45009D01*
X1009975Y44889D01*
X1009941Y44855D01*
X1009855Y44821D01*
X1009804Y44770D01*
X1009719Y44736D01*
X1009685Y44702D01*
X1009600Y44668D01*
X1009566Y44651D01*
X1009531Y44616D01*
X1009412Y44548D01*
X1009259Y44463D01*
X1009139Y44395D01*
X1008986Y44310D01*
X1008952Y44275D01*
X1008884Y44258D01*
X1008832Y44207D01*
X1008747Y44173D01*
X1008713Y44156D01*
X1008679Y44122D01*
X1008594Y44088D01*
X1008492Y44020D01*
X1008440Y44003D01*
X1008406Y43969D01*
X1008321Y43934D01*
X1008287Y43917D01*
X1008236Y43866D01*
X1008167Y43849D01*
X1008065Y43781D01*
X1007810Y43645D01*
X1007503Y43474D01*
X1007417Y43440D01*
X1007383Y43423D01*
X1007349Y43389D01*
X1007264Y43355D01*
X1007230Y43338D01*
X1007196Y43304D01*
X1007085Y43261D01*
X1007042Y43218D01*
X1006932Y43176D01*
X1006906Y43150D01*
X1006821Y43116D01*
X1006599Y42997D01*
X1006105Y42741D01*
X1004860Y42127D01*
X1004229Y41820D01*
X1003513Y41479D01*
X1003462Y41462D01*
X1003377Y41411D01*
X1003266Y41369D01*
X1003095Y41283D01*
X1003002Y41241D01*
X1002934Y41224D01*
X1002899Y41190D01*
X1002814Y41156D01*
X1002746Y41138D01*
X1002712Y41104D01*
X1002627Y41070D01*
X1002559Y41053D01*
X1002524Y41019D01*
X1002362Y40960D01*
X1002286Y40917D01*
X1002175Y40874D01*
X1002149Y40849D01*
X1002081Y40832D01*
X1001894Y40746D01*
X1001825Y40729D01*
X1001791Y40695D01*
X1001629Y40635D01*
X1001553Y40593D01*
X1001484Y40576D01*
X1001450Y40559D01*
X1001331Y40508D01*
X1001143Y40422D01*
X1001075Y40405D01*
X1000973Y40337D01*
X1000888Y40320D01*
X1000581Y40184D01*
X1000470Y40141D01*
X1000444Y40115D01*
X1000376Y40099D01*
X1000283Y40073D01*
X1000240Y40030D01*
X1000172Y40013D01*
X1000061Y39971D01*
X999967Y39928D01*
X999899Y39911D01*
X999865Y39877D01*
X999797Y39860D01*
X999686Y39817D01*
X999592Y39774D01*
X999524Y39757D01*
X999370Y39689D01*
X999259Y39647D01*
X999166Y39604D01*
X999072Y39578D01*
X999046Y39553D01*
X998833Y39476D01*
X998808Y39451D01*
X998697Y39425D01*
X998518Y39348D01*
X998450Y39331D01*
X998330Y39280D01*
X998245Y39246D01*
X998126Y39195D01*
X998032Y39169D01*
X998007Y39144D01*
X997887Y39110D01*
X997734Y39042D01*
X997665Y39024D01*
X997512Y38956D01*
X997418Y38931D01*
X997359Y38905D01*
X997273Y38871D01*
X997205Y38854D01*
X997171Y38837D01*
X997052Y38786D01*
X996966Y38769D01*
X996932Y38735D01*
X996796Y38700D01*
X996643Y38632D01*
X996574Y38615D01*
X996353Y38530D01*
X996259Y38504D01*
X996233Y38479D01*
X996097Y38445D01*
X995978Y38394D01*
X995764Y38317D01*
X995671Y38291D01*
X995551Y38240D01*
X995466Y38206D01*
X995364Y38189D01*
X995330Y38155D01*
X995125Y38104D01*
X995091Y38070D01*
X994980Y38044D01*
X994895Y38010D01*
X994784Y37967D01*
X994682Y37950D01*
X994529Y37882D01*
X994426Y37865D01*
X994392Y37831D01*
X994256Y37797D01*
X994136Y37746D01*
X994000Y37712D01*
X993881Y37661D01*
X993744Y37626D01*
X993625Y37575D01*
X993488Y37541D01*
X993369Y37490D01*
X993301Y37473D01*
X993190Y37430D01*
X993045Y37388D01*
X992977Y37371D01*
X992858Y37320D01*
X992730Y37294D01*
X992585Y37234D01*
X992483Y37217D01*
X992329Y37149D01*
X992201Y37123D01*
X992108Y37081D01*
X992039Y37064D01*
X991946Y37038D01*
X991852Y36996D01*
X991673Y36953D01*
X991579Y36910D01*
X991460Y36893D01*
X991306Y36825D01*
X991178Y36799D01*
X991093Y36765D01*
X990999Y36740D01*
X990889Y36714D01*
X990795Y36672D01*
X990727Y36655D01*
X990624Y36638D01*
X990505Y36586D01*
X990437Y36569D01*
X990343Y36544D01*
X990232Y36501D01*
X990104Y36476D01*
X990045Y36450D01*
X989959Y36416D01*
X989815Y36390D01*
X989721Y36348D01*
X989542Y36305D01*
X989456Y36271D01*
X989388Y36254D01*
X989286Y36237D01*
X989201Y36203D01*
X989056Y36160D01*
X988953Y36143D01*
X988834Y36092D01*
X988655Y36049D01*
X988544Y36007D01*
X988408Y35990D01*
X988289Y35939D01*
X988221Y35921D01*
X988118Y35905D01*
X988033Y35870D01*
X987914Y35836D01*
X987811Y35819D01*
X987692Y35768D01*
X987547Y35742D01*
X987351Y35683D01*
X987172Y35640D01*
X987061Y35598D01*
X986916Y35572D01*
X986805Y35529D01*
X986737Y35512D01*
X986601Y35495D01*
X986481Y35444D01*
X986362Y35427D01*
X986294Y35410D01*
X986209Y35376D01*
X986072Y35342D01*
X985970Y35325D01*
X985885Y35291D01*
X985817Y35274D01*
X985638Y35231D01*
X985561Y35206D01*
X985493Y35188D01*
X985348Y35163D01*
X985263Y35129D01*
X985194Y35112D01*
X985092Y35095D01*
X985024Y35078D01*
X984879Y35035D01*
X984811Y35018D01*
X984691Y35001D01*
X984606Y34967D01*
X984470Y34933D01*
X984350Y34916D01*
X984265Y34881D01*
X984197Y34864D01*
X984078Y34848D01*
X983967Y34805D01*
X983899Y34788D01*
X983796Y34771D01*
X983660Y34737D01*
X983566Y34711D01*
X983498Y34694D01*
X983362Y34677D01*
X983242Y34626D01*
X983123Y34609D01*
X982995Y34583D01*
X982884Y34541D01*
X982637Y34498D01*
X982526Y34455D01*
X982356Y34438D01*
X982305Y34421D01*
X982219Y34387D01*
X982100Y34370D01*
X981989Y34344D01*
X981921Y34327D01*
X981827Y34302D01*
X981759Y34285D01*
X981589Y34268D01*
X981503Y34234D01*
X981384Y34200D01*
X981230Y34183D01*
X981145Y34148D01*
X981077Y34131D01*
X980830Y34089D01*
X980685Y34046D01*
X980523Y34021D01*
X980318Y33969D01*
X980114Y33935D01*
X979969Y33893D01*
X979901Y33876D01*
X979713Y33859D01*
X979662Y33842D01*
X979577Y33807D01*
X979457Y33790D01*
X979313Y33765D01*
X979244Y33748D01*
X979167Y33722D01*
X978903Y33680D01*
X978810Y33654D01*
X978741Y33637D01*
X978562Y33611D01*
X978358Y33560D01*
X978136Y33526D01*
X978068Y33509D01*
X977974Y33484D01*
X977855Y33466D01*
X977710Y33441D01*
X977616Y33415D01*
X977548Y33398D01*
X977429Y33381D01*
X977284Y33356D01*
X977198Y33339D01*
X977062Y33305D01*
X976926Y33287D01*
X976781Y33262D01*
X976695Y33228D01*
X976465Y33202D01*
X976380Y33185D01*
X976286Y33160D01*
X976218Y33143D01*
X976013Y33126D01*
X975928Y33091D01*
X975783Y33066D01*
X975647Y33049D01*
X975485Y33023D01*
X975400Y32989D01*
X975170Y32964D01*
X975084Y32947D01*
X974982Y32929D01*
X974888Y32904D01*
X974820Y32887D01*
X974615Y32870D01*
X974530Y32836D01*
X974334Y32810D01*
X974164Y32793D01*
X974096Y32776D01*
X974002Y32750D01*
X973934Y32733D01*
X973669Y32708D01*
X973601Y32691D01*
X973524Y32665D01*
X973354Y32648D01*
X973115Y32614D01*
X973030Y32580D01*
X972646Y32537D01*
X972553Y32512D01*
X972433Y32495D01*
X972365Y32478D01*
X972160Y32461D01*
X972109Y32444D01*
X971964Y32418D01*
X971581Y32375D01*
X971496Y32341D01*
X971376Y32324D01*
X971129Y32299D01*
X971061Y32282D01*
X970958Y32265D01*
X970873Y32248D01*
X970686Y32231D01*
X970549Y32213D01*
X970413Y32179D01*
X970183Y32154D01*
X969970Y32128D01*
X969902Y32111D01*
X969808Y32085D01*
X969492Y32060D01*
X969330Y32034D01*
X969279Y32017D01*
X969211Y32000D01*
X968904Y31983D01*
X968853Y31966D01*
X968734Y31949D01*
X968682Y31932D01*
X968418Y31906D01*
X968265Y31890D01*
X968077Y31855D01*
X967941Y31838D01*
X967753Y31821D01*
X967600Y31804D01*
X967515Y31787D01*
X967412Y31770D01*
X967327Y31753D01*
X967054Y31736D01*
X966969Y31719D01*
X966867Y31702D01*
X966517Y31659D01*
X966279Y31642D01*
X966227Y31625D01*
X966066Y31600D01*
X965878Y31583D01*
X965656Y31566D01*
X965486Y31532D01*
X965332Y31514D01*
X965128Y31497D01*
X965068Y31489D01*
X965008Y31532D01*
X964992Y58469D01*
X964966Y58494D01*
X924151Y58477D01*
X924126Y58400D01*
X924109Y31514D01*
X924083Y31489D01*
X923861Y31506D01*
X923563Y31549D01*
X923478Y31566D01*
X923256Y31583D01*
X923068Y31600D01*
X922966Y31617D01*
X922881Y31634D01*
X922745Y31651D01*
X922523Y31668D01*
X922386Y31685D01*
X922165Y31719D01*
X922080Y31736D01*
X921807Y31753D01*
X921722Y31770D01*
X921619Y31787D01*
X921534Y31804D01*
X921381Y31821D01*
X921193Y31838D01*
X921057Y31855D01*
X920988Y31872D01*
X920758Y31898D01*
X920639Y31915D01*
X920409Y31941D01*
X920315Y31966D01*
X920145Y31983D01*
X920025Y32000D01*
X919821Y32017D01*
X919735Y32051D01*
X919463Y32069D01*
X919395Y32085D01*
X919241Y32103D01*
X919190Y32120D01*
X919122Y32137D01*
X918900Y32154D01*
X918678Y32188D01*
X918627Y32205D01*
X918508Y32222D01*
X918337Y32239D01*
X918201Y32256D01*
X918150Y32273D01*
X918005Y32299D01*
X917869Y32316D01*
X917681Y32333D01*
X917613Y32350D01*
X917536Y32375D01*
X917323Y32401D01*
X917170Y32418D01*
X917084Y32435D01*
X916982Y32452D01*
X916888Y32478D01*
X916633Y32495D01*
X916581Y32512D01*
X916488Y32537D01*
X916385Y32554D01*
X916215Y32571D01*
X916078Y32589D01*
X916002Y32614D01*
X915934Y32631D01*
X915669Y32657D01*
X915584Y32674D01*
X915490Y32699D01*
X915422Y32716D01*
X915192Y32742D01*
X915090Y32759D01*
X914996Y32785D01*
X914928Y32802D01*
X914689Y32819D01*
X914638Y32836D01*
X914553Y32853D01*
X914501Y32870D01*
X914433Y32887D01*
X914212Y32904D01*
X914126Y32938D01*
X913964Y32964D01*
X913734Y32989D01*
X913564Y33040D01*
X913351Y33066D01*
X913282Y33083D01*
X913197Y33100D01*
X913129Y33117D01*
X913027Y33134D01*
X912873Y33151D01*
X912805Y33168D01*
X912711Y33194D01*
X912473Y33228D01*
X912285Y33279D01*
X912072Y33305D01*
X911936Y33339D01*
X911765Y33373D01*
X911544Y33407D01*
X911450Y33432D01*
X911382Y33449D01*
X911262Y33466D01*
X911134Y33492D01*
X910998Y33526D01*
X910896Y33543D01*
X910708Y33577D01*
X910614Y33603D01*
X910495Y33620D01*
X910427Y33637D01*
X910290Y33654D01*
X910205Y33688D01*
X909958Y33731D01*
X909822Y33765D01*
X909736Y33782D01*
X909600Y33799D01*
X909532Y33816D01*
X909455Y33842D01*
X909387Y33859D01*
X909148Y33893D01*
X909097Y33910D01*
X908978Y33944D01*
X908816Y33969D01*
X908611Y34021D01*
X908407Y34055D01*
X908296Y34097D01*
X908031Y34140D01*
X907938Y34165D01*
X907818Y34200D01*
X907665Y34217D01*
X907580Y34251D01*
X907512Y34268D01*
X907392Y34285D01*
X907290Y34302D01*
X907205Y34336D01*
X907136Y34353D01*
X906889Y34396D01*
X906778Y34438D01*
X906582Y34464D01*
X906471Y34506D01*
X906352Y34523D01*
X906284Y34541D01*
X906199Y34558D01*
X906114Y34592D01*
X905994Y34609D01*
X905866Y34634D01*
X905755Y34677D01*
X905636Y34694D01*
X905525Y34720D01*
X905380Y34762D01*
X905261Y34779D01*
X905039Y34848D01*
X904894Y34873D01*
X904698Y34933D01*
X904562Y34950D01*
X904477Y34984D01*
X904357Y35018D01*
X904221Y35035D01*
X904102Y35086D01*
X903982Y35103D01*
X903872Y35129D01*
X903761Y35171D01*
X903599Y35197D01*
X903403Y35257D01*
X903335Y35274D01*
X903232Y35291D01*
X903147Y35325D01*
X903079Y35342D01*
X902951Y35367D01*
X902840Y35410D01*
X902721Y35427D01*
X902584Y35461D01*
X902499Y35495D01*
X902431Y35512D01*
X902303Y35538D01*
X902218Y35572D01*
X902150Y35589D01*
X902047Y35606D01*
X901936Y35649D01*
X901868Y35666D01*
X901689Y35708D01*
X901544Y35751D01*
X901391Y35785D01*
X901306Y35819D01*
X901237Y35836D01*
X901127Y35862D01*
X901041Y35896D01*
X900973Y35913D01*
X900871Y35930D01*
X900786Y35964D01*
X900692Y35990D01*
X900624Y36007D01*
X900530Y36032D01*
X900453Y36058D01*
X900385Y36075D01*
X900232Y36109D01*
X900112Y36160D01*
X899984Y36186D01*
X899874Y36228D01*
X899805Y36245D01*
X899678Y36271D01*
X899584Y36314D01*
X899405Y36356D01*
X899294Y36399D01*
X899149Y36425D01*
X899055Y36467D01*
X898919Y36501D01*
X898825Y36527D01*
X898714Y36569D01*
X898612Y36586D01*
X898493Y36638D01*
X898425Y36655D01*
X898322Y36672D01*
X898203Y36723D01*
X898135Y36740D01*
X898041Y36765D01*
X897947Y36808D01*
X897828Y36825D01*
X897674Y36893D01*
X897555Y36910D01*
X897402Y36978D01*
X897265Y36996D01*
X897112Y37064D01*
X897009Y37081D01*
X896924Y37132D01*
X896805Y37149D01*
X896583Y37234D01*
X896481Y37251D01*
X896362Y37302D01*
X896225Y37337D01*
X896106Y37388D01*
X895995Y37413D01*
X895901Y37456D01*
X895833Y37473D01*
X895739Y37499D01*
X895646Y37541D01*
X895577Y37558D01*
X895483Y37584D01*
X895390Y37626D01*
X895279Y37652D01*
X895194Y37686D01*
X895117Y37712D01*
X895049Y37729D01*
X894930Y37780D01*
X894861Y37797D01*
X894640Y37882D01*
X894529Y37908D01*
X894435Y37950D01*
X894367Y37967D01*
X894273Y37993D01*
X894248Y38019D01*
X894128Y38053D01*
X894034Y38078D01*
X894009Y38104D01*
X893941Y38121D01*
X893847Y38146D01*
X893702Y38206D01*
X893608Y38232D01*
X893463Y38291D01*
X893370Y38317D01*
X893276Y38359D01*
X893207Y38377D01*
X892986Y38462D01*
X892892Y38487D01*
X892867Y38513D01*
X892798Y38530D01*
X892705Y38556D01*
X892611Y38598D01*
X892492Y38632D01*
X892338Y38700D01*
X892227Y38726D01*
X892116Y38786D01*
X892014Y38803D01*
X891980Y38837D01*
X891912Y38854D01*
X891690Y38939D01*
X891622Y38956D01*
X891469Y39024D01*
X891375Y39050D01*
X891298Y39093D01*
X891230Y39110D01*
X891119Y39152D01*
X891094Y39178D01*
X891025Y39195D01*
X890940Y39212D01*
X890906Y39246D01*
X890787Y39280D01*
X890633Y39348D01*
X890565Y39365D01*
X890412Y39434D01*
X890343Y39451D01*
X890190Y39519D01*
X890079Y39561D01*
X890053Y39587D01*
X889943Y39613D01*
X889764Y39689D01*
X889696Y39706D01*
X889661Y39741D01*
X889593Y39757D01*
X889482Y39800D01*
X889389Y39843D01*
X889320Y39860D01*
X889286Y39877D01*
X889167Y39928D01*
X888979Y40013D01*
X888894Y40030D01*
X888843Y40081D01*
X888690Y40115D01*
X888639Y40167D01*
X888528Y40192D01*
X888417Y40252D01*
X888323Y40278D01*
X888246Y40320D01*
X888110Y40371D01*
X887991Y40422D01*
X887803Y40508D01*
X887735Y40525D01*
X887701Y40559D01*
X887581Y40593D01*
X887547Y40610D01*
X887513Y40644D01*
X887445Y40661D01*
X887334Y40704D01*
X887309Y40729D01*
X887240Y40746D01*
X887053Y40832D01*
X886985Y40849D01*
X886951Y40883D01*
X886865Y40917D01*
X886814Y40934D01*
X886780Y40968D01*
X886712Y40985D01*
X886601Y41028D01*
X886575Y41053D01*
X886414Y41113D01*
X886388Y41138D01*
X886252Y41190D01*
X886132Y41241D01*
X885808Y41394D01*
X885723Y41428D01*
X885689Y41462D01*
X885621Y41479D01*
X885536Y41514D01*
X885450Y41565D01*
X885365Y41599D01*
X885331Y41633D01*
X885195Y41667D01*
X885143Y41718D01*
X885050Y41744D01*
X884990Y41786D01*
X884905Y41820D01*
X884837Y41838D01*
X884802Y41872D01*
X884692Y41914D01*
X884666Y41940D01*
X884581Y41974D01*
X884325Y42110D01*
X884240Y42144D01*
X884172Y42161D01*
X884138Y42196D01*
X884027Y42238D01*
X883916Y42298D01*
X883012Y42758D01*
X882688Y42929D01*
X882603Y42963D01*
X882518Y43014D01*
X882365Y43099D01*
X882279Y43133D01*
X882245Y43150D01*
X882092Y43235D01*
X882058Y43270D01*
X881989Y43287D01*
X881904Y43338D01*
X881751Y43423D01*
X881461Y43576D01*
X880694Y44003D01*
X880574Y44071D01*
X880421Y44156D01*
X880293Y44216D01*
X880285Y44241D01*
X880199Y44275D01*
X880165Y44292D01*
X880131Y44327D01*
X879978Y44412D01*
X879858Y44480D01*
X879705Y44565D01*
X879585Y44633D01*
X879551Y44668D01*
X879466Y44702D01*
X879432Y44736D01*
X879313Y44804D01*
X879159Y44889D01*
X879125Y44923D01*
X879057Y44940D01*
X879006Y44991D01*
X878921Y45026D01*
X878869Y45077D01*
X878784Y45111D01*
X878750Y45145D01*
X878512Y45281D01*
X878477Y45315D01*
X878239Y45452D01*
X878205Y45486D01*
X878085Y45554D01*
X877915Y45656D01*
X877881Y45673D01*
X877761Y45759D01*
X877727Y45776D01*
X877693Y45810D01*
X877608Y45844D01*
X877557Y45895D01*
X877471Y45946D01*
X877352Y46014D01*
X877301Y46066D01*
X877233Y46083D01*
X877165Y46151D01*
X877113Y46168D01*
X877062Y46219D01*
X876943Y46287D01*
X876824Y46372D01*
X876704Y46441D01*
X876670Y46475D01*
X876585Y46526D01*
X876551Y46560D01*
X876517Y46577D01*
X876483Y46611D01*
X876363Y46679D01*
X876329Y46713D01*
X876244Y46764D01*
X876074Y46884D01*
X876039Y46901D01*
X876005Y46935D01*
X875971Y46952D01*
X875877Y47029D01*
X875784Y47088D01*
X875681Y47157D01*
X875647Y47174D01*
X875613Y47208D01*
X875579Y47225D01*
X875528Y47276D01*
X875443Y47327D01*
X875409Y47361D01*
X875323Y47412D01*
X875289Y47446D01*
X875204Y47498D01*
X875170Y47532D01*
X875085Y47583D01*
X875051Y47617D01*
X875016Y47634D01*
X874965Y47685D01*
X874880Y47736D01*
X874846Y47770D01*
X874761Y47822D01*
X874727Y47856D01*
X874693Y47873D01*
X874641Y47924D01*
X874607Y47941D01*
X874513Y48018D01*
X874420Y48077D01*
X874369Y48128D01*
X874334Y48145D01*
X874283Y48197D01*
X874249Y48214D01*
X874198Y48265D01*
X874113Y48316D01*
X874079Y48350D01*
X874045Y48367D01*
X873951Y48444D01*
X873900Y48478D01*
X873891Y48503D01*
X873857Y48521D01*
X873763Y48597D01*
X873618Y48708D01*
X873593Y48717D01*
X873584Y48742D01*
X873550Y48759D01*
X873516Y48793D01*
X873482Y48810D01*
X873448Y48844D01*
X873414Y48861D01*
X873405Y48904D01*
X873431Y48930D01*
X903931Y48947D01*
X903948Y49015D01*
X903957Y58400D01*
X903940Y58451D01*
X903923Y58486D01*
X873422Y58503D01*
X873405Y58537D01*
X873465Y58596D01*
X873499Y58614D01*
X873550Y58665D01*
X873584Y58682D01*
X873653Y58750D01*
X873687Y58767D01*
X873738Y58818D01*
X873814Y58861D01*
X873823Y58886D01*
X873857Y58903D01*
X873951Y58980D01*
X874011Y59023D01*
X874062Y59074D01*
X874147Y59125D01*
X874181Y59159D01*
X874215Y59176D01*
X874266Y59227D01*
X874300Y59244D01*
X874369Y59313D01*
X874454Y59364D01*
X874488Y59398D01*
X874522Y59415D01*
X874573Y59466D01*
X874658Y59517D01*
X874693Y59551D01*
X874727Y59568D01*
X874880Y59688D01*
X875093Y59850D01*
X875212Y59918D01*
X875221Y59943D01*
X875255Y59960D01*
X875349Y60037D01*
X875443Y60097D01*
X875477Y60131D01*
X875562Y60182D01*
X875920Y60438D01*
X876133Y60583D01*
X876176Y60625D01*
X876227Y60642D01*
X876278Y60693D01*
X876363Y60745D01*
X876483Y60830D01*
X876602Y60898D01*
X876653Y60949D01*
X876738Y61000D01*
X876858Y61069D01*
X876909Y61120D01*
X876960Y61137D01*
X877011Y61188D01*
X877096Y61239D01*
X877216Y61307D01*
X877267Y61358D01*
X877318Y61375D01*
X877352Y61410D01*
X877471Y61478D01*
X877506Y61512D01*
X877591Y61563D01*
X877710Y61631D01*
X877812Y61699D01*
X877847Y61716D01*
X877881Y61750D01*
X878000Y61819D01*
X878188Y61938D01*
X878222Y61955D01*
X878256Y61989D01*
X878494Y62126D01*
X878529Y62160D01*
X878614Y62194D01*
X878665Y62245D01*
X878750Y62279D01*
X878784Y62313D01*
X878938Y62398D01*
X879057Y62467D01*
X879091Y62501D01*
X879159Y62518D01*
X879211Y62569D01*
X879449Y62705D01*
X879483Y62739D01*
X879594Y62782D01*
X879637Y62825D01*
X879858Y62944D01*
X880029Y63046D01*
X880182Y63131D01*
X880421Y63268D01*
X880591Y63370D01*
X881205Y63711D01*
X881461Y63847D01*
X881495Y63882D01*
X881563Y63899D01*
X881648Y63950D01*
X881955Y64120D01*
X882842Y64580D01*
X883200Y64768D01*
X883285Y64802D01*
X883541Y64939D01*
X883592Y64956D01*
X884018Y65177D01*
X884103Y65211D01*
X884359Y65348D01*
X884410Y65365D01*
X884598Y65450D01*
X885092Y65689D01*
X885450Y65859D01*
X885536Y65893D01*
X885570Y65927D01*
X885638Y65944D01*
X885825Y66030D01*
X885911Y66081D01*
X885962Y66098D01*
X886073Y66140D01*
X886115Y66183D01*
X886217Y66200D01*
X886320Y66268D01*
X886388Y66285D01*
X886575Y66371D01*
X886610Y66388D01*
X886729Y66439D01*
X886763Y66456D01*
X886848Y66507D01*
X886942Y66533D01*
X886968Y66558D01*
X887053Y66592D01*
X887121Y66609D01*
X887155Y66644D01*
X887240Y66677D01*
X887334Y66703D01*
X887445Y66763D01*
X887513Y66780D01*
X887547Y66814D01*
X887667Y66848D01*
X887701Y66865D01*
X887786Y66916D01*
X887880Y66942D01*
X887991Y67002D01*
X888084Y67027D01*
X888110Y67053D01*
X888195Y67087D01*
X888289Y67112D01*
X888332Y67155D01*
X888468Y67189D01*
X888775Y67325D01*
X888962Y67411D01*
X889056Y67436D01*
X889082Y67462D01*
X889167Y67496D01*
X889252Y67513D01*
X889337Y67564D01*
X889406Y67581D01*
X889593Y67666D01*
X889661Y67683D01*
X889696Y67717D01*
X889832Y67752D01*
X889985Y67820D01*
X890096Y67863D01*
X890122Y67888D01*
X890190Y67905D01*
X890284Y67931D01*
X890309Y67956D01*
X890395Y67990D01*
X890497Y68007D01*
X890548Y68059D01*
X890676Y68084D01*
X890787Y68144D01*
X890880Y68169D01*
X891025Y68229D01*
X891136Y68272D01*
X891162Y68297D01*
X891264Y68314D01*
X891451Y68400D01*
X891537Y68417D01*
X891690Y68485D01*
X891758Y68502D01*
X891793Y68536D01*
X891861Y68553D01*
X891954Y68579D01*
X892099Y68638D01*
X892168Y68655D01*
X892321Y68723D01*
X892415Y68749D01*
X892492Y68792D01*
X892560Y68809D01*
X892653Y68834D01*
X892798Y68894D01*
X892867Y68911D01*
X892986Y68962D01*
X893054Y68979D01*
X893207Y69047D01*
X893318Y69073D01*
X893344Y69099D01*
X893463Y69133D01*
X893685Y69218D01*
X893779Y69243D01*
X893872Y69286D01*
X893941Y69303D01*
X894034Y69329D01*
X894128Y69371D01*
X894196Y69388D01*
X894350Y69457D01*
X894478Y69482D01*
X894571Y69525D01*
X894708Y69559D01*
X894742Y69593D01*
X894947Y69644D01*
X895066Y69695D01*
X895202Y69729D01*
X895322Y69780D01*
X895432Y69806D01*
X895509Y69849D01*
X895577Y69866D01*
X895688Y69891D01*
X895765Y69934D01*
X895833Y69951D01*
X895935Y69968D01*
X895969Y70002D01*
X896174Y70053D01*
X896293Y70104D01*
X896362Y70121D01*
X896464Y70138D01*
X896498Y70173D01*
X896566Y70190D01*
X896677Y70215D01*
X896822Y70275D01*
X896933Y70300D01*
X897018Y70335D01*
X897206Y70386D01*
X897299Y70428D01*
X897367Y70445D01*
X897470Y70462D01*
X897589Y70514D01*
X897657Y70531D01*
X897751Y70556D01*
X897845Y70599D01*
X897973Y70624D01*
X898066Y70667D01*
X898135Y70684D01*
X898245Y70710D01*
X898331Y70744D01*
X898425Y70769D01*
X898535Y70795D01*
X898629Y70837D01*
X898697Y70855D01*
X898800Y70872D01*
X898919Y70923D01*
X899098Y70965D01*
X899209Y71008D01*
X899277Y71025D01*
X899362Y71042D01*
X899482Y71093D01*
X899618Y71110D01*
X899771Y71178D01*
X899908Y71196D01*
X900027Y71247D01*
X900095Y71264D01*
X900189Y71289D01*
X900300Y71332D01*
X900419Y71349D01*
X900530Y71392D01*
X900624Y71417D01*
X900803Y71460D01*
X900897Y71502D01*
X901033Y71519D01*
X901152Y71571D01*
X901220Y71588D01*
X901357Y71605D01*
X901476Y71656D01*
X901544Y71673D01*
X901647Y71690D01*
X901766Y71741D01*
X901885Y71758D01*
X901954Y71775D01*
X902039Y71809D01*
X902107Y71826D01*
X902286Y71869D01*
X902397Y71912D01*
X902533Y71929D01*
X902653Y71980D01*
X902772Y71997D01*
X902908Y72031D01*
X902993Y72065D01*
X903062Y72082D01*
X903181Y72099D01*
X903300Y72150D01*
X903462Y72176D01*
X903548Y72210D01*
X903641Y72235D01*
X903786Y72261D01*
X903855Y72278D01*
X903965Y72321D01*
X904127Y72346D01*
X904323Y72406D01*
X904460Y72423D01*
X904545Y72457D01*
X904664Y72491D01*
X904801Y72508D01*
X904920Y72559D01*
X905082Y72585D01*
X905150Y72602D01*
X905261Y72645D01*
X905423Y72670D01*
X905491Y72687D01*
X905636Y72730D01*
X905798Y72755D01*
X905909Y72798D01*
X906028Y72815D01*
X906156Y72841D01*
X906267Y72883D01*
X906386Y72900D01*
X906514Y72926D01*
X906625Y72969D01*
X906804Y72994D01*
X906872Y73011D01*
X907017Y73054D01*
X907239Y73088D01*
X907358Y73139D01*
X907546Y73156D01*
X907631Y73190D01*
X907767Y73224D01*
X907921Y73241D01*
X907972Y73258D01*
X908091Y73292D01*
X908159Y73309D01*
X908296Y73327D01*
X908347Y73344D01*
X908466Y73378D01*
X908586Y73395D01*
X908688Y73412D01*
X908739Y73429D01*
X908858Y73463D01*
X909020Y73489D01*
X909225Y73540D01*
X909429Y73574D01*
X909523Y73599D01*
X909643Y73633D01*
X909830Y73650D01*
X909881Y73667D01*
X909967Y73702D01*
X910137Y73719D01*
X910478Y73804D01*
X910648Y73821D01*
X910700Y73838D01*
X910836Y73872D01*
X910955Y73889D01*
X911083Y73915D01*
X911151Y73932D01*
X911245Y73957D01*
X911441Y73983D01*
X911509Y74000D01*
X911603Y74026D01*
X911671Y74043D01*
X911876Y74060D01*
X911927Y74077D01*
X912012Y74111D01*
X912183Y74128D01*
X912302Y74145D01*
X912387Y74179D01*
X912626Y74213D01*
X912771Y74239D01*
X912865Y74264D01*
X912933Y74281D01*
X913129Y74307D01*
X913231Y74324D01*
X913376Y74367D01*
X913598Y74384D01*
X913649Y74401D01*
X913785Y74435D01*
X914084Y74477D01*
X914152Y74494D01*
X914246Y74520D01*
X914459Y74546D01*
X914561Y74563D01*
X914646Y74580D01*
X914740Y74605D01*
X914911Y74622D01*
X915013Y74639D01*
X915064Y74656D01*
X915209Y74682D01*
X915311Y74699D01*
X915482Y74716D01*
X915575Y74742D01*
X915703Y74767D01*
X915874Y74784D01*
X915976Y74801D01*
X916070Y74827D01*
X916206Y74844D01*
X916257Y74861D01*
X916462Y74878D01*
X916513Y74895D01*
X916581Y74912D01*
X916743Y74938D01*
X916914Y74955D01*
X917119Y74989D01*
X917195Y75014D01*
X917494Y75040D01*
X917562Y75057D01*
X917655Y75083D01*
X917852Y75108D01*
X918022Y75125D01*
X918107Y75142D01*
X918176Y75159D01*
X918261Y75176D01*
X918602Y75210D01*
X918696Y75236D01*
X918840Y75262D01*
X919028Y75279D01*
X919181Y75296D01*
X919249Y75313D01*
X919352Y75330D01*
X919437Y75347D01*
X919625Y75364D01*
X919761Y75381D01*
X919829Y75398D01*
X919931Y75415D01*
X920085Y75432D01*
X920290Y75449D01*
X920383Y75475D01*
X920520Y75492D01*
X920571Y75509D01*
X920886Y75534D01*
X921023Y75551D01*
X921099Y75577D01*
X921534Y75620D01*
X921636Y75637D01*
X921705Y75654D01*
X921841Y75671D01*
X922046Y75688D01*
X922199Y75705D01*
X922361Y75731D01*
X922412Y75747D01*
X922864Y75790D01*
X923000Y75807D01*
X923077Y75833D01*
X923111Y75816D01*
X923162Y75833D01*
X923282Y75850D01*
X923605Y75867D01*
X923657Y75884D01*
X923895Y75918D01*
X924228Y75944D01*
X924381Y75961D01*
X924458Y75986D01*
X924782Y76003D01*
X924850Y76020D01*
X925114Y76046D01*
X925208Y76071D01*
X925575Y76097D01*
X925916Y76131D01*
X926009Y76157D01*
X926436Y76174D01*
X926581Y76199D01*
X926751Y76216D01*
X926845Y76242D01*
X926879Y76225D01*
X926930Y76242D01*
X927152Y76259D01*
X927441Y76276D01*
X927493Y76293D01*
X927527Y76276D01*
X927578Y76293D01*
X927646Y76310D01*
X928251Y76353D01*
X928456Y76370D01*
X928550Y76395D01*
X928984Y76421D01*
X929445Y76455D01*
X929538Y76481D01*
X929990Y76506D01*
X930468Y76540D01*
X930536Y76557D01*
X931363Y76600D01*
X931414Y76617D01*
X931687Y76634D01*
X931738Y76651D01*
X932369Y76668D01*
X932573Y76685D01*
X932624Y76702D01*
X932786Y76694D01*
X932863Y76719D01*
X933485Y76745D01*
X934184Y76779D01*
X934261Y76804D01*
X934968Y76830D01*
X935395Y76847D01*
X935753Y76864D01*
X935847Y76890D01*
X936776Y76915D01*
X937730Y76950D01*
X937799Y76967D01*
X938378Y76983D01*
X939708Y77001D01*
X940578Y77018D01*
X940629Y77052D01*
X940637Y77077D01*
X948514Y77060D01*
D02*
G37*
G36*
X945377Y53738D02*
X945428Y53720D01*
X945547Y53738D01*
X945599Y53720D01*
X945718Y53703D01*
X945914Y53678D01*
X946221Y53661D01*
X946425Y53627D01*
X946519Y53601D01*
X946783Y53576D01*
X946869Y53559D01*
X946962Y53533D01*
X947031Y53516D01*
X947201Y53499D01*
X947295Y53473D01*
X947440Y53431D01*
X947602Y53405D01*
X947798Y53345D01*
X947943Y53320D01*
X948028Y53286D01*
X948122Y53260D01*
X948250Y53235D01*
X948343Y53192D01*
X948411Y53175D01*
X948505Y53149D01*
X948616Y53107D01*
X948727Y53081D01*
X948872Y53021D01*
X948940Y53004D01*
X949093Y52936D01*
X949204Y52911D01*
X949230Y52885D01*
X949315Y52851D01*
X949417Y52834D01*
X949469Y52783D01*
X949579Y52757D01*
X949690Y52698D01*
X949801Y52655D01*
X950116Y52510D01*
X950304Y52425D01*
X950338Y52408D01*
X950372Y52374D01*
X950440Y52357D01*
X950526Y52305D01*
X950679Y52220D01*
X950764Y52186D01*
X950798Y52169D01*
X950850Y52118D01*
X950918Y52101D01*
X950969Y52050D01*
X951080Y52007D01*
X951122Y51964D01*
X951480Y51760D01*
X951531Y51709D01*
X951651Y51641D01*
X951864Y51496D01*
X951889Y51470D01*
X951983Y51427D01*
X951992Y51402D01*
X952026Y51385D01*
X952239Y51223D01*
X952333Y51163D01*
X952367Y51129D01*
X952401Y51112D01*
X952435Y51078D01*
X952469Y51061D01*
X952563Y50984D01*
X952589Y50959D01*
X952623Y50942D01*
X952691Y50873D01*
X952725Y50856D01*
X952776Y50805D01*
X952810Y50788D01*
X952878Y50720D01*
X952938Y50694D01*
X952955Y50660D01*
X952981Y50635D01*
X953015Y50618D01*
X953168Y50464D01*
X953202Y50447D01*
X953219Y50413D01*
X953253Y50396D01*
X953339Y50311D01*
X953364Y50302D01*
X953381Y50268D01*
X953407Y50243D01*
X953441Y50226D01*
X953492Y50157D01*
X953526Y50140D01*
X953611Y50055D01*
X953645Y50038D01*
X953756Y49927D01*
X953773Y49893D01*
X953859Y49808D01*
X953876Y49774D01*
X953901Y49748D01*
X953927Y49740D01*
X953944Y49706D01*
X953987Y49663D01*
X954021Y49646D01*
X954063Y49586D01*
X954114Y49535D01*
X954123Y49509D01*
X954157Y49492D01*
X954183Y49467D01*
X954200Y49433D01*
X954225Y49407D01*
X954251Y49399D01*
X954268Y49365D01*
X954336Y49296D01*
X954353Y49262D01*
X954421Y49194D01*
X954438Y49160D01*
X954507Y49092D01*
X954523Y49058D01*
X954592Y48989D01*
X954609Y48955D01*
X954660Y48904D01*
X954677Y48870D01*
X954745Y48802D01*
X954762Y48768D01*
X954882Y48614D01*
X954967Y48495D01*
X955001Y48461D01*
X955052Y48376D01*
X955171Y48205D01*
X955188Y48171D01*
X955240Y48120D01*
X955257Y48069D01*
X955308Y48018D01*
X955359Y47932D01*
X955427Y47813D01*
X955478Y47762D01*
X955512Y47677D01*
X955546Y47643D01*
X955683Y47404D01*
X955717Y47370D01*
X955760Y47259D01*
X955802Y47216D01*
X955836Y47131D01*
X955887Y47080D01*
X955913Y46986D01*
X955939Y46961D01*
X955973Y46875D01*
X956024Y46790D01*
X956058Y46756D01*
X956084Y46662D01*
X956109Y46637D01*
X956118Y46628D01*
X956160Y46517D01*
X956177Y46483D01*
X956228Y46364D01*
X956280Y46279D01*
X956314Y46193D01*
X956331Y46125D01*
X956365Y46091D01*
X956424Y45929D01*
X956450Y45904D01*
X956467Y45835D01*
X956501Y45750D01*
X956552Y45631D01*
X956569Y45563D01*
X956620Y45477D01*
X956646Y45367D01*
X956723Y45188D01*
X956740Y45085D01*
X956808Y44932D01*
X956825Y44830D01*
X956859Y44795D01*
X956885Y44685D01*
X956902Y44616D01*
X956936Y44531D01*
X956962Y44437D01*
X956987Y44310D01*
X957030Y44216D01*
X957047Y44096D01*
X957072Y44003D01*
X957115Y43858D01*
X957132Y43738D01*
X957158Y43645D01*
X957200Y43500D01*
X957226Y43287D01*
X957243Y43218D01*
X957268Y43125D01*
X957285Y43005D01*
X957319Y42733D01*
X957337Y42681D01*
X957371Y42443D01*
X957388Y42119D01*
X957405Y42068D01*
X957422Y41863D01*
X957439Y41812D01*
X957422Y41693D01*
X957439Y41641D01*
X957456Y41573D01*
X957439Y39851D01*
X957422Y39800D01*
X957405Y39681D01*
X957379Y39468D01*
X957362Y39195D01*
X957345Y39093D01*
X957328Y39007D01*
X957311Y38939D01*
X957294Y38803D01*
X957277Y38632D01*
X957260Y38547D01*
X957234Y38470D01*
X957217Y38402D01*
X957192Y38189D01*
X957149Y38044D01*
X957132Y37976D01*
X957106Y37814D01*
X957089Y37746D01*
X957047Y37635D01*
X957030Y37499D01*
X956996Y37413D01*
X956962Y37294D01*
X956944Y37192D01*
X956893Y37072D01*
X956876Y37004D01*
X956859Y36919D01*
X956808Y36799D01*
X956774Y36663D01*
X956723Y36544D01*
X956638Y36322D01*
X956612Y36228D01*
X956569Y36152D01*
X956535Y36015D01*
X956501Y35981D01*
X956467Y35896D01*
X956450Y35811D01*
X956416Y35777D01*
X956382Y35691D01*
X956365Y35623D01*
X956314Y35538D01*
X956271Y35427D01*
X956228Y35350D01*
X956194Y35265D01*
X956160Y35231D01*
X956143Y35163D01*
X956092Y35078D01*
X956058Y34992D01*
X956007Y34907D01*
X955973Y34822D01*
X955956Y34788D01*
X955921Y34754D01*
X955887Y34668D01*
X955870Y34634D01*
X955836Y34600D01*
X955802Y34515D01*
X955734Y34413D01*
X955615Y34191D01*
X955581Y34157D01*
X955444Y33918D01*
X955410Y33884D01*
X955359Y33799D01*
X955291Y33680D01*
X955240Y33628D01*
X955188Y33543D01*
X954933Y33185D01*
X954771Y32972D01*
X954728Y32912D01*
X954677Y32861D01*
X954660Y32827D01*
X954609Y32776D01*
X954592Y32742D01*
X954515Y32648D01*
X954489Y32623D01*
X954472Y32589D01*
X954404Y32520D01*
X954387Y32486D01*
X954336Y32435D01*
X954327Y32410D01*
X954293Y32392D01*
X954251Y32350D01*
X954234Y32316D01*
X954097Y32179D01*
X954089Y32154D01*
X954055Y32137D01*
X954029Y32111D01*
X953978Y32026D01*
X953373Y31421D01*
X953339Y31404D01*
X953270Y31335D01*
X953236Y31318D01*
X953211Y31293D01*
X953194Y31259D01*
X953023Y31122D01*
X953015Y31097D01*
X952981Y31080D01*
X952929Y31028D01*
X952895Y31012D01*
X952810Y30926D01*
X952776Y30909D01*
X952725Y30858D01*
X952691Y30841D01*
X952648Y30815D01*
X952631Y30781D01*
X952546Y30730D01*
X952529Y30696D01*
X952435Y30636D01*
X952401Y30602D01*
X952367Y30585D01*
X952213Y30466D01*
X952120Y30389D01*
X951983Y30304D01*
X951958Y30278D01*
X951924Y30261D01*
X951804Y30176D01*
X951770Y30159D01*
X951736Y30125D01*
X951565Y30023D01*
X951531Y30006D01*
X951480Y29954D01*
X951242Y29818D01*
X951208Y29784D01*
X951139Y29767D01*
X951088Y29716D01*
X951003Y29682D01*
X950969Y29648D01*
X950884Y29613D01*
X950850Y29596D01*
X950798Y29545D01*
X950705Y29520D01*
X950662Y29477D01*
X950577Y29443D01*
X950543Y29426D01*
X950508Y29392D01*
X950372Y29341D01*
X950338Y29307D01*
X950227Y29264D01*
X950151Y29221D01*
X950082Y29204D01*
X950048Y29187D01*
X949963Y29136D01*
X949878Y29102D01*
X949571Y28966D01*
X949460Y28923D01*
X949434Y28897D01*
X949324Y28872D01*
X949145Y28795D01*
X949051Y28770D01*
X949008Y28727D01*
X948872Y28710D01*
X948787Y28659D01*
X948718Y28642D01*
X948608Y28616D01*
X948531Y28574D01*
X948463Y28556D01*
X948360Y28539D01*
X948241Y28488D01*
X948173Y28471D01*
X948062Y28446D01*
X947968Y28403D01*
X947806Y28377D01*
X947738Y28360D01*
X947627Y28318D01*
X947465Y28292D01*
X947397Y28275D01*
X947252Y28233D01*
X947065Y28215D01*
X946979Y28181D01*
X946911Y28164D01*
X946562Y28122D01*
X946494Y28105D01*
X946391Y28088D01*
X946306Y28071D01*
X946033Y28054D01*
X945948Y28036D01*
X945778Y28019D01*
X945709Y28002D01*
X945633Y27994D01*
X945615Y28011D01*
X945564Y27994D01*
X945343Y27977D01*
X943536Y27994D01*
X943519Y28011D01*
X943467Y27994D01*
X943357Y28019D01*
X943186Y28036D01*
X943101Y28054D01*
X942751Y28079D01*
X942700Y28096D01*
X942496Y28130D01*
X942197Y28173D01*
X942129Y28190D01*
X942035Y28215D01*
X941916Y28233D01*
X941814Y28250D01*
X941762Y28267D01*
X941626Y28301D01*
X941507Y28318D01*
X941422Y28352D01*
X941302Y28386D01*
X941166Y28403D01*
X941046Y28454D01*
X940978Y28471D01*
X940850Y28497D01*
X940757Y28539D01*
X940688Y28556D01*
X940595Y28582D01*
X940501Y28625D01*
X940347Y28659D01*
X940228Y28710D01*
X940160Y28727D01*
X940006Y28795D01*
X939913Y28821D01*
X939836Y28863D01*
X939674Y28923D01*
X939580Y28966D01*
X939512Y28983D01*
X939478Y29017D01*
X939410Y29034D01*
X939299Y29076D01*
X939273Y29102D01*
X939137Y29153D01*
X939103Y29187D01*
X939035Y29204D01*
X938949Y29238D01*
X938915Y29272D01*
X938779Y29324D01*
X938745Y29358D01*
X938677Y29375D01*
X938591Y29426D01*
X938438Y29511D01*
X938353Y29545D01*
X938319Y29562D01*
X938268Y29613D01*
X938199Y29630D01*
X938148Y29682D01*
X938037Y29724D01*
X937995Y29767D01*
X937909Y29801D01*
X937858Y29852D01*
X937773Y29886D01*
X937722Y29937D01*
X937637Y29971D01*
X937586Y30023D01*
X937500Y30074D01*
X937381Y30142D01*
X937330Y30193D01*
X937279Y30210D01*
X937227Y30261D01*
X937142Y30312D01*
X937108Y30347D01*
X937023Y30398D01*
X936989Y30432D01*
X936904Y30483D01*
X936870Y30517D01*
X936835Y30534D01*
X936784Y30585D01*
X936699Y30636D01*
X936648Y30687D01*
X936614Y30705D01*
X936563Y30756D01*
X936528Y30773D01*
X936460Y30841D01*
X936426Y30858D01*
X936332Y30935D01*
X936273Y30977D01*
X936171Y31080D01*
X936136Y31097D01*
X936051Y31182D01*
X936017Y31199D01*
X935813Y31404D01*
X935778Y31421D01*
X935685Y31497D01*
X935207Y31975D01*
X935190Y32009D01*
X935122Y32077D01*
X935105Y32111D01*
X934951Y32265D01*
X934934Y32299D01*
X934798Y32435D01*
X934781Y32469D01*
X934696Y32554D01*
X934687Y32580D01*
X934662Y32589D01*
X934645Y32623D01*
X934576Y32691D01*
X934559Y32725D01*
X934483Y32819D01*
X934440Y32878D01*
X934389Y32929D01*
X934372Y32964D01*
X934321Y33015D01*
X934270Y33100D01*
X934235Y33134D01*
X934184Y33219D01*
X934133Y33270D01*
X934116Y33305D01*
X934065Y33356D01*
X934048Y33407D01*
X933997Y33458D01*
X933946Y33543D01*
X933912Y33577D01*
X933843Y33697D01*
X933758Y33816D01*
X933690Y33935D01*
X933656Y33969D01*
X933605Y34055D01*
X933519Y34208D01*
X933451Y34327D01*
X933417Y34362D01*
X933383Y34447D01*
X933315Y34549D01*
X933195Y34771D01*
X933110Y34924D01*
X933076Y35009D01*
X933025Y35095D01*
X932991Y35180D01*
X932940Y35265D01*
X932906Y35350D01*
X932838Y35504D01*
X932803Y35589D01*
X932752Y35708D01*
X932667Y35896D01*
X932650Y35964D01*
X932616Y35998D01*
X932582Y36118D01*
X932514Y36271D01*
X932488Y36365D01*
X932428Y36510D01*
X932411Y36578D01*
X932343Y36731D01*
X932318Y36859D01*
X932292Y36885D01*
X932258Y37004D01*
X932241Y37106D01*
X932190Y37226D01*
X932164Y37371D01*
X932121Y37464D01*
X932104Y37533D01*
X932079Y37695D01*
X932045Y37780D01*
X932019Y37874D01*
X931993Y38053D01*
X931959Y38138D01*
X931942Y38206D01*
X931925Y38359D01*
X931908Y38462D01*
X931866Y38607D01*
X931823Y38956D01*
X931806Y39024D01*
X931763Y39374D01*
X931746Y39613D01*
X931729Y39664D01*
X931712Y40039D01*
X931695Y40107D01*
X931687Y41087D01*
X931704Y41667D01*
X931721Y41940D01*
X931738Y42110D01*
X931755Y42178D01*
X931772Y42468D01*
X931806Y42690D01*
X931840Y42860D01*
X931857Y43031D01*
X931891Y43218D01*
X931917Y43312D01*
X931934Y43483D01*
X931951Y43551D01*
X931985Y43670D01*
X932019Y43807D01*
X932036Y43943D01*
X932087Y44062D01*
X932104Y44199D01*
X932172Y44369D01*
X932190Y44506D01*
X932241Y44625D01*
X932266Y44736D01*
X932300Y44821D01*
X932326Y44898D01*
X932343Y44966D01*
X932386Y45077D01*
X932411Y45153D01*
X932445Y45290D01*
X932479Y45324D01*
X932514Y45460D01*
X932582Y45614D01*
X932624Y45725D01*
X932667Y45818D01*
X932692Y45912D01*
X932735Y45955D01*
X932761Y46066D01*
X932820Y46176D01*
X932863Y46287D01*
X932889Y46313D01*
X932923Y46398D01*
X932991Y46551D01*
X933025Y46637D01*
X933059Y46671D01*
X933281Y47097D01*
X933366Y47250D01*
X933434Y47370D01*
X933468Y47404D01*
X933511Y47515D01*
X933553Y47557D01*
X933690Y47796D01*
X933724Y47830D01*
X933775Y47915D01*
X933860Y48035D01*
X933929Y48154D01*
X933963Y48188D01*
X934014Y48273D01*
X934048Y48307D01*
X934099Y48393D01*
X934133Y48427D01*
X934184Y48512D01*
X934218Y48546D01*
X934235Y48580D01*
X934287Y48631D01*
X934338Y48717D01*
X934389Y48768D01*
X934440Y48853D01*
X934474Y48887D01*
X934491Y48921D01*
X934628Y49058D01*
X934679Y49143D01*
X934713Y49177D01*
X934730Y49211D01*
X934866Y49348D01*
X934883Y49381D01*
X935037Y49535D01*
X935054Y49569D01*
X935429Y49944D01*
X935437Y49970D01*
X935471Y49987D01*
X935898Y50413D01*
X935932Y50430D01*
X936068Y50566D01*
X936102Y50584D01*
X936239Y50720D01*
X936273Y50737D01*
X936324Y50788D01*
X936358Y50805D01*
X936452Y50882D01*
X936477Y50907D01*
X936503Y50916D01*
X936520Y50950D01*
X936665Y51061D01*
X936699Y51078D01*
X936750Y51129D01*
X936835Y51180D01*
X936870Y51214D01*
X936904Y51231D01*
X936955Y51283D01*
X937040Y51334D01*
X937074Y51368D01*
X937159Y51419D01*
X937193Y51453D01*
X937279Y51504D01*
X937398Y51572D01*
X937449Y51624D01*
X937534Y51675D01*
X937722Y51794D01*
X937756Y51811D01*
X937790Y51845D01*
X938029Y51982D01*
X938063Y52016D01*
X938174Y52058D01*
X938216Y52101D01*
X938285Y52118D01*
X938387Y52186D01*
X938643Y52323D01*
X938677Y52357D01*
X938762Y52374D01*
X938813Y52425D01*
X938907Y52450D01*
X939018Y52510D01*
X939128Y52553D01*
X939154Y52578D01*
X939316Y52638D01*
X939342Y52663D01*
X939503Y52723D01*
X939529Y52749D01*
X939597Y52766D01*
X939682Y52800D01*
X939802Y52851D01*
X939887Y52868D01*
X939938Y52919D01*
X940066Y52945D01*
X940211Y53004D01*
X940279Y53021D01*
X940501Y53107D01*
X940603Y53124D01*
X940723Y53175D01*
X940816Y53200D01*
X940901Y53235D01*
X940970Y53252D01*
X941055Y53269D01*
X941123Y53286D01*
X941217Y53328D01*
X941379Y53354D01*
X941575Y53414D01*
X941737Y53439D01*
X941933Y53499D01*
X942138Y53516D01*
X942189Y53533D01*
X942393Y53584D01*
X942658Y53610D01*
X942726Y53627D01*
X942930Y53661D01*
X943237Y53678D01*
X943322Y53695D01*
X943493Y53712D01*
X943578Y53729D01*
X943672Y53738D01*
X943723Y53720D01*
X943791Y53738D01*
X943911Y53755D01*
X945377Y53738D01*
D02*
G37*
G36*
X998637Y23732D02*
X999336Y23715D01*
X999387Y23698D01*
X999558Y23681D01*
X999609Y23663D01*
X999780Y23646D01*
X1000027Y23604D01*
X1000112Y23587D01*
X1000180Y23570D01*
X1000265Y23553D01*
X1000427Y23527D01*
X1000513Y23493D01*
X1000581Y23476D01*
X1000692Y23450D01*
X1000803Y23408D01*
X1000871Y23391D01*
X1000982Y23365D01*
X1001007Y23340D01*
X1001092Y23305D01*
X1001195Y23288D01*
X1001229Y23254D01*
X1001348Y23220D01*
X1001536Y23135D01*
X1001689Y23067D01*
X1001774Y23016D01*
X1002081Y22845D01*
X1002200Y22777D01*
X1002235Y22743D01*
X1002286Y22726D01*
X1002405Y22641D01*
X1002439Y22624D01*
X1002490Y22572D01*
X1002576Y22521D01*
X1002610Y22487D01*
X1002644Y22470D01*
X1002678Y22436D01*
X1002712Y22419D01*
X1002806Y22342D01*
X1002865Y22299D01*
X1002934Y22231D01*
X1002968Y22214D01*
X1002985Y22180D01*
X1003019Y22163D01*
X1003044Y22138D01*
X1003061Y22104D01*
X1003155Y22044D01*
X1003419Y21780D01*
X1003437Y21745D01*
X1003479Y21686D01*
X1003513Y21669D01*
X1003539Y21643D01*
X1003556Y21609D01*
X1003607Y21558D01*
X1003624Y21524D01*
X1003675Y21490D01*
X1003692Y21456D01*
X1003760Y21387D01*
X1003812Y21302D01*
X1003897Y21183D01*
X1003931Y21149D01*
X1003982Y21063D01*
X1004050Y20944D01*
X1004084Y20910D01*
X1004221Y20671D01*
X1004306Y20518D01*
X1004340Y20484D01*
X1004357Y20399D01*
X1004408Y20347D01*
X1004434Y20254D01*
X1004528Y20041D01*
X1004545Y20006D01*
X1004579Y19921D01*
X1004621Y19810D01*
X1004647Y19785D01*
X1004664Y19717D01*
X1004690Y19623D01*
X1004732Y19529D01*
X1004749Y19461D01*
X1004775Y19367D01*
X1004817Y19273D01*
X1004843Y19129D01*
X1004860Y19060D01*
X1004894Y18975D01*
X1004911Y18873D01*
X1004928Y18787D01*
X1004979Y18583D01*
X1004996Y18481D01*
X1005014Y18327D01*
X1005031Y18259D01*
X1005056Y18165D01*
X1005073Y17944D01*
X1005090Y17824D01*
X1005107Y17551D01*
X1005141Y17432D01*
X1005158Y16699D01*
X1005141Y15727D01*
X1005107Y15642D01*
X1005082Y15309D01*
X1005065Y15122D01*
X1005048Y15054D01*
X1005031Y14951D01*
X1005014Y14866D01*
X1004996Y14764D01*
X1004979Y14611D01*
X1004945Y14525D01*
X1004928Y14440D01*
X1004894Y14236D01*
X1004860Y14150D01*
X1004835Y14056D01*
X1004817Y13937D01*
X1004749Y13784D01*
X1004732Y13681D01*
X1004664Y13528D01*
X1004647Y13443D01*
X1004579Y13289D01*
X1004562Y13221D01*
X1004528Y13187D01*
X1004485Y13076D01*
X1004408Y12897D01*
X1004391Y12863D01*
X1004357Y12829D01*
X1004340Y12761D01*
X1004289Y12675D01*
X1004221Y12556D01*
X1004136Y12403D01*
X1004101Y12369D01*
X1004067Y12283D01*
X1004016Y12232D01*
X1003965Y12147D01*
X1003880Y12028D01*
X1003718Y11815D01*
X1003650Y11712D01*
X1003539Y11601D01*
X1003522Y11567D01*
X1003351Y11397D01*
X1003334Y11363D01*
X1003172Y11201D01*
X1003138Y11184D01*
X1002968Y11013D01*
X1002934Y10996D01*
X1002814Y10877D01*
X1002729Y10826D01*
X1002695Y10792D01*
X1002661Y10775D01*
X1002610Y10723D01*
X1002524Y10672D01*
X1002490Y10638D01*
X1002405Y10587D01*
X1002371Y10553D01*
X1002320Y10536D01*
X1002269Y10485D01*
X1002183Y10451D01*
X1002132Y10400D01*
X1002064Y10382D01*
X1002030Y10348D01*
X1001996Y10331D01*
X1001877Y10263D01*
X1001621Y10144D01*
X1001433Y10058D01*
X1001280Y9990D01*
X1001212Y9973D01*
X1001058Y9905D01*
X1000922Y9871D01*
X1000803Y9820D01*
X1000649Y9786D01*
X1000564Y9752D01*
X1000496Y9735D01*
X1000351Y9709D01*
X1000283Y9692D01*
X1000206Y9666D01*
X999967Y9632D01*
X999865Y9615D01*
X999780Y9581D01*
X999405Y9564D01*
X999311Y9538D01*
X999234Y9530D01*
X999183Y9547D01*
X999063Y9513D01*
X997853Y9530D01*
X997802Y9547D01*
X997682Y9530D01*
X997597Y9564D01*
X997188Y9581D01*
X997103Y9615D01*
X996864Y9649D01*
X996668Y9692D01*
X996591Y9718D01*
X996523Y9735D01*
X996387Y9752D01*
X996267Y9803D01*
X996148Y9820D01*
X995995Y9888D01*
X995867Y9914D01*
X995756Y9973D01*
X995662Y9999D01*
X995483Y10076D01*
X995330Y10144D01*
X994938Y10348D01*
X994784Y10434D01*
X994750Y10468D01*
X994631Y10536D01*
X994418Y10681D01*
X994392Y10706D01*
X994358Y10723D01*
X994205Y10843D01*
X994111Y10920D01*
X994068Y10962D01*
X994034Y10979D01*
X993966Y11047D01*
X993932Y11064D01*
X993463Y11533D01*
X993446Y11567D01*
X993327Y11687D01*
X993309Y11721D01*
X993267Y11780D01*
X993241Y11789D01*
X993224Y11823D01*
X993199Y11866D01*
X993165Y11883D01*
X993105Y11976D01*
X993071Y12011D01*
X993020Y12096D01*
X992986Y12130D01*
X992917Y12249D01*
X992798Y12437D01*
X992781Y12471D01*
X992747Y12505D01*
X992704Y12616D01*
X992662Y12658D01*
X992645Y12727D01*
X992628Y12761D01*
X992576Y12846D01*
X992542Y12931D01*
X992508Y12965D01*
X992474Y13085D01*
X992457Y13119D01*
X992423Y13153D01*
X992406Y13221D01*
X992372Y13306D01*
X992321Y13426D01*
X992304Y13511D01*
X992270Y13545D01*
X992218Y13750D01*
X992167Y13869D01*
X992150Y13937D01*
X992133Y14039D01*
X992082Y14159D01*
X992056Y14304D01*
X992039Y14372D01*
X992014Y14449D01*
X991997Y14517D01*
X991980Y14721D01*
X991929Y14841D01*
X991911Y15114D01*
X991895Y15216D01*
X991877Y15267D01*
X991860Y15437D01*
X991843Y15489D01*
X991860Y15557D01*
X991843Y15608D01*
X991826Y15727D01*
X991843Y17705D01*
X991877Y17807D01*
Y17824D01*
X991903Y18037D01*
X991920Y18242D01*
X991946Y18404D01*
X991963Y18455D01*
X991980Y18523D01*
X991997Y18694D01*
X992022Y18805D01*
X992065Y18915D01*
X992091Y19094D01*
X992125Y19180D01*
X992150Y19273D01*
X992176Y19384D01*
X992210Y19469D01*
X992235Y19546D01*
X992261Y19640D01*
X992321Y19785D01*
X992346Y19879D01*
X992372Y19904D01*
X992406Y20024D01*
X992423Y20058D01*
X992474Y20143D01*
X992491Y20211D01*
X992508Y20245D01*
X992559Y20330D01*
X992594Y20416D01*
X992645Y20501D01*
X992849Y20859D01*
X992883Y20893D01*
X992917Y20978D01*
X992969Y21029D01*
X993020Y21115D01*
X993054Y21149D01*
X993105Y21234D01*
X993139Y21268D01*
X993190Y21353D01*
X993224Y21387D01*
X993241Y21421D01*
X993292Y21473D01*
X993309Y21507D01*
X993386Y21600D01*
X993463Y21677D01*
X993480Y21711D01*
X993565Y21797D01*
X993574Y21822D01*
X993608Y21839D01*
X993693Y21941D01*
X993932Y22180D01*
X993966Y22197D01*
X994153Y22385D01*
X994187Y22402D01*
X994256Y22470D01*
X994341Y22521D01*
X994375Y22555D01*
X994409Y22572D01*
X994477Y22641D01*
X994597Y22709D01*
X994690Y22785D01*
X994827Y22871D01*
X994955Y22930D01*
X994989Y22964D01*
X995100Y23007D01*
X995142Y23050D01*
X995236Y23075D01*
X995262Y23101D01*
X995296Y23118D01*
X995381Y23152D01*
X995432Y23169D01*
X995585Y23237D01*
X995637Y23254D01*
X995671Y23288D01*
X995850Y23331D01*
X995927Y23374D01*
X996105Y23416D01*
X996199Y23459D01*
X996344Y23484D01*
X996540Y23544D01*
X996736Y23570D01*
X996881Y23612D01*
X996949Y23629D01*
X997231Y23655D01*
X997333Y23672D01*
X997401Y23689D01*
X997555Y23706D01*
X997862Y23723D01*
X998279Y23732D01*
X998296Y23715D01*
X998347Y23732D01*
X998467Y23749D01*
X998637Y23732D01*
D02*
G37*
G36*
X1018337Y9743D02*
X1015584Y9735D01*
X1015558Y9760D01*
X1015541Y15744D01*
X1015473Y15761D01*
X1010154Y15744D01*
X1010103Y15693D01*
X1010086Y9760D01*
X1010060Y9735D01*
X1007366Y9752D01*
X1007341Y9777D01*
Y11738D01*
Y11755D01*
X1007358Y23467D01*
X1007383Y23493D01*
X1007451Y23510D01*
X1007545Y23502D01*
X1009890Y23510D01*
X1009941Y23493D01*
X1009992Y23510D01*
X1010060Y23493D01*
X1010103Y23450D01*
X1010120Y18114D01*
X1010145Y18089D01*
X1010265Y18071D01*
X1015533Y18089D01*
X1015558Y18114D01*
X1015575Y23484D01*
X1015601Y23510D01*
X1015729Y23502D01*
X1018329Y23510D01*
X1018337Y9743D01*
D02*
G37*
G36*
X991059Y23467D02*
X991042Y21200D01*
X990965Y21174D01*
X989891D01*
X987053Y21183D01*
X987001Y21149D01*
X986984Y21081D01*
X986993Y9786D01*
X986959Y9735D01*
X984231Y9752D01*
X984205Y9777D01*
X984188Y21149D01*
X984163Y21174D01*
X980139Y21191D01*
X980114Y21268D01*
X980131Y23467D01*
X980173Y23510D01*
X980301Y23502D01*
X990982Y23510D01*
X991059Y23467D01*
D02*
G37*
G36*
X959152Y23493D02*
X959203Y23476D01*
X960192Y23459D01*
X960243Y23442D01*
X960312Y23459D01*
X960456Y23433D01*
X960627Y23416D01*
X960721Y23391D01*
X961079Y23374D01*
X961130Y23357D01*
X961249Y23323D01*
X961318Y23305D01*
X961437Y23288D01*
X961556Y23237D01*
X961693Y23203D01*
X961778Y23152D01*
X961871Y23126D01*
X961982Y23067D01*
X962051Y23050D01*
X962085Y23016D01*
X962119Y22998D01*
X962357Y22862D01*
X962392Y22828D01*
X962511Y22760D01*
X962545Y22726D01*
X962579Y22709D01*
X962630Y22658D01*
X962664Y22641D01*
X962715Y22589D01*
X962750Y22572D01*
X963184Y22138D01*
X963201Y22104D01*
X963270Y22035D01*
X963287Y22001D01*
X963355Y21933D01*
X963372Y21899D01*
X963508Y21694D01*
X963525Y21660D01*
X963559Y21626D01*
X963645Y21473D01*
X963679Y21387D01*
X963696Y21353D01*
X963832Y21046D01*
X963875Y20936D01*
X963909Y20850D01*
X963926Y20748D01*
X963943Y20680D01*
X963986Y20569D01*
X964028Y20322D01*
X964054Y20245D01*
X964079Y20015D01*
X964105Y19512D01*
X964088Y18557D01*
X964071Y18506D01*
X964054Y18284D01*
X964020Y18199D01*
X963977Y17952D01*
X963943Y17867D01*
X963917Y17773D01*
X963900Y17654D01*
X963849Y17569D01*
X963815Y17432D01*
X963764Y17347D01*
X963721Y17236D01*
X963696Y17211D01*
X963662Y17125D01*
X963611Y17040D01*
X963542Y16921D01*
X963508Y16887D01*
X963491Y16818D01*
X963440Y16767D01*
X963389Y16682D01*
X963355Y16648D01*
X963304Y16563D01*
X963270Y16529D01*
X963218Y16443D01*
X963167Y16392D01*
X963150Y16358D01*
X963099Y16324D01*
X963082Y16290D01*
X963014Y16239D01*
X962997Y16205D01*
X962946Y16171D01*
X962929Y16136D01*
X962903Y16111D01*
X962869Y16094D01*
X962818Y16026D01*
X962784Y16008D01*
X962750Y15957D01*
X962715Y15940D01*
X962664Y15889D01*
X962579Y15838D01*
X962545Y15804D01*
X962460Y15753D01*
X962426Y15719D01*
X962068Y15514D01*
X962033Y15480D01*
X961965Y15463D01*
X961880Y15412D01*
X961795Y15378D01*
X961641Y15309D01*
X961531Y15267D01*
X961437Y15224D01*
X961292Y15199D01*
X961181Y15156D01*
X961113Y15139D01*
X960968Y15114D01*
X960866Y15096D01*
X960798Y15079D01*
X960695Y15062D01*
X960491Y15045D01*
X960337Y15028D01*
X960167Y15011D01*
X960090Y14986D01*
X959459Y14969D01*
X959016Y14951D01*
X958965Y14935D01*
X956399Y14926D01*
X956365Y14841D01*
X956373Y9786D01*
X956356Y9752D01*
X956288Y9735D01*
X953594Y9752D01*
X953569Y9811D01*
X953586Y9862D01*
Y22120D01*
Y22138D01*
X953603Y23467D01*
X953628Y23493D01*
X953697Y23510D01*
X953782Y23493D01*
X953833Y23510D01*
X959152Y23493D01*
D02*
G37*
G36*
X950713D02*
X950739Y23467D01*
X950722Y9743D01*
X948002Y9735D01*
X947977Y9760D01*
X947968Y9803D01*
X947977Y21149D01*
X947934Y21191D01*
X942581Y21174D01*
X942572Y16205D01*
Y16187D01*
X942555Y9760D01*
X942530Y9735D01*
X939802Y9752D01*
X939793Y23467D01*
X939836Y23510D01*
X939964Y23502D01*
X950560Y23510D01*
X950611Y23493D01*
X950662Y23510D01*
X950713Y23493D01*
D02*
G37*
G36*
X892679Y19930D02*
X893156Y19913D01*
X893207Y19896D01*
X893335Y19904D01*
X893429Y19879D01*
X893804Y19862D01*
X893855Y19844D01*
X893924Y19828D01*
X894128Y19793D01*
X894248Y19776D01*
X894333Y19742D01*
X894469Y19708D01*
X894571Y19691D01*
X894725Y19623D01*
X894810Y19606D01*
X894844Y19572D01*
X895006Y19512D01*
X895049Y19469D01*
X895143Y19444D01*
X895168Y19418D01*
X895202Y19401D01*
X895322Y19333D01*
X895441Y19248D01*
X895560Y19180D01*
X895611Y19129D01*
X895646Y19111D01*
X895714Y19043D01*
X895748Y19026D01*
X895927Y18847D01*
X895944Y18813D01*
X895995Y18762D01*
X896012Y18728D01*
X896063Y18677D01*
X896131Y18557D01*
X896165Y18523D01*
X896182Y18455D01*
X896217Y18421D01*
X896251Y18336D01*
X896268Y18268D01*
X896302Y18233D01*
X896319Y18165D01*
X896345Y18054D01*
X896379Y17969D01*
X896396Y17901D01*
X896413Y17765D01*
X896430Y17662D01*
X896447Y17594D01*
X896464Y17492D01*
X896481Y17407D01*
X896515Y16912D01*
X896532Y16520D01*
X896549Y16452D01*
X896558Y15574D01*
X896524Y15489D01*
X896507Y12795D01*
X896489Y12744D01*
X896524Y12607D01*
X896541Y11993D01*
X896558Y11942D01*
X896583Y11388D01*
X896617Y11201D01*
X896643Y11107D01*
X896668Y10928D01*
X896728Y10732D01*
X896754Y10621D01*
X896796Y10544D01*
X896813Y10476D01*
X896839Y10365D01*
X896864Y10340D01*
X896899Y10255D01*
X896924Y10161D01*
X896950Y10135D01*
X896984Y10016D01*
X897103Y9760D01*
X897078Y9735D01*
X894503Y9752D01*
X894478Y9777D01*
X894444Y9914D01*
X894375Y10067D01*
X894350Y10195D01*
X894316Y10280D01*
X894265Y10468D01*
X894230Y10553D01*
X894213Y10621D01*
X894188Y10766D01*
X894111Y10775D01*
X894077Y10740D01*
X894043Y10723D01*
X894017Y10698D01*
X894000Y10664D01*
X893898Y10596D01*
X893838Y10536D01*
X893804Y10519D01*
X893787Y10485D01*
X893753Y10468D01*
X893659Y10391D01*
X893600Y10348D01*
X893566Y10314D01*
X893480Y10263D01*
X893446Y10229D01*
X893361Y10178D01*
X893242Y10110D01*
X893207Y10076D01*
X893139Y10058D01*
X893037Y9990D01*
X892952Y9956D01*
X892867Y9905D01*
X892756Y9862D01*
X892730Y9837D01*
X892662Y9820D01*
X892551Y9777D01*
X892526Y9752D01*
X892347Y9709D01*
X892253Y9666D01*
X892133Y9649D01*
X892023Y9624D01*
X891912Y9581D01*
X891630Y9556D01*
X891545Y9538D01*
X891375Y9521D01*
X890735Y9513D01*
X890684Y9530D01*
X890497Y9547D01*
X890446Y9564D01*
X890156Y9581D01*
X890071Y9615D01*
X889934Y9649D01*
X889832Y9666D01*
X889713Y9718D01*
X889576Y9752D01*
X889423Y9820D01*
X889337Y9871D01*
X889252Y9905D01*
X889218Y9922D01*
X889184Y9956D01*
X889073Y9999D01*
X889014Y10058D01*
X888928Y10110D01*
X888809Y10195D01*
X888775Y10229D01*
X888741Y10246D01*
X888391Y10596D01*
X888374Y10630D01*
X888323Y10681D01*
X888306Y10715D01*
X888255Y10766D01*
X888187Y10885D01*
X888153Y10920D01*
X888136Y10988D01*
X888084Y11039D01*
X888059Y11133D01*
X888033Y11158D01*
X888016Y11192D01*
X887982Y11278D01*
X887914Y11431D01*
X887888Y11559D01*
X887846Y11653D01*
X887829Y11721D01*
X887803Y11934D01*
X887786Y12002D01*
X887760Y12079D01*
X887743Y12607D01*
X887760Y12778D01*
X887777Y12931D01*
X887812Y13017D01*
X887846Y13289D01*
X887897Y13409D01*
X887914Y13477D01*
X887982Y13630D01*
X887999Y13698D01*
X888016Y13733D01*
X888050Y13767D01*
X888093Y13877D01*
X888136Y13920D01*
X888170Y14005D01*
X888255Y14125D01*
X888272Y14159D01*
X888323Y14210D01*
X888340Y14244D01*
X888408Y14312D01*
X888425Y14346D01*
X888493Y14414D01*
X888511Y14449D01*
X888536Y14474D01*
X888570Y14491D01*
X888707Y14628D01*
X888741Y14645D01*
X888894Y14764D01*
X888928Y14798D01*
X888997Y14815D01*
X889048Y14866D01*
X889167Y14935D01*
X889252Y14969D01*
X889440Y15054D01*
X889593Y15122D01*
X889661Y15139D01*
X889815Y15207D01*
X889917Y15224D01*
X890036Y15275D01*
X890173Y15309D01*
X890292Y15361D01*
X890454Y15386D01*
X890650Y15446D01*
X890795Y15472D01*
X890863Y15489D01*
X891008Y15531D01*
X891179Y15548D01*
X891230Y15565D01*
X891349Y15599D01*
X891520Y15616D01*
X891588Y15633D01*
X891707Y15668D01*
X891775Y15685D01*
X891946Y15702D01*
X892014Y15719D01*
X892133Y15753D01*
X892202Y15770D01*
X892372Y15787D01*
X892423Y15804D01*
X892594Y15855D01*
X892756Y15881D01*
X892952Y15940D01*
X893088Y15957D01*
X893207Y16008D01*
X893276Y16026D01*
X893378Y16043D01*
X893497Y16094D01*
X893651Y16128D01*
X893770Y16179D01*
X893881Y16222D01*
X893949Y16290D01*
X893932Y16887D01*
X893898Y16972D01*
X893881Y17091D01*
X893838Y17202D01*
X893796Y17296D01*
X893745Y17381D01*
X893659Y17500D01*
X893514Y17645D01*
X893361Y17730D01*
X893310Y17747D01*
X893148Y17807D01*
X893054Y17833D01*
X892926Y17858D01*
X892739Y17892D01*
X892500Y17909D01*
X891895Y17918D01*
X891844Y17901D01*
X891673Y17884D01*
X891622Y17867D01*
X891486Y17833D01*
X891383Y17816D01*
X891349Y17782D01*
X891213Y17730D01*
X891179Y17696D01*
X891094Y17662D01*
X891000Y17586D01*
X890897Y17500D01*
X890846Y17449D01*
X890829Y17415D01*
X890761Y17347D01*
X890710Y17262D01*
X890676Y17227D01*
X890659Y17159D01*
X890608Y17108D01*
X890574Y17023D01*
X890522Y16938D01*
X890497Y16844D01*
X890454Y16767D01*
X890403Y16682D01*
X890360Y16673D01*
X890309Y16690D01*
X890139Y16708D01*
X890053Y16742D01*
X889815Y16776D01*
X889687Y16801D01*
X889585Y16818D01*
X889491Y16844D01*
X889201Y16878D01*
X889116Y16912D01*
X888920Y16938D01*
X888715Y16972D01*
X888621Y16997D01*
X888553Y17014D01*
X888349Y17032D01*
X888298Y17048D01*
X888178Y17083D01*
X888076Y17100D01*
X888033Y17142D01*
X888067Y17227D01*
X888093Y17355D01*
X888136Y17449D01*
X888170Y17569D01*
X888238Y17722D01*
X888272Y17807D01*
X888459Y18165D01*
X888545Y18319D01*
X888596Y18404D01*
X888630Y18438D01*
X888681Y18523D01*
X888715Y18557D01*
X888766Y18643D01*
X888886Y18762D01*
X888903Y18796D01*
X888971Y18864D01*
X888979Y18890D01*
X889014Y18907D01*
X889150Y19043D01*
X889184Y19060D01*
X889269Y19145D01*
X889303Y19163D01*
X889354Y19214D01*
X889440Y19265D01*
X889474Y19299D01*
X889525Y19316D01*
X889559Y19350D01*
X889713Y19435D01*
X889798Y19469D01*
X889832Y19487D01*
X889917Y19538D01*
X890011Y19563D01*
X890088Y19606D01*
X890156Y19623D01*
X890250Y19648D01*
X890343Y19691D01*
X890412Y19708D01*
X890514Y19725D01*
X890599Y19759D01*
X890667Y19776D01*
X890829Y19802D01*
X890915Y19819D01*
X891008Y19844D01*
X891349Y19879D01*
X891469Y19896D01*
X891520Y19913D01*
X891528Y19904D01*
X891622Y19896D01*
X891707Y19930D01*
X892628Y19947D01*
X892679Y19930D01*
D02*
G37*
G36*
X881265Y23723D02*
X881572Y23706D01*
X881725Y23689D01*
X881819Y23663D01*
X882032Y23638D01*
X882186Y23621D01*
X882390Y23570D01*
X882475Y23553D01*
X882578Y23536D01*
X882663Y23502D01*
X882731Y23484D01*
X882816Y23467D01*
X882885Y23450D01*
X883029Y23391D01*
X883132Y23374D01*
X883166Y23340D01*
X883251Y23305D01*
X883336Y23288D01*
X883421Y23237D01*
X883507Y23203D01*
X883541Y23169D01*
X883677Y23118D01*
X883711Y23084D01*
X883797Y23050D01*
X883831Y23033D01*
X883865Y22998D01*
X883950Y22947D01*
X884283Y22700D01*
X884325Y22658D01*
X884359Y22641D01*
X884777Y22223D01*
X884794Y22189D01*
X884862Y22120D01*
X884913Y22035D01*
X884947Y22001D01*
X884964Y21967D01*
X884990Y21925D01*
X885016Y21916D01*
X885084Y21797D01*
X885169Y21643D01*
X885203Y21558D01*
X885220Y21524D01*
X885254Y21490D01*
X885314Y21328D01*
X885357Y21251D01*
X885382Y21140D01*
X885416Y21055D01*
X885442Y20978D01*
X885467Y20816D01*
X885493Y20722D01*
X885518Y20595D01*
X885527Y19751D01*
X885510Y19700D01*
X885467Y19504D01*
X885450Y19435D01*
X885425Y19290D01*
X885374Y19171D01*
X885340Y19035D01*
X885305Y19001D01*
X885271Y18881D01*
X885254Y18847D01*
X885220Y18796D01*
X885212Y18787D01*
X885178Y18702D01*
X885152Y18677D01*
X885135Y18643D01*
X885067Y18523D01*
X885033Y18489D01*
X885016Y18438D01*
X884964Y18387D01*
X884913Y18302D01*
X884879Y18268D01*
X884862Y18233D01*
X884837Y18191D01*
X884811Y18182D01*
X884794Y18148D01*
X884717Y18054D01*
X884410Y17747D01*
X884376Y17730D01*
X884325Y17679D01*
X884291Y17662D01*
X884223Y17594D01*
X884189Y17577D01*
X884138Y17526D01*
X884103Y17509D01*
X883865Y17338D01*
X883831Y17321D01*
X883780Y17270D01*
X883694Y17236D01*
X883643Y17185D01*
X883575Y17168D01*
X883524Y17117D01*
X883413Y17074D01*
X883379Y16989D01*
X883396Y16955D01*
X883464Y16938D01*
X883600Y16887D01*
X883626Y16861D01*
X883763Y16827D01*
X883865Y16759D01*
X883967Y16742D01*
X884018Y16690D01*
X884112Y16665D01*
X884155Y16622D01*
X884308Y16537D01*
X884547Y16401D01*
X884598Y16350D01*
X884683Y16298D01*
X884879Y16154D01*
X884896Y16119D01*
X885050Y16000D01*
X885067Y15966D01*
X885135Y15915D01*
X885152Y15881D01*
X885220Y15829D01*
X885237Y15795D01*
X885288Y15744D01*
X885305Y15710D01*
X885374Y15642D01*
X885391Y15608D01*
X885442Y15557D01*
X885493Y15472D01*
X885527Y15437D01*
X885544Y15386D01*
X885612Y15284D01*
X885629Y15233D01*
X885680Y15182D01*
X885706Y15088D01*
X885783Y14909D01*
X885851Y14755D01*
X885868Y14653D01*
X885902Y14568D01*
X885936Y14432D01*
X885953Y14295D01*
X885970Y14244D01*
X885987Y14125D01*
X886004Y14056D01*
X886013Y13946D01*
X886004Y13869D01*
X886021Y13818D01*
X886013Y13212D01*
X886021Y13136D01*
X886004Y13085D01*
X885987Y12880D01*
X885970Y12829D01*
X885945Y12718D01*
X885911Y12514D01*
X885868Y12403D01*
X885851Y12283D01*
X885783Y12130D01*
X885766Y12062D01*
X885697Y11908D01*
X885561Y11653D01*
X885476Y11499D01*
X885408Y11380D01*
X885357Y11329D01*
X885340Y11294D01*
X885288Y11243D01*
X885237Y11158D01*
X885186Y11107D01*
X885169Y11073D01*
X885101Y11005D01*
X885084Y10971D01*
X885033Y10936D01*
X885016Y10902D01*
X884956Y10860D01*
X884922Y10809D01*
X884888Y10792D01*
X884862Y10766D01*
X884845Y10732D01*
X884785Y10689D01*
X884717Y10621D01*
X884683Y10604D01*
X884632Y10553D01*
X884598Y10536D01*
X884444Y10417D01*
X884257Y10297D01*
X884223Y10280D01*
X884189Y10246D01*
X884078Y10203D01*
X884035Y10161D01*
X883924Y10118D01*
X883882Y10076D01*
X883771Y10050D01*
X883660Y9990D01*
X883592Y9973D01*
X883439Y9905D01*
X883345Y9880D01*
X883251Y9837D01*
X883183Y9820D01*
X883055Y9794D01*
X882944Y9752D01*
X882876Y9735D01*
X882740Y9718D01*
X882620Y9666D01*
X882450Y9649D01*
X882330Y9632D01*
X882279Y9615D01*
X882143Y9598D01*
X882092Y9581D01*
X881768Y9564D01*
X881640Y9538D01*
X881563Y9530D01*
X881512Y9547D01*
X881444Y9530D01*
X881324Y9513D01*
X879841Y9530D01*
X879790Y9547D01*
X879620Y9564D01*
X879279Y9581D01*
X879193Y9615D01*
X878955Y9649D01*
X878793Y9675D01*
X878648Y9718D01*
X878580Y9735D01*
X878460Y9752D01*
X878375Y9786D01*
X878256Y9820D01*
X878145Y9845D01*
X878068Y9888D01*
X877957Y9914D01*
X877778Y9990D01*
X877727Y10007D01*
X877369Y10195D01*
X877216Y10280D01*
X877003Y10425D01*
X876977Y10451D01*
X876943Y10468D01*
X876849Y10544D01*
X876789Y10587D01*
X876525Y10851D01*
X876508Y10885D01*
X876389Y11005D01*
X876338Y11090D01*
X876304Y11124D01*
X876287Y11158D01*
X876201Y11278D01*
X876184Y11312D01*
X876133Y11363D01*
X876082Y11448D01*
X876014Y11567D01*
X875963Y11653D01*
X875929Y11738D01*
X875894Y11772D01*
X875860Y11857D01*
X875809Y11942D01*
X875784Y12036D01*
X875741Y12079D01*
X875707Y12198D01*
X875690Y12232D01*
X875639Y12352D01*
X875596Y12462D01*
X875571Y12488D01*
X875545Y12599D01*
X875511Y12684D01*
X875468Y12795D01*
X875451Y12863D01*
X875468Y12914D01*
X875647Y12991D01*
X875758Y13017D01*
X875852Y13059D01*
X875920Y13076D01*
X876014Y13102D01*
X876099Y13136D01*
X876287Y13187D01*
X876380Y13230D01*
X876491Y13255D01*
X876576Y13289D01*
X876653Y13315D01*
X876721Y13332D01*
X876841Y13383D01*
X876977Y13417D01*
X877096Y13468D01*
X877165Y13485D01*
X877258Y13511D01*
X877352Y13554D01*
X877420Y13571D01*
X877523Y13588D01*
X877642Y13639D01*
X877778Y13673D01*
X877932Y13741D01*
X877983Y13724D01*
X878008Y13647D01*
X878077Y13494D01*
X878102Y13400D01*
X878128Y13375D01*
X878162Y13255D01*
X878366Y12863D01*
X878435Y12744D01*
X878469Y12710D01*
X878537Y12590D01*
X878571Y12556D01*
X878588Y12522D01*
X878742Y12369D01*
X878750Y12343D01*
X878784Y12326D01*
X878852Y12258D01*
X878912Y12232D01*
X878921Y12207D01*
X878955Y12190D01*
X879074Y12121D01*
X879159Y12087D01*
X879193Y12070D01*
X879279Y12019D01*
X879372Y11993D01*
X879449Y11951D01*
X879517Y11934D01*
X879628Y11908D01*
X879713Y11874D01*
X879782Y11857D01*
X879935Y11840D01*
X880037Y11823D01*
X880106Y11806D01*
X880242Y11789D01*
X881069Y11780D01*
X881120Y11797D01*
X881273Y11815D01*
X881324Y11832D01*
X881614Y11866D01*
X881734Y11917D01*
X881913Y11959D01*
X881938Y11985D01*
X882058Y12019D01*
X882279Y12139D01*
X882313Y12172D01*
X882399Y12224D01*
X882433Y12258D01*
X882467Y12275D01*
X882535Y12343D01*
X882569Y12360D01*
X882612Y12420D01*
X882663Y12454D01*
X882680Y12488D01*
X882765Y12573D01*
X882782Y12607D01*
X882833Y12658D01*
X882885Y12744D01*
X882953Y12863D01*
X882987Y12897D01*
X883012Y13008D01*
X883072Y13119D01*
X883089Y13187D01*
X883115Y13315D01*
X883157Y13460D01*
X883140Y13920D01*
X883123Y13971D01*
X883106Y14073D01*
X883089Y14125D01*
X883072Y14193D01*
X883055Y14244D01*
X882987Y14397D01*
X882970Y14432D01*
X882936Y14466D01*
X882902Y14551D01*
X882850Y14602D01*
X882799Y14687D01*
X882731Y14755D01*
X882722Y14781D01*
X882688Y14798D01*
X882646Y14841D01*
X882637Y14866D01*
X882603Y14883D01*
X882578Y14909D01*
X882561Y14943D01*
X882467Y15003D01*
X882433Y15037D01*
X882347Y15088D01*
X882313Y15122D01*
X882092Y15224D01*
X881938Y15293D01*
X881870Y15309D01*
X881751Y15361D01*
X881683Y15378D01*
X881563Y15395D01*
X881478Y15429D01*
X881342Y15463D01*
X881052Y15480D01*
X881001Y15497D01*
X880932Y15514D01*
X880302Y15531D01*
X879824Y15548D01*
X879799Y15574D01*
X879816Y17569D01*
X879841Y17594D01*
X880574Y17611D01*
X880660Y17645D01*
X880975Y17671D01*
X881043Y17688D01*
X881154Y17730D01*
X881273Y17747D01*
X881444Y17816D01*
X881555Y17858D01*
X881580Y17884D01*
X881648Y17901D01*
X881734Y17952D01*
X881853Y18020D01*
X881887Y18054D01*
X881972Y18105D01*
X882007Y18140D01*
X882041Y18157D01*
X882109Y18225D01*
X882143Y18242D01*
X882271Y18370D01*
X882288Y18404D01*
X882339Y18455D01*
X882356Y18489D01*
X882407Y18540D01*
X882475Y18660D01*
X882561Y18813D01*
X882595Y18898D01*
X882612Y18966D01*
X882646Y19001D01*
X882663Y19120D01*
X882680Y19188D01*
X882697Y19290D01*
X882731Y19376D01*
X882748Y19700D01*
X882731Y19989D01*
X882680Y20109D01*
X882663Y20245D01*
X882595Y20399D01*
X882561Y20484D01*
X882526Y20518D01*
X882458Y20637D01*
X882373Y20757D01*
X882339Y20791D01*
X882322Y20825D01*
X882254Y20893D01*
X882237Y20927D01*
X882134Y21012D01*
X882075Y21055D01*
X882023Y21106D01*
X881938Y21157D01*
X881785Y21242D01*
X881700Y21277D01*
X881546Y21345D01*
X881393Y21379D01*
X881308Y21413D01*
X881188Y21430D01*
X881018Y21447D01*
X880864Y21464D01*
X880813Y21481D01*
X880353Y21464D01*
X880319Y21447D01*
X880267Y21464D01*
X880216Y21447D01*
X880097Y21430D01*
X879961Y21413D01*
X879875Y21379D01*
X879739Y21345D01*
X879585Y21277D01*
X879517Y21260D01*
X879466Y21208D01*
X879355Y21166D01*
X879296Y21106D01*
X879245Y21089D01*
X879193Y21038D01*
X879159Y21021D01*
X879091Y20953D01*
X879057Y20936D01*
X878929Y20808D01*
X878912Y20774D01*
X878835Y20680D01*
X878810Y20654D01*
X878793Y20620D01*
X878742Y20569D01*
X878673Y20450D01*
X878639Y20364D01*
X878622Y20330D01*
X878588Y20296D01*
X878546Y20185D01*
X878503Y20109D01*
X878486Y20041D01*
X878418Y19870D01*
X878401Y19802D01*
X878384Y19768D01*
X878324Y19759D01*
X878239Y19793D01*
X878068Y19810D01*
X877983Y19844D01*
X877889Y19870D01*
X877702Y19904D01*
X877633Y19921D01*
X877540Y19947D01*
X877471Y19964D01*
X877327Y19989D01*
X877182Y20032D01*
X877113Y20049D01*
X876977Y20066D01*
X876892Y20100D01*
X876824Y20117D01*
X876662Y20143D01*
X876466Y20203D01*
X876312Y20220D01*
X876227Y20254D01*
X876159Y20271D01*
X876039Y20288D01*
X875971Y20305D01*
X875852Y20339D01*
X875784Y20356D01*
X875698Y20390D01*
X875690Y20450D01*
X875724Y20535D01*
X875741Y20637D01*
X875775Y20671D01*
X875792Y20740D01*
X875818Y20850D01*
X875877Y20995D01*
X875903Y21089D01*
X875929Y21115D01*
X875963Y21200D01*
X875980Y21268D01*
X876014Y21302D01*
X876048Y21387D01*
X876167Y21609D01*
X876201Y21643D01*
X876218Y21711D01*
X876304Y21831D01*
X876321Y21865D01*
X876372Y21916D01*
X876389Y21967D01*
X876440Y22018D01*
X876457Y22052D01*
X876534Y22146D01*
X876619Y22248D01*
X876645Y22274D01*
X876662Y22308D01*
X876713Y22359D01*
X876721Y22385D01*
X876755Y22402D01*
X876781Y22427D01*
X876798Y22462D01*
X876824Y22487D01*
X876858Y22504D01*
X876909Y22555D01*
X876943Y22572D01*
X876969Y22598D01*
X876977Y22624D01*
X877011Y22641D01*
X877105Y22717D01*
X877131Y22743D01*
X877165Y22760D01*
X877216Y22811D01*
X877250Y22828D01*
X877301Y22879D01*
X877420Y22947D01*
X877608Y23067D01*
X877659Y23084D01*
X877744Y23135D01*
X877966Y23237D01*
X878000Y23254D01*
X878034Y23288D01*
X878145Y23314D01*
X878256Y23374D01*
X878366Y23399D01*
X878512Y23459D01*
X878631Y23476D01*
X878716Y23510D01*
X878835Y23544D01*
X878955Y23561D01*
X879125Y23612D01*
X879245Y23629D01*
X879458Y23655D01*
X879543Y23672D01*
X879637Y23698D01*
X880012Y23715D01*
X880131Y23732D01*
X880719Y23740D01*
X881265Y23723D01*
D02*
G37*
G36*
X899345Y19708D02*
X905755Y19691D01*
X905807Y19674D01*
X905875Y19657D01*
X906037Y19631D01*
X906241Y19614D01*
X906335Y19589D01*
X906471Y19555D01*
X906591Y19538D01*
X906676Y19504D01*
X906795Y19469D01*
X906864Y19452D01*
X907017Y19384D01*
X907085Y19367D01*
X907119Y19350D01*
X907443Y19180D01*
X907477Y19145D01*
X907563Y19094D01*
X907597Y19060D01*
X907682Y19009D01*
X907733Y18958D01*
X907767Y18941D01*
X907801Y18890D01*
X907835Y18873D01*
X907861Y18847D01*
X907878Y18813D01*
X907938Y18770D01*
X907980Y18711D01*
X908031Y18660D01*
X908083Y18574D01*
X908202Y18387D01*
X908219Y18353D01*
X908270Y18268D01*
X908287Y18165D01*
X908338Y18080D01*
X908355Y18012D01*
X908381Y17901D01*
X908424Y17790D01*
X908441Y17620D01*
X908458Y17483D01*
X908475Y17432D01*
X908458Y16750D01*
X908441Y16699D01*
X908424Y16511D01*
X908390Y16426D01*
X908355Y16307D01*
X908338Y16239D01*
X908270Y16085D01*
X908219Y16000D01*
X908185Y15915D01*
X908168Y15881D01*
X908117Y15829D01*
X908065Y15744D01*
X907980Y15625D01*
X907946Y15591D01*
X907929Y15557D01*
X907648Y15275D01*
X907622Y15267D01*
X907614Y15241D01*
X907580Y15224D01*
X907486Y15148D01*
X907401Y15114D01*
X907341Y15054D01*
X907273Y15037D01*
X907222Y14986D01*
X907128Y14960D01*
X907017Y14900D01*
X906915Y14883D01*
X906889Y14858D01*
X906906Y14824D01*
X906932Y14798D01*
X907102Y14730D01*
X907170Y14713D01*
X907264Y14687D01*
X907290Y14662D01*
X907409Y14628D01*
X907494Y14576D01*
X907733Y14440D01*
X907767Y14406D01*
X907852Y14355D01*
X907887Y14321D01*
X907921Y14304D01*
X907963Y14278D01*
X907972Y14253D01*
X908006Y14236D01*
X908048Y14193D01*
X908057Y14167D01*
X908091Y14150D01*
X908134Y14108D01*
X908142Y14082D01*
X908176Y14065D01*
X908219Y14022D01*
X908227Y13997D01*
X908253Y13988D01*
X908270Y13954D01*
X908347Y13860D01*
X908407Y13767D01*
X908492Y13647D01*
X908526Y13562D01*
X908543Y13528D01*
X908594Y13443D01*
X908637Y13332D01*
X908679Y13238D01*
X908705Y13127D01*
X908747Y13033D01*
X908765Y12914D01*
X908824Y12650D01*
X908833Y12062D01*
X908799Y11976D01*
X908765Y11738D01*
X908739Y11610D01*
X908696Y11516D01*
X908679Y11448D01*
X908645Y11363D01*
X908594Y11243D01*
X908577Y11192D01*
X908543Y11158D01*
X908475Y11039D01*
X908364Y10877D01*
X908321Y10817D01*
X908287Y10783D01*
X908270Y10749D01*
X907972Y10451D01*
X907938Y10434D01*
X907887Y10382D01*
X907852Y10365D01*
X907818Y10331D01*
X907699Y10263D01*
X907665Y10229D01*
X907307Y10058D01*
X907153Y9990D01*
X907085Y9973D01*
X906992Y9948D01*
X906898Y9905D01*
X906736Y9880D01*
X906668Y9862D01*
X906557Y9820D01*
X906267Y9803D01*
X906216Y9786D01*
X906071Y9760D01*
X905832Y9743D01*
X899788Y9735D01*
X899771D01*
X899192Y9752D01*
X899166Y9777D01*
X899183Y19683D01*
X899209Y19708D01*
X899294Y19725D01*
X899345Y19708D01*
D02*
G37*
G36*
X973124Y23706D02*
X973294Y23689D01*
X973388Y23663D01*
X973584Y23638D01*
X973755Y23621D01*
X973959Y23570D01*
X974044Y23553D01*
X974206Y23527D01*
X974292Y23493D01*
X974360Y23476D01*
X974513Y23442D01*
X974633Y23391D01*
X974735Y23374D01*
X974888Y23305D01*
X974982Y23280D01*
X975059Y23237D01*
X975127Y23220D01*
X975314Y23135D01*
X975366Y23118D01*
X975451Y23067D01*
X975536Y23033D01*
X975570Y22998D01*
X975681Y22956D01*
X975724Y22913D01*
X975835Y22871D01*
X975877Y22828D01*
X975962Y22794D01*
X976013Y22743D01*
X976099Y22709D01*
X976150Y22658D01*
X976235Y22606D01*
X976355Y22521D01*
X976389Y22487D01*
X976423Y22470D01*
X976474Y22419D01*
X976559Y22368D01*
X976610Y22317D01*
X976644Y22299D01*
X976695Y22248D01*
X976730Y22231D01*
X976815Y22146D01*
X976849Y22129D01*
X976866Y22095D01*
X976900Y22078D01*
X976943Y22035D01*
X976951Y22010D01*
X976985Y21993D01*
X977028Y21950D01*
X977037Y21925D01*
X977070Y21907D01*
X977096Y21882D01*
X977113Y21848D01*
X977173Y21805D01*
X977250Y21728D01*
X977267Y21694D01*
X977335Y21626D01*
X977352Y21592D01*
X977420Y21524D01*
X977437Y21490D01*
X977505Y21421D01*
X977522Y21387D01*
X977573Y21336D01*
X977625Y21251D01*
X977659Y21217D01*
X977710Y21132D01*
X977744Y21098D01*
X977795Y21012D01*
X977915Y20825D01*
X977966Y20740D01*
X978034Y20620D01*
X978324Y20024D01*
X978341Y19955D01*
X978409Y19802D01*
X978426Y19734D01*
X978460Y19700D01*
X978477Y19631D01*
X978494Y19529D01*
X978562Y19376D01*
X978588Y19248D01*
X978631Y19137D01*
X978648Y19069D01*
X978665Y18949D01*
X978699Y18864D01*
X978724Y18753D01*
X978758Y18549D01*
X978784Y18455D01*
X978801Y18387D01*
X978827Y18123D01*
X978844Y18020D01*
X978869Y17926D01*
X978886Y17603D01*
X978903Y17534D01*
X978920Y16904D01*
X978929Y16520D01*
X978912Y15923D01*
X978895Y15633D01*
X978878Y15395D01*
X978844Y15190D01*
X978801Y14841D01*
X978775Y14713D01*
X978750Y14636D01*
X978733Y14568D01*
X978707Y14372D01*
X978673Y14287D01*
X978656Y14218D01*
X978639Y14116D01*
X978622Y14048D01*
X978579Y13937D01*
X978554Y13826D01*
X978520Y13741D01*
X978494Y13664D01*
X978477Y13596D01*
X978392Y13375D01*
X978375Y13306D01*
X978341Y13272D01*
X978324Y13204D01*
X978238Y13017D01*
X978017Y12590D01*
X977932Y12437D01*
X977923Y12428D01*
X977863Y12335D01*
X977795Y12215D01*
X977761Y12181D01*
X977710Y12096D01*
X977676Y12062D01*
X977608Y11942D01*
X977573Y11908D01*
X977556Y11874D01*
X977505Y11823D01*
X977488Y11789D01*
X977420Y11721D01*
X977403Y11687D01*
X977335Y11618D01*
X977318Y11584D01*
X977250Y11516D01*
X977233Y11482D01*
X976866Y11115D01*
X976832Y11099D01*
X976712Y10979D01*
X976678Y10962D01*
X976585Y10885D01*
X976559Y10860D01*
X976525Y10843D01*
X976508Y10809D01*
X976423Y10757D01*
X976372Y10706D01*
X976320Y10689D01*
X976269Y10638D01*
X976235Y10621D01*
X976116Y10536D01*
X976082Y10519D01*
X976048Y10485D01*
X975826Y10365D01*
X975792Y10331D01*
X975707Y10297D01*
X975673Y10280D01*
X975638Y10246D01*
X975502Y10195D01*
X975468Y10161D01*
X975332Y10110D01*
X975212Y10058D01*
X975059Y9990D01*
X974991Y9973D01*
X974957Y9956D01*
X974837Y9905D01*
X974726Y9880D01*
X974581Y9820D01*
X974402Y9777D01*
X974292Y9735D01*
X974138Y9718D01*
X974019Y9666D01*
X973848Y9649D01*
X973669Y9607D01*
X973533Y9590D01*
X973465Y9573D01*
X973175Y9556D01*
X973090Y9538D01*
X973030Y9530D01*
X972996Y9547D01*
X972945Y9530D01*
X972774Y9513D01*
X971496Y9530D01*
X971444Y9547D01*
X971223Y9564D01*
X970993Y9590D01*
X970890Y9607D01*
X970754Y9641D01*
X970583Y9658D01*
X970498Y9675D01*
X970353Y9718D01*
X970285Y9735D01*
X970157Y9760D01*
X970046Y9803D01*
X969867Y9845D01*
X969757Y9888D01*
X969688Y9905D01*
X969535Y9973D01*
X969424Y9999D01*
X969399Y10024D01*
X969313Y10058D01*
X969245Y10076D01*
X969211Y10110D01*
X969049Y10169D01*
X969024Y10195D01*
X968938Y10229D01*
X968887Y10246D01*
X968836Y10297D01*
X968768Y10314D01*
X968665Y10382D01*
X968580Y10434D01*
X968461Y10502D01*
X968427Y10536D01*
X968342Y10587D01*
X968307Y10621D01*
X968222Y10655D01*
X968171Y10706D01*
X968137Y10723D01*
X968086Y10775D01*
X968052Y10792D01*
X967958Y10868D01*
X967898Y10911D01*
X967864Y10945D01*
X967830Y10962D01*
X967770Y11005D01*
X967753Y11039D01*
X967694Y11081D01*
X967643Y11133D01*
X967608Y11150D01*
X967574Y11201D01*
X967540Y11218D01*
X967498Y11278D01*
X967447Y11312D01*
X967430Y11346D01*
X967404Y11371D01*
X967370Y11388D01*
X967336Y11439D01*
X967302Y11457D01*
X967250Y11542D01*
X967216Y11559D01*
X967131Y11661D01*
X967105Y11687D01*
X967088Y11721D01*
X967037Y11772D01*
X967020Y11806D01*
X966969Y11857D01*
X966952Y11891D01*
X966875Y11985D01*
X966816Y12062D01*
X966748Y12181D01*
X966713Y12215D01*
X966662Y12300D01*
X966628Y12335D01*
X966611Y12403D01*
X966560Y12454D01*
X966492Y12573D01*
X966458Y12658D01*
X966406Y12744D01*
X966304Y12965D01*
X966134Y13340D01*
X966117Y13409D01*
X966066Y13528D01*
X966049Y13596D01*
X965997Y13715D01*
X965963Y13852D01*
X965912Y13971D01*
X965870Y14167D01*
X965810Y14363D01*
X965793Y14534D01*
X965776Y14585D01*
X965742Y14704D01*
X965725Y14772D01*
X965707Y14977D01*
X965691Y15028D01*
X965673Y15165D01*
X965656Y15216D01*
X965639Y15540D01*
X965622Y15727D01*
X965605Y15778D01*
X965614Y15872D01*
X965597Y16008D01*
X965588Y17091D01*
X965622Y17176D01*
X965605Y17296D01*
X965631Y17492D01*
X965648Y17867D01*
X965673Y17995D01*
X965656Y18029D01*
X965691Y18114D01*
X965707Y18182D01*
X965733Y18447D01*
X965750Y18532D01*
X965784Y18668D01*
X965801Y18753D01*
X965835Y18941D01*
X965878Y19052D01*
X965904Y19214D01*
X965938Y19299D01*
X965963Y19393D01*
X965980Y19461D01*
X966031Y19580D01*
X966049Y19648D01*
X966074Y19742D01*
X966117Y19819D01*
X966151Y19938D01*
X966168Y19972D01*
X966219Y20092D01*
X966509Y20654D01*
X966577Y20774D01*
X966611Y20808D01*
X966645Y20893D01*
X966696Y20944D01*
X966765Y21063D01*
X966935Y21302D01*
X967097Y21515D01*
X967123Y21541D01*
X967140Y21575D01*
X967276Y21711D01*
X967293Y21745D01*
X967881Y22334D01*
X967915Y22351D01*
X967983Y22419D01*
X968018Y22436D01*
X968069Y22487D01*
X968103Y22504D01*
X968154Y22555D01*
X968188Y22572D01*
X968222Y22606D01*
X968256Y22624D01*
X968290Y22658D01*
X968325Y22675D01*
X968359Y22709D01*
X968478Y22777D01*
X968512Y22811D01*
X968870Y23016D01*
X969126Y23135D01*
X969211Y23169D01*
X969330Y23220D01*
X969416Y23254D01*
X969535Y23305D01*
X969629Y23331D01*
X969723Y23374D01*
X969859Y23408D01*
X969970Y23450D01*
X970038Y23467D01*
X970140Y23484D01*
X970208Y23502D01*
X970319Y23544D01*
X970498Y23570D01*
X970703Y23621D01*
X970873Y23638D01*
X970976Y23655D01*
X971112Y23672D01*
X971206Y23698D01*
X971922Y23732D01*
X972305Y23740D01*
X973124Y23706D01*
D02*
G37*
G36*
X915473Y19930D02*
X915814Y19913D01*
X915865Y19896D01*
X916164Y19870D01*
X916317Y19853D01*
X916385Y19836D01*
X916479Y19810D01*
X916547Y19793D01*
X916709Y19768D01*
X916795Y19734D01*
X916863Y19717D01*
X916948Y19700D01*
X917033Y19665D01*
X917144Y19623D01*
X917229Y19606D01*
X917383Y19538D01*
X917468Y19504D01*
X917962Y19248D01*
X918082Y19180D01*
X918133Y19129D01*
X918218Y19077D01*
X918457Y18907D01*
X918491Y18873D01*
X918516Y18864D01*
X918533Y18830D01*
X918627Y18770D01*
X918696Y18702D01*
X918730Y18685D01*
X918798Y18617D01*
X918823Y18608D01*
X918840Y18574D01*
X918866Y18549D01*
X918892Y18540D01*
X918909Y18506D01*
X918951Y18464D01*
X918977Y18455D01*
X918994Y18421D01*
X919036Y18378D01*
X919062Y18370D01*
X919079Y18336D01*
X919156Y18242D01*
X919232Y18165D01*
X919275Y18089D01*
X919301Y18080D01*
X919318Y18046D01*
X919395Y17952D01*
X919437Y17892D01*
X919471Y17858D01*
X919522Y17773D01*
X919556Y17739D01*
X919608Y17654D01*
X919693Y17500D01*
X919761Y17381D01*
X919795Y17347D01*
X919821Y17253D01*
X919897Y17125D01*
X919914Y17057D01*
X919949Y17023D01*
Y17006D01*
X919957Y16997D01*
X919974Y16929D01*
X920008Y16844D01*
X920051Y16750D01*
X920068Y16682D01*
X920136Y16529D01*
X920153Y16392D01*
X920204Y16273D01*
X920221Y16205D01*
X920238Y16068D01*
X920273Y15983D01*
X920290Y15864D01*
X920307Y15795D01*
X920324Y15591D01*
X920341Y15540D01*
X920358Y15318D01*
X920375Y15250D01*
X920358Y14056D01*
X920341Y14005D01*
X920315Y13809D01*
X920290Y13579D01*
X920273Y13511D01*
X920238Y13391D01*
X920221Y13323D01*
X920204Y13204D01*
X920153Y13085D01*
X920136Y13017D01*
X920119Y12914D01*
X920051Y12761D01*
X920025Y12667D01*
X920000Y12641D01*
X919966Y12522D01*
X919761Y12130D01*
X919676Y11976D01*
X919608Y11857D01*
X919574Y11823D01*
X919556Y11755D01*
X919488Y11687D01*
X919437Y11601D01*
X919403Y11567D01*
X919352Y11482D01*
X919318Y11448D01*
X919301Y11414D01*
X919232Y11346D01*
X919215Y11312D01*
X919164Y11260D01*
X919147Y11226D01*
X918994Y11073D01*
X918977Y11039D01*
X918815Y10877D01*
X918781Y10860D01*
X918712Y10792D01*
X918678Y10775D01*
X918636Y10715D01*
X918576Y10672D01*
X918542Y10638D01*
X918508Y10621D01*
X918482Y10596D01*
X918474Y10570D01*
X918389Y10519D01*
X918354Y10485D01*
X918269Y10434D01*
X918218Y10382D01*
X918133Y10331D01*
X917945Y10212D01*
X917911Y10195D01*
X917826Y10144D01*
X917570Y10007D01*
X917485Y9973D01*
X917434Y9956D01*
X917400Y9922D01*
X917280Y9888D01*
X917127Y9820D01*
X917033Y9794D01*
X916939Y9752D01*
X916871Y9735D01*
X916752Y9718D01*
X916633Y9666D01*
X916513Y9649D01*
X916317Y9607D01*
X916223Y9581D01*
X915814Y9547D01*
X915763Y9530D01*
X915712Y9547D01*
X915593Y9513D01*
X914876Y9530D01*
X914825Y9547D01*
X914706Y9530D01*
X914655Y9547D01*
X914587Y9564D01*
X914297Y9581D01*
X914246Y9598D01*
X914118Y9624D01*
X914050Y9641D01*
X913845Y9675D01*
X913734Y9718D01*
X913555Y9760D01*
X913462Y9803D01*
X913308Y9837D01*
X913189Y9888D01*
X913120Y9905D01*
X912933Y9990D01*
X912779Y10058D01*
X912694Y10093D01*
X912660Y10127D01*
X912592Y10144D01*
X912558Y10161D01*
X912524Y10195D01*
X912268Y10331D01*
X912234Y10365D01*
X912149Y10400D01*
X912098Y10451D01*
X912064Y10468D01*
X911944Y10553D01*
X911910Y10570D01*
X911859Y10621D01*
X911825Y10638D01*
X911757Y10706D01*
X911722Y10723D01*
X911654Y10792D01*
X911620Y10809D01*
X911322Y11107D01*
X911305Y11141D01*
X911237Y11209D01*
X911220Y11243D01*
X911151Y11312D01*
X911134Y11346D01*
X911083Y11397D01*
X911066Y11431D01*
X910981Y11550D01*
X910964Y11584D01*
X910913Y11636D01*
X910879Y11721D01*
X910844Y11755D01*
X910759Y11908D01*
X910572Y12300D01*
X910555Y12369D01*
X910521Y12403D01*
X910487Y12522D01*
X910418Y12675D01*
X910384Y12829D01*
X910333Y12948D01*
X910316Y13085D01*
X910265Y13204D01*
X910248Y13323D01*
X910222Y13485D01*
X910197Y13579D01*
X910180Y13647D01*
X910163Y13920D01*
X910128Y14125D01*
X910137Y14167D01*
X910094Y14312D01*
X910111Y14380D01*
X910094Y15062D01*
X910111Y15130D01*
X910103Y15207D01*
X910137Y15514D01*
X910163Y15608D01*
X910180Y15881D01*
X910214Y15966D01*
X910231Y16034D01*
X910248Y16154D01*
X910333Y16426D01*
X910350Y16529D01*
X910401Y16614D01*
X910427Y16725D01*
X910487Y16835D01*
X910512Y16946D01*
X910572Y17057D01*
X910589Y17125D01*
X910657Y17227D01*
X910674Y17296D01*
X910742Y17398D01*
X910759Y17466D01*
X910810Y17517D01*
X910827Y17586D01*
X910913Y17705D01*
X910964Y17790D01*
X911032Y17909D01*
X911066Y17944D01*
X911083Y17978D01*
X911134Y18029D01*
X911186Y18114D01*
X911220Y18148D01*
X911262Y18225D01*
X911296Y18242D01*
X911339Y18302D01*
X911390Y18353D01*
X911407Y18387D01*
X911467Y18429D01*
X911501Y18481D01*
X911535Y18498D01*
X911561Y18523D01*
X911578Y18557D01*
X911637Y18600D01*
X911654Y18634D01*
X911688Y18651D01*
X911714Y18677D01*
X911731Y18711D01*
X911833Y18796D01*
X911893Y18839D01*
X911927Y18873D01*
X911961Y18890D01*
X912055Y18966D01*
X912115Y19009D01*
X912234Y19077D01*
X912285Y19129D01*
X912370Y19180D01*
X912490Y19248D01*
X912524Y19282D01*
X912618Y19308D01*
X912711Y19367D01*
X912822Y19410D01*
X912848Y19435D01*
X912984Y19487D01*
X913138Y19555D01*
X913248Y19597D01*
X913325Y19623D01*
X913487Y19683D01*
X913564Y19708D01*
X913692Y19734D01*
X913785Y19776D01*
X914050Y19819D01*
X914126Y19844D01*
X914195Y19862D01*
X914476Y19887D01*
X914629Y19904D01*
X914723Y19930D01*
X915422Y19947D01*
X915473Y19930D01*
D02*
G37*
G36*
X923640Y19708D02*
X931473Y19717D01*
X931525Y19683D01*
X931542Y11942D01*
X931567Y11917D01*
X932556Y11900D01*
X932582Y11874D01*
X932573Y7109D01*
X930451Y7118D01*
X930434Y9709D01*
X930408Y9735D01*
X927237D01*
X922924Y9718D01*
X922898Y9692D01*
X922889Y7109D01*
X920733Y7118D01*
X920741Y11729D01*
X920733Y11823D01*
X920775Y11900D01*
X920844Y11917D01*
X921850Y11934D01*
X921943Y12028D01*
X921960Y12062D01*
X922011Y12113D01*
X922063Y12198D01*
X922097Y12232D01*
X922233Y12471D01*
X922267Y12505D01*
X922301Y12590D01*
X922352Y12675D01*
X922523Y13033D01*
X922557Y13119D01*
X922591Y13153D01*
X922617Y13264D01*
X922642Y13323D01*
X922676Y13409D01*
X922693Y13477D01*
X922762Y13630D01*
X922779Y13733D01*
X922830Y13852D01*
X922847Y13920D01*
X922906Y14082D01*
X922924Y14150D01*
X922941Y14253D01*
X922958Y14321D01*
X923000Y14414D01*
X923034Y14636D01*
X923068Y14721D01*
X923085Y14841D01*
X923128Y15088D01*
X923145Y15173D01*
X923171Y15267D01*
X923188Y15574D01*
X923222Y15659D01*
X923248Y15889D01*
X923264Y16128D01*
X923282Y16332D01*
X923307Y16409D01*
X923333Y16759D01*
X923367Y17338D01*
X923392Y17432D01*
X923418Y18054D01*
X923435Y18515D01*
X923452Y19060D01*
X923469Y19129D01*
X923478Y19597D01*
X923461Y19648D01*
X923503Y19708D01*
X923588Y19725D01*
X923640Y19708D01*
D02*
G37*
%LPC*%
G36*
X998518Y21362D02*
X997904Y21345D01*
X997853Y21328D01*
X997734Y21294D01*
X997469Y21251D01*
X997384Y21217D01*
X997290Y21191D01*
X997188Y21174D01*
X997103Y21123D01*
X996966Y21089D01*
X996881Y21038D01*
X996770Y20995D01*
X996728Y20953D01*
X996634Y20927D01*
X996608Y20902D01*
X996574Y20884D01*
X996387Y20765D01*
X996353Y20748D01*
X996319Y20714D01*
X996284Y20697D01*
X996191Y20620D01*
X996088Y20535D01*
X996012Y20458D01*
X995978Y20441D01*
X995910Y20373D01*
X995875Y20356D01*
X995833Y20313D01*
X995816Y20279D01*
X995748Y20211D01*
X995730Y20177D01*
X995645Y20092D01*
X995628Y20058D01*
X995577Y20006D01*
X995560Y19972D01*
X995509Y19921D01*
X995458Y19836D01*
X995424Y19802D01*
X995287Y19563D01*
X995253Y19478D01*
X995236Y19444D01*
X995202Y19410D01*
X995168Y19325D01*
X995100Y19171D01*
X995057Y19060D01*
X995014Y18966D01*
X994997Y18864D01*
X994929Y18711D01*
X994912Y18574D01*
X994861Y18455D01*
X994844Y18336D01*
X994818Y18225D01*
X994784Y18089D01*
X994767Y17986D01*
X994750Y17816D01*
X994733Y17679D01*
X994707Y17586D01*
X994725Y17569D01*
X994707Y17517D01*
X994690Y17398D01*
X994673Y16665D01*
X994690Y15829D01*
X994707Y15778D01*
X994725Y15625D01*
X994742Y15574D01*
X994767Y15361D01*
X994784Y15207D01*
X994827Y15062D01*
X994844Y14943D01*
X994878Y14790D01*
X994912Y14704D01*
X994929Y14636D01*
X994955Y14508D01*
X994997Y14432D01*
X995023Y14321D01*
X995083Y14210D01*
X995108Y14116D01*
X995228Y13877D01*
X995287Y13750D01*
X995338Y13664D01*
X995355Y13630D01*
X995424Y13528D01*
X995441Y13494D01*
X995492Y13443D01*
X995543Y13357D01*
X995577Y13323D01*
X995628Y13238D01*
X995662Y13204D01*
X995679Y13170D01*
X995705Y13144D01*
X995730Y13136D01*
X995748Y13102D01*
X995824Y13008D01*
X996012Y12820D01*
X996046Y12803D01*
X996114Y12735D01*
X996140Y12727D01*
X996157Y12693D01*
X996259Y12607D01*
X996353Y12548D01*
X996387Y12514D01*
X996472Y12462D01*
X996506Y12428D01*
X996591Y12394D01*
X996643Y12343D01*
X996711Y12326D01*
X996813Y12258D01*
X996881Y12241D01*
X996915Y12207D01*
X997001Y12172D01*
X997069Y12155D01*
X997103Y12121D01*
X997239Y12087D01*
X997410Y12019D01*
X997555Y11993D01*
X997700Y11951D01*
X997819Y11934D01*
X998100Y11908D01*
X998177Y11883D01*
X998876Y11900D01*
X998927Y11917D01*
X999242Y11942D01*
X999328Y11959D01*
X999439Y12002D01*
X999601Y12028D01*
X999686Y12062D01*
X999762Y12087D01*
X999831Y12104D01*
X999865Y12121D01*
X1000044Y12198D01*
X1000052Y12207D01*
X1000086Y12224D01*
X1000376Y12377D01*
X1000410Y12411D01*
X1000530Y12479D01*
X1000649Y12565D01*
X1000743Y12624D01*
X1000751Y12650D01*
X1000785Y12667D01*
X1000845Y12710D01*
X1000854Y12735D01*
X1000888Y12752D01*
X1001254Y13119D01*
X1001271Y13153D01*
X1001322Y13204D01*
X1001339Y13238D01*
X1001408Y13306D01*
X1001425Y13340D01*
X1001493Y13443D01*
X1001510Y13477D01*
X1001561Y13528D01*
X1001681Y13750D01*
X1001817Y14039D01*
X1001885Y14193D01*
X1001902Y14261D01*
X1001970Y14414D01*
X1002004Y14568D01*
X1002056Y14687D01*
X1002073Y14824D01*
X1002107Y14909D01*
X1002132Y15020D01*
X1002149Y15156D01*
X1002166Y15241D01*
X1002183Y15309D01*
X1002209Y15403D01*
X1002235Y15736D01*
X1002252Y15940D01*
X1002277Y16017D01*
X1002294Y17006D01*
X1002277Y17057D01*
X1002269Y17100D01*
X1002277Y17313D01*
X1002260Y17364D01*
X1002243Y17432D01*
X1002217Y17833D01*
X1002183Y18037D01*
X1002158Y18131D01*
X1002141Y18250D01*
X1002115Y18412D01*
X1002073Y18523D01*
X1002056Y18643D01*
X1002030Y18736D01*
X1001987Y18830D01*
X1001962Y18941D01*
X1001902Y19086D01*
X1001877Y19180D01*
X1001834Y19222D01*
X1001800Y19359D01*
X1001766Y19393D01*
X1001732Y19478D01*
X1001612Y19700D01*
X1001578Y19734D01*
X1001527Y19819D01*
X1001493Y19853D01*
X1001476Y19921D01*
X1001408Y19989D01*
X1001391Y20024D01*
X1001322Y20092D01*
X1001305Y20126D01*
X1000871Y20561D01*
X1000837Y20578D01*
X1000785Y20629D01*
X1000751Y20646D01*
X1000700Y20697D01*
X1000666Y20714D01*
X1000615Y20765D01*
X1000376Y20902D01*
X1000342Y20936D01*
X1000274Y20953D01*
X1000172Y21021D01*
X1000078Y21046D01*
X1000052Y21072D01*
X999967Y21106D01*
X999865Y21123D01*
X999831Y21157D01*
X999745Y21191D01*
X999609Y21208D01*
X999490Y21260D01*
X999208Y21302D01*
X999115Y21328D01*
X999046Y21345D01*
X998518Y21362D01*
D02*
G37*
G36*
X956450Y21183D02*
X956390Y21157D01*
X956365Y21081D01*
X956382Y17296D01*
X956407Y17270D01*
X956476Y17253D01*
X958402Y17270D01*
X958453Y17287D01*
X958965Y17304D01*
X959016Y17321D01*
X959502Y17347D01*
X959570Y17364D01*
X959655Y17381D01*
X959723Y17398D01*
X959928Y17432D01*
X959988Y17458D01*
X960073Y17492D01*
X960141Y17509D01*
X960175Y17526D01*
X960209Y17560D01*
X960277Y17577D01*
X960312Y17594D01*
X960346Y17628D01*
X960465Y17696D01*
X960499Y17730D01*
X960584Y17782D01*
X960636Y17833D01*
X960670Y17850D01*
X960815Y17995D01*
X960832Y18029D01*
X960900Y18097D01*
X960951Y18182D01*
X960985Y18216D01*
X961002Y18268D01*
X961070Y18370D01*
X961087Y18438D01*
X961121Y18472D01*
X961155Y18608D01*
X961198Y18719D01*
X961215Y18787D01*
X961232Y18941D01*
X961241Y19546D01*
X961224Y19597D01*
X961207Y19751D01*
X961155Y19870D01*
X961121Y20006D01*
X961087Y20041D01*
X961036Y20177D01*
X960985Y20228D01*
X960934Y20313D01*
X960849Y20433D01*
X960584Y20697D01*
X960499Y20748D01*
X960465Y20782D01*
X960414Y20799D01*
X960363Y20850D01*
X960277Y20884D01*
X960192Y20936D01*
X960124Y20953D01*
X960047Y20995D01*
X960039Y21004D01*
X959971Y21021D01*
X959843Y21046D01*
X959732Y21089D01*
X959459Y21106D01*
X959340Y21123D01*
X959118Y21140D01*
X959067Y21157D01*
X957976Y21174D01*
X956450Y21183D01*
D02*
G37*
G36*
X893924Y14491D02*
X893753Y14474D01*
X893634Y14423D01*
X893566Y14406D01*
X893438Y14380D01*
X893242Y14321D01*
X893037Y14287D01*
X892952Y14253D01*
X892832Y14236D01*
X892679Y14201D01*
X892594Y14167D01*
X892329Y14125D01*
X892261Y14108D01*
X892185Y14082D01*
X892065Y14065D01*
X891963Y14048D01*
X891844Y13997D01*
X891707Y13980D01*
X891656Y13963D01*
X891588Y13929D01*
X891571D01*
X891520Y13911D01*
X891409Y13886D01*
X891264Y13826D01*
X891179Y13809D01*
X891076Y13741D01*
X891008Y13724D01*
X890974Y13690D01*
X890855Y13622D01*
X890804Y13571D01*
X890770Y13554D01*
X890676Y13460D01*
X890659Y13426D01*
X890591Y13357D01*
X890539Y13272D01*
X890437Y13051D01*
X890420Y12931D01*
X890386Y12795D01*
X890403Y12573D01*
X890420Y12522D01*
X890446Y12343D01*
X890471Y12283D01*
X890505Y12249D01*
X890522Y12147D01*
X890574Y12096D01*
X890642Y11976D01*
X890676Y11942D01*
X890693Y11908D01*
X890761Y11840D01*
X890778Y11806D01*
X890821Y11763D01*
X890855Y11746D01*
X890923Y11678D01*
X890957Y11661D01*
X891008Y11610D01*
X891094Y11559D01*
X891213Y11508D01*
X891247Y11491D01*
X891366Y11439D01*
X891486Y11422D01*
X891571Y11388D01*
X891793Y11371D01*
X892168Y11388D01*
X892219Y11405D01*
X892312Y11431D01*
X892415Y11448D01*
X892483Y11465D01*
X892577Y11508D01*
X892645Y11525D01*
X892832Y11610D01*
X892918Y11661D01*
X893037Y11729D01*
X893276Y11900D01*
X893310Y11934D01*
X893344Y11951D01*
X893557Y12164D01*
X893574Y12198D01*
X893625Y12249D01*
X893676Y12335D01*
X893813Y12624D01*
X893830Y12693D01*
X893864Y12778D01*
X893881Y12846D01*
X893906Y13110D01*
X893924Y13178D01*
X893941Y13400D01*
X893949Y14466D01*
X893924Y14491D01*
D02*
G37*
G36*
X901885Y18020D02*
X901826Y17978D01*
X901809Y17909D01*
X901826Y17790D01*
X901817Y15668D01*
X901834Y15599D01*
X901868Y15565D01*
X903897Y15582D01*
X903948Y15599D01*
X904485Y15625D01*
X904579Y15651D01*
X904690Y15676D01*
X904775Y15693D01*
X904877Y15710D01*
X904963Y15744D01*
X905039Y15770D01*
X905108Y15787D01*
X905329Y15906D01*
X905491Y16017D01*
X905525Y16051D01*
X905534Y16077D01*
X905568Y16094D01*
X905611Y16136D01*
X905619Y16162D01*
X905645Y16171D01*
X905662Y16205D01*
X905747Y16324D01*
X905764Y16409D01*
X905815Y16529D01*
X905832Y16648D01*
X905849Y16818D01*
X905832Y17159D01*
X905747Y17347D01*
X905696Y17432D01*
X905662Y17466D01*
X905645Y17500D01*
X905611Y17534D01*
X905602Y17560D01*
X905593Y17569D01*
X905568Y17594D01*
X905534Y17611D01*
X905466Y17679D01*
X905432Y17696D01*
X905397Y17730D01*
X905312Y17765D01*
X905159Y17833D01*
X905048Y17858D01*
X904954Y17901D01*
X904784Y17918D01*
X904647Y17952D01*
X904519Y17978D01*
X904281Y17995D01*
X903940Y18012D01*
X901885Y18020D01*
D02*
G37*
G36*
X902465Y13980D02*
X901851Y13963D01*
X901826Y13937D01*
X901817Y13792D01*
X901826Y11567D01*
X901809Y11516D01*
X901834Y11457D01*
X901902Y11439D01*
X904681Y11457D01*
X904733Y11474D01*
X904801Y11491D01*
X904929Y11516D01*
X905082Y11533D01*
X905167Y11550D01*
X905261Y11593D01*
X905372Y11618D01*
X905483Y11678D01*
X905568Y11712D01*
X905602Y11746D01*
X905721Y11815D01*
X905832Y11925D01*
X905849Y11959D01*
X905900Y12011D01*
X906003Y12232D01*
X906028Y12343D01*
X906071Y12488D01*
X906054Y12948D01*
X906020Y13033D01*
X905986Y13170D01*
X905883Y13340D01*
X905764Y13494D01*
X905704Y13536D01*
X905653Y13588D01*
X905576Y13630D01*
X905568Y13639D01*
X905346Y13741D01*
X905253Y13767D01*
X905142Y13809D01*
X905022Y13826D01*
X904860Y13852D01*
X904784Y13877D01*
X904664Y13894D01*
X904391Y13911D01*
X904221Y13929D01*
X904016Y13946D01*
X903965Y13963D01*
X902465Y13980D01*
D02*
G37*
G36*
X972484Y21362D02*
X971700Y21345D01*
X971615Y21311D01*
X971479Y21294D01*
X971427Y21277D01*
X971231Y21251D01*
X971138Y21208D01*
X971069Y21191D01*
X970976Y21166D01*
X970890Y21132D01*
X970814Y21106D01*
X970745Y21089D01*
X970694Y21038D01*
X970583Y21012D01*
X970456Y20936D01*
X970405Y20919D01*
X970353Y20867D01*
X970285Y20850D01*
X970234Y20799D01*
X970149Y20748D01*
X970029Y20663D01*
X969995Y20646D01*
X969961Y20612D01*
X969927Y20595D01*
X969859Y20526D01*
X969825Y20509D01*
X969799Y20484D01*
X969791Y20458D01*
X969757Y20441D01*
X969560Y20245D01*
X969552Y20220D01*
X969518Y20203D01*
X969475Y20160D01*
X969458Y20126D01*
X969407Y20075D01*
X969390Y20041D01*
X969322Y19972D01*
X969271Y19887D01*
X969237Y19853D01*
X969185Y19768D01*
X969117Y19648D01*
X969032Y19495D01*
X968998Y19461D01*
X968972Y19367D01*
X968947Y19342D01*
X968913Y19256D01*
X968870Y19145D01*
X968828Y19052D01*
X968802Y18958D01*
X968759Y18864D01*
X968734Y18753D01*
X968700Y18668D01*
X968674Y18574D01*
X968657Y18455D01*
X968589Y18233D01*
X968563Y18020D01*
X968546Y17918D01*
X968521Y17824D01*
X968486Y17381D01*
X968469Y17330D01*
X968486Y17262D01*
X968461Y17100D01*
X968452Y16171D01*
X968469Y16119D01*
X968486Y16000D01*
X968469Y15949D01*
X968495Y15838D01*
X968512Y15531D01*
X968538Y15369D01*
X968555Y15318D01*
X968589Y15079D01*
X968614Y14969D01*
X968657Y14858D01*
X968682Y14696D01*
X968717Y14611D01*
X968768Y14423D01*
X968828Y14278D01*
X968845Y14210D01*
X968913Y14056D01*
X968930Y14022D01*
X968981Y13937D01*
X969015Y13852D01*
X969049Y13818D01*
X969066Y13750D01*
X969117Y13664D01*
X969151Y13630D01*
X969168Y13562D01*
X969220Y13511D01*
X969271Y13426D01*
X969305Y13391D01*
X969356Y13306D01*
X969407Y13255D01*
X969424Y13221D01*
X969475Y13170D01*
X969492Y13136D01*
X969629Y12999D01*
X969646Y12965D01*
X969774Y12838D01*
X969808Y12820D01*
X969961Y12667D01*
X969995Y12650D01*
X970029Y12616D01*
X970063Y12599D01*
X970157Y12522D01*
X970251Y12462D01*
X970370Y12394D01*
X970405Y12360D01*
X970524Y12292D01*
X970609Y12258D01*
X970797Y12172D01*
X970950Y12104D01*
X970976Y12096D01*
X970984Y12087D01*
X971069Y12070D01*
X971189Y12019D01*
X971351Y11993D01*
X971436Y11959D01*
X971521Y11942D01*
X971692Y11925D01*
X971845Y11908D01*
X971930Y11891D01*
X972604Y11883D01*
X972655Y11900D01*
X972723Y11917D01*
X973021Y11942D01*
X973107Y11959D01*
X973252Y12002D01*
X973405Y12036D01*
X973524Y12087D01*
X973635Y12113D01*
X973746Y12172D01*
X973814Y12190D01*
X973916Y12258D01*
X973985Y12275D01*
X974087Y12343D01*
X974240Y12428D01*
X974360Y12514D01*
X974394Y12531D01*
X974445Y12582D01*
X974479Y12599D01*
X974530Y12650D01*
X974615Y12701D01*
X974735Y12820D01*
X974769Y12838D01*
X974965Y13033D01*
X974982Y13068D01*
X975050Y13136D01*
X975067Y13170D01*
X975118Y13221D01*
X975135Y13255D01*
X975212Y13349D01*
X975255Y13409D01*
X975289Y13443D01*
X975323Y13528D01*
X975374Y13579D01*
X975408Y13664D01*
X975442Y13698D01*
X975485Y13809D01*
X975528Y13852D01*
X975562Y13988D01*
X975613Y14039D01*
X975638Y14133D01*
X975664Y14193D01*
X975698Y14278D01*
X975715Y14346D01*
X975766Y14466D01*
X975817Y14670D01*
X975852Y14755D01*
X975869Y14824D01*
X975894Y14986D01*
X975911Y15054D01*
X975954Y15199D01*
X975971Y15454D01*
X975988Y15506D01*
X976022Y15744D01*
X976039Y16068D01*
X976056Y16443D01*
X976039Y17500D01*
X976022Y17551D01*
X975996Y17816D01*
X975971Y17892D01*
X975945Y18174D01*
X975928Y18242D01*
X975903Y18336D01*
X975869Y18472D01*
X975852Y18591D01*
X975800Y18711D01*
X975775Y18839D01*
X975741Y18924D01*
X975715Y19001D01*
X975690Y19094D01*
X975664Y19120D01*
X975630Y19205D01*
X975604Y19299D01*
X975562Y19342D01*
X975536Y19452D01*
X975477Y19512D01*
X975451Y19606D01*
X975408Y19648D01*
X975272Y19887D01*
X975221Y19938D01*
X975204Y19972D01*
X975084Y20126D01*
X974982Y20228D01*
X974965Y20262D01*
X974769Y20458D01*
X974735Y20475D01*
X974598Y20612D01*
X974564Y20629D01*
X974530Y20663D01*
X974496Y20680D01*
X974402Y20757D01*
X974130Y20927D01*
X974019Y20970D01*
X973985Y21004D01*
X973823Y21063D01*
X973797Y21089D01*
X973703Y21115D01*
X973618Y21149D01*
X973593Y21174D01*
X973473Y21191D01*
X973252Y21260D01*
X973132Y21277D01*
X973030Y21294D01*
X972945Y21328D01*
X972484Y21362D01*
D02*
G37*
G36*
X915388Y17782D02*
X915337Y17765D01*
X914740Y17747D01*
X914689Y17730D01*
X914578Y17688D01*
X914442Y17654D01*
X914382Y17628D01*
X914058Y17458D01*
X913939Y17390D01*
X913888Y17338D01*
X913854Y17321D01*
X913802Y17270D01*
X913768Y17253D01*
X913683Y17168D01*
X913649Y17151D01*
X913538Y17040D01*
X913521Y17006D01*
X913462Y16929D01*
X913436Y16921D01*
X913419Y16887D01*
X913351Y16818D01*
X913299Y16733D01*
X913231Y16614D01*
X913197Y16580D01*
X913155Y16469D01*
X913129Y16443D01*
X913095Y16324D01*
X913027Y16171D01*
X912984Y16060D01*
X912959Y15983D01*
X912942Y15915D01*
X912916Y15787D01*
X912890Y15693D01*
X912873Y15625D01*
X912856Y15506D01*
X912831Y15224D01*
X912805Y15130D01*
X912822Y14244D01*
X912839Y14193D01*
X912865Y13860D01*
X912882Y13792D01*
X912907Y13698D01*
X912924Y13630D01*
X912942Y13511D01*
X913010Y13340D01*
X913044Y13204D01*
X913078Y13170D01*
X913095Y13102D01*
X913231Y12846D01*
X913299Y12727D01*
X913462Y12514D01*
X913504Y12471D01*
X913521Y12437D01*
X913547Y12411D01*
X913572Y12403D01*
X913589Y12369D01*
X913632Y12326D01*
X913658Y12318D01*
X913675Y12283D01*
X913717Y12241D01*
X913751Y12224D01*
X913802Y12172D01*
X913837Y12155D01*
X913854Y12121D01*
X913888Y12104D01*
X913981Y12028D01*
X914067Y11993D01*
X914126Y11934D01*
X914220Y11908D01*
X914263Y11866D01*
X914357Y11840D01*
X914416Y11815D01*
X914501Y11780D01*
X914570Y11763D01*
X914680Y11738D01*
X914791Y11695D01*
X915090Y11670D01*
X915371Y11661D01*
X915422Y11678D01*
X915720Y11704D01*
X915917Y11763D01*
X916010Y11789D01*
X916104Y11832D01*
X916172Y11849D01*
X916257Y11900D01*
X916411Y11985D01*
X916573Y12096D01*
X916633Y12139D01*
X916667Y12172D01*
X916701Y12190D01*
X916726Y12215D01*
X916735Y12241D01*
X916769Y12258D01*
X916863Y12335D01*
X916931Y12403D01*
X916948Y12437D01*
X916991Y12497D01*
X917025Y12514D01*
X917110Y12616D01*
X917170Y12710D01*
X917238Y12829D01*
X917272Y12863D01*
X917315Y12974D01*
X917340Y12999D01*
X917400Y13161D01*
X917425Y13187D01*
X917442Y13255D01*
X917468Y13349D01*
X917511Y13426D01*
Y13443D01*
X917570Y13707D01*
X917596Y13801D01*
X917647Y14227D01*
X917664Y14278D01*
X917681Y14960D01*
X917664Y15011D01*
X917647Y15284D01*
X917630Y15335D01*
X917604Y15616D01*
X917587Y15719D01*
X917528Y15915D01*
X917511Y16017D01*
X917459Y16136D01*
X917442Y16205D01*
X917374Y16358D01*
X917332Y16469D01*
X917289Y16511D01*
X917272Y16580D01*
X917238Y16614D01*
X917221Y16648D01*
X917076Y16861D01*
X917050Y16887D01*
X917033Y16921D01*
X916982Y16972D01*
X916965Y17006D01*
X916939Y17032D01*
X916905Y17048D01*
X916863Y17108D01*
X916812Y17142D01*
X916795Y17176D01*
X916769Y17202D01*
X916735Y17219D01*
X916633Y17321D01*
X916599Y17338D01*
X916505Y17415D01*
X916411Y17475D01*
X916155Y17594D01*
X916002Y17662D01*
X915934Y17679D01*
X915823Y17722D01*
X915729Y17747D01*
X915396Y17773D01*
X915388Y17782D01*
D02*
G37*
G36*
X928857Y17560D02*
X925754Y17543D01*
X925711Y17500D01*
Y17313D01*
Y17296D01*
X925686Y16742D01*
X925651Y16298D01*
X925634Y16196D01*
X925617Y15855D01*
X925600Y15719D01*
X925609Y15676D01*
X925575Y15591D01*
X925558Y15437D01*
X925541Y15386D01*
X925524Y15079D01*
X925489Y14994D01*
X925472Y14841D01*
X925455Y14790D01*
X925438Y14585D01*
X925421Y14534D01*
X925387Y14397D01*
X925344Y14150D01*
X925302Y14039D01*
X925276Y13843D01*
X925242Y13758D01*
X925217Y13664D01*
X925200Y13562D01*
X925148Y13443D01*
X925131Y13375D01*
X925114Y13272D01*
X925063Y13187D01*
X925038Y13076D01*
X924961Y12897D01*
X924944Y12829D01*
X924808Y12539D01*
X924773Y12454D01*
X924722Y12403D01*
X924705Y12335D01*
X924637Y12232D01*
X924586Y12147D01*
X924526Y12036D01*
X924492Y12019D01*
X924466Y11959D01*
X924492Y11917D01*
X928831Y11908D01*
X928891Y11934D01*
X928916Y12028D01*
X928899Y12079D01*
X928882Y17534D01*
X928857Y17560D01*
D02*
G37*
%LPD*%
D10*
X1050000Y110000D02*
G03*
X1052000Y110000I1000J0D01*
G01*
D02*
G03*
X1050000Y110000I-1000J0D01*
G01*
X875000Y340000D02*
G03*
X875000Y340000I-110000J0D01*
G01*
X90000Y60000D02*
G03*
X90000Y60000I-30000J0D01*
G01*
Y520000D02*
G03*
X90000Y520000I-30000J0D01*
G01*
X1090000D02*
G03*
X1090000Y520000I-30000J0D01*
G01*
Y60000D02*
G03*
X1090000Y60000I-30000J0D01*
G01*
X212500Y320000D02*
Y357500D01*
X115000D02*
X212500D01*
X77500Y320000D02*
X115000Y357500D01*
X212500Y222500D02*
Y260000D01*
X115000Y222500D02*
X212500D01*
X77500Y260000D02*
X115000Y222500D01*
Y250000D02*
Y270000D01*
X105000Y260000D02*
X125000D01*
X185000D02*
X205000D01*
X933000Y115000D02*
Y123000D01*
X907000Y115000D02*
X933000D01*
X907000D02*
Y135000D01*
X933000D01*
Y123000D02*
Y135000D01*
X439500Y130000D02*
X454000Y115500D01*
X439500Y130000D02*
Y132000D01*
Y410500D01*
X454000Y115500D02*
X634500D01*
Y410500D01*
X439500D02*
X634500D01*
X375000Y14000D02*
X404000D01*
Y146000D01*
X276000Y14000D02*
X305000D01*
X276000D02*
Y146000D01*
X305000D01*
X375000D02*
X404000D01*
X789500Y38800D02*
X805000D01*
X786000Y39000D02*
Y141000D01*
X754000D02*
X786000D01*
X754000Y39000D02*
Y141000D01*
Y39000D02*
X786000D01*
X398000Y317000D02*
Y443000D01*
X368000Y317000D02*
X398000D01*
X368000Y443000D02*
X398000D01*
X268000D02*
X298000D01*
X268000Y317000D02*
Y443000D01*
Y317000D02*
X298000D01*
X265000Y260000D02*
Y280000D01*
Y215000D02*
Y230000D01*
X375000Y260000D02*
Y300000D01*
Y190000D02*
Y230000D01*
X285000Y190000D02*
X375000D01*
X285000Y300000D02*
X375000D01*
X265000Y280000D02*
X265000D01*
X285000Y300000D01*
X265000Y210000D02*
X265000D01*
X285000Y190000D01*
X265000Y210000D02*
Y215000D01*
X285000Y210000D02*
Y230000D01*
X275000Y220000D02*
X295000D01*
X345000D02*
X365000D01*
X270000Y545000D02*
X290000D01*
X340000D02*
X360000D01*
X350000Y535000D02*
Y555000D01*
X370000Y550000D02*
Y555000D01*
X350000Y575000D02*
X370000Y555000D01*
X370000D01*
X350000Y465000D02*
X370000Y485000D01*
X370000D01*
X260000Y465000D02*
X350000D01*
X260000Y575000D02*
X350000D01*
X260000Y535000D02*
Y575000D01*
Y465000D02*
Y505000D01*
X370000Y535000D02*
Y550000D01*
Y485000D02*
Y505000D01*
X952480Y402520D02*
X987520D01*
Y337480D02*
Y402520D01*
X952480Y337480D02*
X987520D01*
X952480D02*
Y402520D01*
X929750Y401150D02*
X944250D01*
X268020Y39100D02*
Y90900D01*
X231980Y39100D02*
Y90900D01*
X268020Y29020D02*
Y39100D01*
X231980Y29020D02*
X268020D01*
X231980D02*
Y39100D01*
Y23000D02*
Y29020D01*
Y23000D02*
X268020D01*
Y29020D01*
X231980Y90900D02*
Y102000D01*
X268020D01*
Y90900D02*
Y102000D01*
X253020Y394100D02*
Y445900D01*
X216980Y394100D02*
Y445900D01*
X253020Y384020D02*
Y394100D01*
X216980Y384020D02*
X253020D01*
X216980D02*
Y394100D01*
Y378000D02*
Y384020D01*
Y378000D02*
X253020D01*
Y384020D01*
X216980Y445900D02*
Y457000D01*
X253020D01*
Y445900D02*
Y457000D01*
X101000Y203330D02*
X215000D01*
X101000Y100330D02*
X215000D01*
Y203330D01*
X101000Y100330D02*
Y203330D01*
X227000Y358000D02*
X256000D01*
Y342000D02*
Y358000D01*
X227000Y342000D02*
X256000D01*
X222000D02*
X227000D01*
X224000D02*
Y358000D01*
X219000D02*
X227000D01*
X219000Y342000D02*
Y358000D01*
Y342000D02*
X222000D01*
X98000Y572330D02*
X212000D01*
X98000Y469330D02*
X212000D01*
Y572330D01*
X98000Y469330D02*
Y572330D01*
X107000Y21997D02*
Y15332D01*
X110332Y12000D01*
X113665Y15332D01*
Y21997D01*
X116997D02*
Y12000D01*
X121995D01*
X123661Y13666D01*
Y15332D01*
X121995Y16998D01*
X116997D01*
X121995D01*
X123661Y18664D01*
Y20331D01*
X121995Y21997D01*
X116997D01*
X126994Y12000D02*
Y18664D01*
X130326Y21997D01*
X133658Y18664D01*
Y12000D01*
Y16998D01*
X126994D01*
X136990Y21997D02*
X143655D01*
X140323D01*
Y12000D01*
X603665Y41997D02*
X601998Y43663D01*
X598666D01*
X597000Y41997D01*
Y35332D01*
X598666Y33666D01*
X601998D01*
X603665Y35332D01*
Y38665D01*
X600332D01*
X606997Y33666D02*
Y43663D01*
X611995D01*
X613661Y41997D01*
Y38665D01*
X611995Y36998D01*
X606997D01*
X623658Y41997D02*
X621992Y43663D01*
X618660D01*
X616994Y41997D01*
Y40331D01*
X618660Y38665D01*
X621992D01*
X623658Y36998D01*
Y35332D01*
X621992Y33666D01*
X618660D01*
X616994Y35332D01*
X626990Y32000D02*
X633655D01*
X636987Y43663D02*
Y36998D01*
X640319Y33666D01*
X643652Y36998D01*
Y43663D01*
X646984D02*
Y33666D01*
X651982D01*
X653648Y35332D01*
Y36998D01*
X651982Y38665D01*
X646984D01*
X651982D01*
X653648Y40331D01*
Y41997D01*
X651982Y43663D01*
X646984D01*
X656981Y33666D02*
Y40331D01*
X660313Y43663D01*
X663645Y40331D01*
Y33666D01*
Y38665D01*
X656981D01*
X666977Y43663D02*
X673642D01*
X670310D01*
Y33666D01*
X732000Y471997D02*
Y462000D01*
X736998D01*
X738664Y463666D01*
Y465332D01*
X736998Y466998D01*
X732000D01*
X736998D01*
X738664Y468665D01*
Y470331D01*
X736998Y471997D01*
X732000D01*
X741997Y462000D02*
Y468665D01*
X745329Y471997D01*
X748661Y468665D01*
Y462000D01*
Y466998D01*
X741997D01*
X751993Y471997D02*
X758658D01*
X755326D01*
Y462000D01*
X761990Y471997D02*
X768655D01*
X765323D01*
Y462000D01*
X778652Y471997D02*
X771987D01*
Y462000D01*
X778652D01*
X771987Y466998D02*
X775319D01*
X781984Y462000D02*
Y471997D01*
X786982D01*
X788648Y470331D01*
Y466998D01*
X786982Y465332D01*
X781984D01*
X785316D02*
X788648Y462000D01*
X791981Y471997D02*
Y470331D01*
X795313Y466998D01*
X798645Y470331D01*
Y471997D01*
X795313Y466998D02*
Y462000D01*
X938664Y91997D02*
X936998Y93663D01*
X933666D01*
X932000Y91997D01*
Y90331D01*
X933666Y88665D01*
X936998D01*
X938664Y86998D01*
Y85332D01*
X936998Y83666D01*
X933666D01*
X932000Y85332D01*
X941997Y93663D02*
X945329D01*
X943663D01*
Y83666D01*
X941997D01*
X945329D01*
X950327D02*
Y93663D01*
X953660Y90331D01*
X956992Y93663D01*
Y83666D01*
X960324D02*
X963656D01*
X961990D01*
Y93663D01*
X960324Y91997D01*
X968655Y82000D02*
X975319D01*
X978652Y93663D02*
Y86998D01*
X981984Y83666D01*
X985316Y86998D01*
Y93663D01*
X988648D02*
Y83666D01*
X993647D01*
X995313Y85332D01*
Y91997D01*
X993647Y93663D01*
X988648D01*
X998645D02*
Y83666D01*
X1003644D01*
X1005310Y85332D01*
Y91997D01*
X1003644Y93663D01*
X998645D01*
X701669Y40002D02*
Y49998D01*
X706668D01*
X708334Y48332D01*
Y45000D01*
X706668Y43334D01*
X701669D01*
X705002D02*
X708334Y40002D01*
X711666Y48332D02*
X713332Y49998D01*
X716665D01*
X718331Y48332D01*
Y46666D01*
X716665Y45000D01*
X714998D01*
X716665D01*
X718331Y43334D01*
Y41668D01*
X716665Y40002D01*
X713332D01*
X711666Y41668D01*
X456671Y79998D02*
X463335Y70002D01*
Y79998D02*
X456671Y70002D01*
X473332Y78332D02*
X471666Y79998D01*
X468334D01*
X466668Y78332D01*
Y76666D01*
X468334Y75000D01*
X471666D01*
X473332Y73334D01*
Y71668D01*
X471666Y70002D01*
X468334D01*
X466668Y71668D01*
X483329Y79998D02*
X479997Y78332D01*
X476665Y75000D01*
Y71668D01*
X478331Y70002D01*
X481663D01*
X483329Y71668D01*
Y73334D01*
X481663Y75000D01*
X476665D01*
X43337Y239998D02*
X50002Y230002D01*
Y239998D02*
X43337Y230002D01*
X59998Y238332D02*
X58332Y239998D01*
X55000D01*
X53334Y238332D01*
Y236666D01*
X55000Y235000D01*
X58332D01*
X59998Y233334D01*
Y231668D01*
X58332Y230002D01*
X55000D01*
X53334Y231668D01*
X63331Y230002D02*
X66663D01*
X64997D01*
Y239998D01*
X63331Y238332D01*
X843752Y493332D02*
X842085Y494998D01*
X838753D01*
X837087Y493332D01*
Y486668D01*
X838753Y485002D01*
X842085D01*
X843752Y486668D01*
Y490000D01*
X840419D01*
X847084Y494998D02*
Y485002D01*
X852082D01*
X853748Y486668D01*
Y488334D01*
X852082Y490000D01*
X847084D01*
X852082D01*
X853748Y491666D01*
Y493332D01*
X852082Y494998D01*
X847084D01*
X857081Y485002D02*
X860413D01*
X858747D01*
Y494998D01*
X857081Y493332D01*
X762669Y157998D02*
Y149668D01*
X764335Y148002D01*
X767668D01*
X769334Y149668D01*
Y157998D01*
X772666Y149668D02*
X774332Y148002D01*
X777664D01*
X779331Y149668D01*
Y156332D01*
X777664Y157998D01*
X774332D01*
X772666Y156332D01*
Y154666D01*
X774332Y153000D01*
X779331D01*
X263334Y298332D02*
X261668Y299998D01*
X258335D01*
X256669Y298332D01*
Y291668D01*
X258335Y290002D01*
X261668D01*
X263334Y291668D01*
X266666Y298332D02*
X268332Y299998D01*
X271665D01*
X273331Y298332D01*
Y296666D01*
X271665Y295000D01*
X273331Y293334D01*
Y291668D01*
X271665Y290002D01*
X268332D01*
X266666Y291668D01*
Y293334D01*
X268332Y295000D01*
X266666Y296666D01*
Y298332D01*
X268332Y295000D02*
X271665D01*
X938335Y458332D02*
X936669Y459998D01*
X933337D01*
X931671Y458332D01*
Y451668D01*
X933337Y450002D01*
X936669D01*
X938335Y451668D01*
X948332Y450002D02*
X941668D01*
X948332Y456666D01*
Y458332D01*
X946666Y459998D01*
X943334D01*
X941668Y458332D01*
X958329Y459998D02*
X954997Y458332D01*
X951665Y455000D01*
Y451668D01*
X953331Y450002D01*
X956663D01*
X958329Y451668D01*
Y453334D01*
X956663Y455000D01*
X951665D01*
X1061671Y474998D02*
X1068335Y465002D01*
Y474998D02*
X1061671Y465002D01*
X1078332Y473332D02*
X1076666Y474998D01*
X1073334D01*
X1071668Y473332D01*
Y471666D01*
X1073334Y470000D01*
X1076666D01*
X1078332Y468334D01*
Y466668D01*
X1076666Y465002D01*
X1073334D01*
X1071668Y466668D01*
X1088329Y474998D02*
X1081665D01*
Y470000D01*
X1084997Y471666D01*
X1086663D01*
X1088329Y470000D01*
Y466668D01*
X1086663Y465002D01*
X1083331D01*
X1081665Y466668D01*
X525504Y428498D02*
Y420168D01*
X527170Y418502D01*
X530502D01*
X532169Y420168D01*
Y428498D01*
X535501Y418502D02*
X538833D01*
X537167D01*
Y428498D01*
X535501Y426832D01*
X543831D02*
X545498Y428498D01*
X548830D01*
X550496Y426832D01*
Y425166D01*
X548830Y423500D01*
X547164D01*
X548830D01*
X550496Y421834D01*
Y420168D01*
X548830Y418502D01*
X545498D01*
X543831Y420168D01*
X131334Y377332D02*
X129668Y378998D01*
X126335D01*
X124669Y377332D01*
Y370668D01*
X126335Y369002D01*
X129668D01*
X131334Y370668D01*
X141331Y378998D02*
X134666D01*
Y374000D01*
X137998Y375666D01*
X139664D01*
X141331Y374000D01*
Y370668D01*
X139664Y369002D01*
X136332D01*
X134666Y370668D01*
X973335Y458332D02*
X971669Y459998D01*
X968337D01*
X966671Y458332D01*
Y451668D01*
X968337Y450002D01*
X971669D01*
X973335Y451668D01*
X983332Y450002D02*
X976668D01*
X983332Y456666D01*
Y458332D01*
X981666Y459998D01*
X978334D01*
X976668Y458332D01*
X986665D02*
X988331Y459998D01*
X991663D01*
X993329Y458332D01*
Y456666D01*
X991663Y455000D01*
X989997D01*
X991663D01*
X993329Y453334D01*
Y451668D01*
X991663Y450002D01*
X988331D01*
X986665Y451668D01*
X903335Y458332D02*
X901669Y459998D01*
X898337D01*
X896671Y458332D01*
Y451668D01*
X898337Y450002D01*
X901669D01*
X903335Y451668D01*
X913332Y450002D02*
X906668D01*
X913332Y456666D01*
Y458332D01*
X911666Y459998D01*
X908334D01*
X906668Y458332D01*
X923329Y450002D02*
X916665D01*
X923329Y456666D01*
Y458332D01*
X921663Y459998D01*
X918331D01*
X916665Y458332D01*
X415002Y400332D02*
X413335Y401998D01*
X410003D01*
X408337Y400332D01*
Y393668D01*
X410003Y392002D01*
X413335D01*
X415002Y393668D01*
X424998Y392002D02*
X418334D01*
X424998Y398666D01*
Y400332D01*
X423332Y401998D01*
X420000D01*
X418334Y400332D01*
X428331Y392002D02*
X431663D01*
X429997D01*
Y401998D01*
X428331Y400332D01*
X241669Y116998D02*
Y107002D01*
X246668D01*
X248334Y108668D01*
Y115332D01*
X246668Y116998D01*
X241669D01*
X256665Y107002D02*
Y116998D01*
X251666Y112000D01*
X258331D01*
X376669Y464998D02*
Y455002D01*
X383334D01*
X386666Y463332D02*
X388332Y464998D01*
X391665D01*
X393331Y463332D01*
Y461666D01*
X391665Y460000D01*
X389998D01*
X391665D01*
X393331Y458334D01*
Y456668D01*
X391665Y455002D01*
X388332D01*
X386666Y456668D01*
X402671Y291002D02*
Y300998D01*
X407669D01*
X409336Y299332D01*
Y296000D01*
X407669Y294334D01*
X402671D01*
X406003D02*
X409336Y291002D01*
X417666D02*
Y300998D01*
X412668Y296000D01*
X419332D01*
X429329Y300998D02*
X425997Y299332D01*
X422664Y296000D01*
Y292668D01*
X424331Y291002D01*
X427663D01*
X429329Y292668D01*
Y294334D01*
X427663Y296000D01*
X422664D01*
X404671Y321002D02*
Y330998D01*
X409669D01*
X411335Y329332D01*
Y326000D01*
X409669Y324334D01*
X404671D01*
X408003D02*
X411335Y321002D01*
X419666D02*
Y330998D01*
X414668Y326000D01*
X421332D01*
X431329Y330998D02*
X424664D01*
Y326000D01*
X427997Y327666D01*
X429663D01*
X431329Y326000D01*
Y322668D01*
X429663Y321002D01*
X426331D01*
X424664Y322668D01*
X906671Y149998D02*
X913335Y140002D01*
Y149998D02*
X906671Y140002D01*
X923332Y148332D02*
X921666Y149998D01*
X918334D01*
X916668Y148332D01*
Y146666D01*
X918334Y145000D01*
X921666D01*
X923332Y143334D01*
Y141668D01*
X921666Y140002D01*
X918334D01*
X916668Y141668D01*
X926665D02*
X928331Y140002D01*
X931663D01*
X933329Y141668D01*
Y148332D01*
X931663Y149998D01*
X928331D01*
X926665Y148332D01*
Y146666D01*
X928331Y145000D01*
X933329D01*
X383334Y548332D02*
X381668Y549998D01*
X378335D01*
X376669Y548332D01*
Y541668D01*
X378335Y540002D01*
X381668D01*
X383334Y541668D01*
X386666Y548332D02*
X388332Y549998D01*
X391665D01*
X393331Y548332D01*
Y546666D01*
X391665Y545000D01*
X389998D01*
X391665D01*
X393331Y543334D01*
Y541668D01*
X391665Y540002D01*
X388332D01*
X386666Y541668D01*
X226669Y469998D02*
Y460002D01*
X231668D01*
X233334Y461668D01*
Y468332D01*
X231668Y469998D01*
X226669D01*
X236666Y468332D02*
X238332Y469998D01*
X241665D01*
X243331Y468332D01*
Y466666D01*
X241665Y465000D01*
X239998D01*
X241665D01*
X243331Y463334D01*
Y461668D01*
X241665Y460002D01*
X238332D01*
X236666Y461668D01*
X999504Y410098D02*
Y401768D01*
X1001170Y400102D01*
X1004502D01*
X1006169Y401768D01*
Y410098D01*
X1009501Y400102D02*
X1012833D01*
X1011167D01*
Y410098D01*
X1009501Y408432D01*
X1024496Y410098D02*
X1017831D01*
Y405100D01*
X1021164Y406766D01*
X1022830D01*
X1024496Y405100D01*
Y401768D01*
X1022830Y400102D01*
X1019498D01*
X1017831Y401768D01*
X836671Y40002D02*
Y49998D01*
X841669D01*
X843335Y48332D01*
Y45000D01*
X841669Y43334D01*
X836671D01*
X840003D02*
X843335Y40002D01*
X846668Y48332D02*
X848334Y49998D01*
X851666D01*
X853332Y48332D01*
Y46666D01*
X851666Y45000D01*
X850000D01*
X851666D01*
X853332Y43334D01*
Y41668D01*
X851666Y40002D01*
X848334D01*
X846668Y41668D01*
X863329Y40002D02*
X856665D01*
X863329Y46666D01*
Y48332D01*
X861663Y49998D01*
X858331D01*
X856665Y48332D01*
X223335Y560002D02*
Y569998D01*
X228334D01*
X230000Y568332D01*
Y565000D01*
X228334Y563334D01*
X223335D01*
X226668D02*
X230000Y560002D01*
X233332D02*
X236665D01*
X234998D01*
Y569998D01*
X233332Y568332D01*
X149170Y219998D02*
Y211668D01*
X150836Y210002D01*
X154169D01*
X155835Y211668D01*
Y219998D01*
X159167Y210002D02*
X162499D01*
X160833D01*
Y219998D01*
X159167Y218332D01*
X167498Y210002D02*
X170830D01*
X169164D01*
Y219998D01*
X167498Y218332D01*
X231669Y369998D02*
Y361668D01*
X233335Y360002D01*
X236668D01*
X238334Y361668D01*
Y369998D01*
X241666D02*
X248331D01*
Y368332D01*
X241666Y361668D01*
Y360002D01*
X76669Y564998D02*
Y556668D01*
X78335Y555002D01*
X81668D01*
X83334Y556668D01*
Y564998D01*
X93331D02*
X86666D01*
Y560000D01*
X89998Y561666D01*
X91664D01*
X93331Y560000D01*
Y556668D01*
X91664Y555002D01*
X88332D01*
X86666Y556668D01*
X226671Y330002D02*
Y339998D01*
X231669D01*
X233335Y338332D01*
Y335000D01*
X231669Y333334D01*
X226671D01*
X230003D02*
X233335Y330002D01*
X241666D02*
Y339998D01*
X236668Y335000D01*
X243332D01*
X253329Y330002D02*
X246665D01*
X253329Y336666D01*
Y338332D01*
X251663Y339998D01*
X248331D01*
X246665Y338332D01*
X400671Y211002D02*
Y220998D01*
X405669D01*
X407336Y219332D01*
Y216000D01*
X405669Y214334D01*
X400671D01*
X404003D02*
X407336Y211002D01*
X417332D02*
X410668D01*
X417332Y217666D01*
Y219332D01*
X415666Y220998D01*
X412334D01*
X410668Y219332D01*
X420664D02*
X422331Y220998D01*
X425663D01*
X427329Y219332D01*
Y217666D01*
X425663Y216000D01*
X423997D01*
X425663D01*
X427329Y214334D01*
Y212668D01*
X425663Y211002D01*
X422331D01*
X420664Y212668D01*
X401671Y175002D02*
Y184998D01*
X406669D01*
X408335Y183332D01*
Y180000D01*
X406669Y178334D01*
X401671D01*
X405003D02*
X408335Y175002D01*
X418332D02*
X411668D01*
X418332Y181666D01*
Y183332D01*
X416666Y184998D01*
X413334D01*
X411668Y183332D01*
X428329Y175002D02*
X421665D01*
X428329Y181666D01*
Y183332D01*
X426663Y184998D01*
X423331D01*
X421665Y183332D01*
X698504Y71002D02*
Y80998D01*
X703503D01*
X705169Y79332D01*
Y76000D01*
X703503Y74334D01*
X698504D01*
X701836D02*
X705169Y71002D01*
X708501D02*
X711833D01*
X710167D01*
Y80998D01*
X708501Y79332D01*
X716832D02*
X718498Y80998D01*
X721830D01*
X723496Y79332D01*
Y77666D01*
X721830Y76000D01*
X723496Y74334D01*
Y72668D01*
X721830Y71002D01*
X718498D01*
X716832Y72668D01*
Y74334D01*
X718498Y76000D01*
X716832Y77666D01*
Y79332D01*
X718498Y76000D02*
X721830D01*
X217504Y510002D02*
Y519998D01*
X222502D01*
X224168Y518332D01*
Y515000D01*
X222502Y513334D01*
X217504D01*
X220836D02*
X224168Y510002D01*
X227501D02*
X230833D01*
X229167D01*
Y519998D01*
X227501Y518332D01*
X242496Y519998D02*
X235832D01*
Y515000D01*
X239164Y516666D01*
X240830D01*
X242496Y515000D01*
Y511668D01*
X240830Y510002D01*
X237498D01*
X235832Y511668D01*
X921669Y305002D02*
Y314998D01*
X926668D01*
X928334Y313332D01*
Y310000D01*
X926668Y308334D01*
X921669D01*
X925002D02*
X928334Y305002D01*
X931666Y306668D02*
X933332Y305002D01*
X936665D01*
X938331Y306668D01*
Y313332D01*
X936665Y314998D01*
X933332D01*
X931666Y313332D01*
Y311666D01*
X933332Y310000D01*
X938331D01*
X701669Y117002D02*
Y126998D01*
X706668D01*
X708334Y125332D01*
Y122000D01*
X706668Y120334D01*
X701669D01*
X705002D02*
X708334Y117002D01*
X718331D02*
X711666D01*
X718331Y123666D01*
Y125332D01*
X716665Y126998D01*
X713332D01*
X711666Y125332D01*
X330336Y161998D02*
Y152002D01*
X337000D01*
X340332D02*
X343665D01*
X341998D01*
Y161998D01*
X340332Y160332D01*
X975000Y304998D02*
X971668D01*
X973334D01*
Y296668D01*
X971668Y295002D01*
X970002D01*
X968335Y296668D01*
X978332Y295002D02*
X981665D01*
X979998D01*
Y304998D01*
X978332Y303332D01*
X836671Y119998D02*
X843335Y110002D01*
Y119998D02*
X836671Y110002D01*
X853332Y118332D02*
X851666Y119998D01*
X848334D01*
X846668Y118332D01*
Y116666D01*
X848334Y115000D01*
X851666D01*
X853332Y113334D01*
Y111668D01*
X851666Y110002D01*
X848334D01*
X846668Y111668D01*
X856665Y118332D02*
X858331Y119998D01*
X861663D01*
X863329Y118332D01*
Y116666D01*
X861663Y115000D01*
X863329Y113334D01*
Y111668D01*
X861663Y110002D01*
X858331D01*
X856665Y111668D01*
Y113334D01*
X858331Y115000D01*
X856665Y116666D01*
Y118332D01*
X858331Y115000D02*
X861663D01*
X41671Y454998D02*
X48335Y445002D01*
Y454998D02*
X41671Y445002D01*
X58332Y453332D02*
X56666Y454998D01*
X53334D01*
X51668Y453332D01*
Y451666D01*
X53334Y450000D01*
X56666D01*
X58332Y448334D01*
Y446668D01*
X56666Y445002D01*
X53334D01*
X51668Y446668D01*
X61665Y454998D02*
X68329D01*
Y453332D01*
X61665Y446668D01*
Y445002D01*
X924168Y283332D02*
X922502Y284998D01*
X919170D01*
X917504Y283332D01*
Y276668D01*
X919170Y275002D01*
X922502D01*
X924168Y276668D01*
X927501Y275002D02*
X930833D01*
X929167D01*
Y284998D01*
X927501Y283332D01*
X940830Y275002D02*
Y284998D01*
X935832Y280000D01*
X942496D01*
X899169Y405332D02*
X897502Y406998D01*
X894170D01*
X892504Y405332D01*
Y398668D01*
X894170Y397002D01*
X897502D01*
X899169Y398668D01*
X902501Y397002D02*
X905833D01*
X904167D01*
Y406998D01*
X902501Y405332D01*
X910832D02*
X912498Y406998D01*
X915830D01*
X917496Y405332D01*
Y398668D01*
X915830Y397002D01*
X912498D01*
X910832Y398668D01*
Y405332D01*
X288334Y184332D02*
X286668Y185998D01*
X283335D01*
X281669Y184332D01*
Y177668D01*
X283335Y176002D01*
X286668D01*
X288334Y177668D01*
X291666D02*
X293332Y176002D01*
X296665D01*
X298331Y177668D01*
Y184332D01*
X296665Y185998D01*
X293332D01*
X291666Y184332D01*
Y182666D01*
X293332Y181000D01*
X298331D01*
X908334Y323332D02*
X906668Y324998D01*
X903335D01*
X901669Y323332D01*
Y316668D01*
X903335Y315002D01*
X906668D01*
X908334Y316668D01*
X911666Y324998D02*
X918331D01*
Y323332D01*
X911666Y316668D01*
Y315002D01*
D11*
X442000Y115500D02*
D03*
D12*
X837300Y54600D02*
X862700D01*
Y105400D01*
X837300D02*
X862700D01*
X837300Y54600D02*
Y105400D01*
X7300Y74500D02*
X32700D01*
Y379300D01*
X7300D02*
X32700D01*
X7300Y74500D02*
Y379300D01*
Y176100D02*
X32700D01*
X7300Y277700D02*
X32700D01*
X7300Y328500D02*
X32700D01*
Y387300D02*
Y514300D01*
X7300Y387300D02*
X32700D01*
X7300D02*
Y514300D01*
X32700D01*
X934000Y415000D02*
Y447000D01*
X956000D01*
Y413500D02*
Y447000D01*
X934000Y413500D02*
Y415000D01*
Y413500D02*
X954500D01*
X956000D01*
X720000Y24000D02*
X722000D01*
Y36000D01*
X720000D02*
X722000D01*
X698000D02*
X700000D01*
X698000Y24000D02*
Y36000D01*
Y24000D02*
X700000D01*
Y36000D02*
X720000D01*
X700000Y24000D02*
X720000D01*
X700000Y99000D02*
X720000D01*
X700000Y111000D02*
X720000D01*
X698000Y99000D02*
X700000D01*
X698000D02*
Y111000D01*
X700000D01*
X720000D02*
X722000D01*
Y99000D02*
Y111000D01*
X720000Y99000D02*
X722000D01*
X250000Y314000D02*
X252000D01*
Y326000D01*
X250000D02*
X252000D01*
X228000D02*
X230000D01*
X228000Y314000D02*
Y326000D01*
Y314000D02*
X230000D01*
Y326000D02*
X250000D01*
X230000Y314000D02*
X250000D01*
X441900Y14598D02*
Y65398D01*
Y14598D02*
X518100D01*
Y65398D01*
X441900D02*
X518100D01*
X720000Y54000D02*
X722000D01*
Y66000D01*
X720000D02*
X722000D01*
X698000D02*
X700000D01*
X698000Y54000D02*
Y66000D01*
Y54000D02*
X700000D01*
Y66000D02*
X720000D01*
X700000Y54000D02*
X720000D01*
X828750Y440000D02*
Y480000D01*
Y440000D02*
X868750D01*
Y480000D01*
X828750D02*
X868750D01*
X916000Y252000D02*
Y268000D01*
X944000D01*
X916000Y252000D02*
X942000D01*
X944000D01*
Y268000D01*
X920000Y289000D02*
X940000D01*
X920000Y301000D02*
X940000D01*
X918000Y289000D02*
X920000D01*
X918000D02*
Y301000D01*
X920000D01*
X940000D02*
X942000D01*
Y289000D02*
Y301000D01*
X940000Y289000D02*
X942000D01*
X902000Y391000D02*
X918000D01*
Y363000D02*
Y391000D01*
X902000Y365000D02*
Y391000D01*
Y363000D02*
Y365000D01*
Y363000D02*
X918000D01*
X902000Y357000D02*
X918000D01*
Y329000D02*
Y357000D01*
X902000Y331000D02*
Y357000D01*
Y329000D02*
Y331000D01*
Y329000D02*
X918000D01*
X406000Y287000D02*
X426000D01*
X406000Y275000D02*
X426000D01*
Y287000D02*
X428000D01*
Y275000D02*
Y287000D01*
X426000Y275000D02*
X428000D01*
X404000D02*
X406000D01*
X404000D02*
Y287000D01*
X406000D01*
X407000Y318000D02*
X427000D01*
X407000Y306000D02*
X427000D01*
Y318000D02*
X429000D01*
Y306000D02*
Y318000D01*
X427000Y306000D02*
X429000D01*
X405000D02*
X407000D01*
X405000D02*
Y318000D01*
X407000D01*
X856000Y10000D02*
Y30000D01*
X844000Y10000D02*
Y30000D01*
X856000Y8000D02*
Y10000D01*
X844000Y8000D02*
X856000D01*
X844000D02*
Y10000D01*
Y30000D02*
Y32000D01*
X856000D01*
Y30000D02*
Y32000D01*
X405000Y206000D02*
X425000D01*
X405000Y194000D02*
X425000D01*
Y206000D02*
X427000D01*
Y194000D02*
Y206000D01*
X425000Y194000D02*
X427000D01*
X403000D02*
X405000D01*
X403000D02*
Y206000D01*
X405000D01*
Y171000D02*
X425000D01*
X405000Y159000D02*
X425000D01*
Y171000D02*
X427000D01*
Y159000D02*
Y171000D01*
X425000Y159000D02*
X427000D01*
X403000D02*
X405000D01*
X403000D02*
Y171000D01*
X405000D01*
X229000Y480000D02*
Y500000D01*
X241000Y480000D02*
Y500000D01*
X229000D02*
Y502000D01*
X241000D01*
Y500000D02*
Y502000D01*
Y478000D02*
Y480000D01*
X229000Y478000D02*
X241000D01*
X229000D02*
Y480000D01*
Y533000D02*
Y553000D01*
X241000Y533000D02*
Y553000D01*
X229000D02*
Y555000D01*
X241000D01*
Y553000D02*
Y555000D01*
Y531000D02*
Y533000D01*
X229000Y531000D02*
X241000D01*
X229000D02*
Y533000D01*
X972000Y444000D02*
X988000D01*
Y416000D02*
Y444000D01*
X972000Y418000D02*
Y444000D01*
Y416000D02*
Y418000D01*
Y416000D02*
X988000D01*
X902000Y444000D02*
X918000D01*
Y416000D02*
Y444000D01*
X902000Y418000D02*
Y444000D01*
Y416000D02*
Y418000D01*
Y416000D02*
X918000D01*
X412000Y361000D02*
X428000D01*
X412000D02*
Y389000D01*
X428000Y361000D02*
Y387000D01*
Y389000D01*
X412000D02*
X428000D01*
X304000Y157000D02*
Y173000D01*
X276000Y157000D02*
X304000D01*
X278000Y173000D02*
X304000D01*
X276000D02*
X278000D01*
X276000Y157000D02*
Y173000D01*
D13*
X1065000Y283200D02*
X1094250D01*
Y116450D02*
Y283200D01*
X955750Y116450D02*
X1094250D01*
X955750D02*
Y283200D01*
X1005000D01*
X1066600Y445400D02*
X1086600D01*
X1046600Y405400D02*
Y425400D01*
X1066600Y385400D02*
X1086600D01*
M02*
