G04*
G04 #@! TF.GenerationSoftware,Altium Limited,Altium Designer,22.8.2 (66)*
G04*
G04 Layer_Color=16711935*
%FSLAX44Y44*%
%MOMM*%
G71*
G04*
G04 #@! TF.SameCoordinates,4CF3C48C-3265-4FA0-8EEF-0F06EE1AF109*
G04*
G04*
G04 #@! TF.FilePolarity,Negative*
G04*
G01*
G75*
%ADD15R,0.7032X1.0032*%
%ADD21C,2.2032*%
%ADD30R,0.9832X1.1832*%
%ADD32R,1.1832X0.9832*%
%ADD33R,1.0032X0.7032*%
%ADD36R,2.9032X2.2532*%
%ADD39R,1.0032X1.0032*%
%ADD40C,1.8032*%
G04:AMPARAMS|DCode=41|XSize=1.8032mm|YSize=1.8032mm|CornerRadius=0.5016mm|HoleSize=0mm|Usage=FLASHONLY|Rotation=180.000|XOffset=0mm|YOffset=0mm|HoleType=Round|Shape=RoundedRectangle|*
%AMROUNDEDRECTD41*
21,1,1.8032,0.8000,0,0,180.0*
21,1,0.8000,1.8032,0,0,180.0*
1,1,1.0032,-0.4000,0.4000*
1,1,1.0032,0.4000,0.4000*
1,1,1.0032,0.4000,-0.4000*
1,1,1.0032,-0.4000,-0.4000*
%
%ADD41ROUNDEDRECTD41*%
%ADD42C,3.2032*%
G04:AMPARAMS|DCode=43|XSize=1.8032mm|YSize=1.8032mm|CornerRadius=0.5016mm|HoleSize=0mm|Usage=FLASHONLY|Rotation=90.000|XOffset=0mm|YOffset=0mm|HoleType=Round|Shape=RoundedRectangle|*
%AMROUNDEDRECTD43*
21,1,1.8032,0.8000,0,0,90.0*
21,1,0.8000,1.8032,0,0,90.0*
1,1,1.0032,0.4000,0.4000*
1,1,1.0032,0.4000,-0.4000*
1,1,1.0032,-0.4000,-0.4000*
1,1,1.0032,-0.4000,0.4000*
%
%ADD43ROUNDEDRECTD43*%
%ADD44C,1.0032*%
%ADD45C,2.4532*%
%ADD100R,1.7032X1.8032*%
G04:AMPARAMS|DCode=101|XSize=0.8032mm|YSize=1.2032mm|CornerRadius=0.1766mm|HoleSize=0mm|Usage=FLASHONLY|Rotation=0.000|XOffset=0mm|YOffset=0mm|HoleType=Round|Shape=RoundedRectangle|*
%AMROUNDEDRECTD101*
21,1,0.8032,0.8500,0,0,0.0*
21,1,0.4500,1.2032,0,0,0.0*
1,1,0.3532,0.2250,-0.4250*
1,1,0.3532,-0.2250,-0.4250*
1,1,0.3532,-0.2250,0.4250*
1,1,0.3532,0.2250,0.4250*
%
%ADD101ROUNDEDRECTD101*%
%ADD102R,1.7032X1.1032*%
%ADD103R,1.1032X1.7032*%
%ADD104R,0.5532X0.4232*%
%ADD105R,0.6032X0.4232*%
%ADD106R,1.1532X0.6532*%
%ADD107R,3.7032X4.5032*%
%ADD108R,1.9532X1.1532*%
%ADD109R,1.9532X3.4032*%
%ADD110R,1.7032X0.8032*%
%ADD111R,0.8032X1.7032*%
%ADD112R,2.4032X1.6032*%
%ADD113R,1.0032X0.6032*%
G04:AMPARAMS|DCode=114|XSize=0.8032mm|YSize=1.2032mm|CornerRadius=0.1766mm|HoleSize=0mm|Usage=FLASHONLY|Rotation=270.000|XOffset=0mm|YOffset=0mm|HoleType=Round|Shape=RoundedRectangle|*
%AMROUNDEDRECTD114*
21,1,0.8032,0.8500,0,0,270.0*
21,1,0.4500,1.2032,0,0,270.0*
1,1,0.3532,-0.4250,-0.2250*
1,1,0.3532,-0.4250,0.2250*
1,1,0.3532,0.4250,0.2250*
1,1,0.3532,0.4250,-0.2250*
%
%ADD114ROUNDEDRECTD114*%
D15*
X88000Y360000D02*
D03*
X102000D02*
D03*
X123522Y483569D02*
D03*
X109522D02*
D03*
X621000Y45000D02*
D03*
X635000D02*
D03*
X723000Y170000D02*
D03*
X737000D02*
D03*
X72000Y360000D02*
D03*
X58000D02*
D03*
X128000Y330000D02*
D03*
X142000D02*
D03*
D21*
X760000Y380000D02*
D03*
X720000D02*
D03*
X465000Y185000D02*
D03*
X495000D02*
D03*
X730000Y50000D02*
D03*
X770000Y95000D02*
D03*
D30*
X957000Y40000D02*
D03*
X943000D02*
D03*
X994000D02*
D03*
X980000D02*
D03*
X636000Y85000D02*
D03*
X650000D02*
D03*
X640000Y215000D02*
D03*
X626000D02*
D03*
X637000Y295000D02*
D03*
X623000D02*
D03*
D32*
X1015000Y63000D02*
D03*
Y77000D02*
D03*
X540000Y286000D02*
D03*
Y272000D02*
D03*
Y220000D02*
D03*
Y234000D02*
D03*
X475000Y286000D02*
D03*
Y272000D02*
D03*
X475000Y247000D02*
D03*
Y233000D02*
D03*
X975000Y227000D02*
D03*
Y213000D02*
D03*
X700000Y241000D02*
D03*
Y255000D02*
D03*
D33*
X115000Y452000D02*
D03*
Y438000D02*
D03*
X110000Y201000D02*
D03*
Y215000D02*
D03*
X275000Y421000D02*
D03*
Y435000D02*
D03*
Y362000D02*
D03*
Y348000D02*
D03*
Y392000D02*
D03*
Y378000D02*
D03*
Y312000D02*
D03*
Y298000D02*
D03*
Y282000D02*
D03*
Y268000D02*
D03*
Y232000D02*
D03*
Y218000D02*
D03*
Y202000D02*
D03*
Y188000D02*
D03*
X560000Y100000D02*
D03*
Y86000D02*
D03*
X455000Y148000D02*
D03*
Y162000D02*
D03*
X535000Y110000D02*
D03*
Y124000D02*
D03*
X945000Y77000D02*
D03*
Y63000D02*
D03*
X980000Y77000D02*
D03*
Y63000D02*
D03*
X275000Y469000D02*
D03*
Y455000D02*
D03*
X115000Y297000D02*
D03*
Y283000D02*
D03*
D36*
X375000Y90000D02*
D03*
Y47000D02*
D03*
X310000Y91500D02*
D03*
Y48500D02*
D03*
D39*
X593250Y45000D02*
D03*
X576750D02*
D03*
D40*
X850000Y92700D02*
D03*
X20000Y366600D02*
D03*
Y315800D02*
D03*
Y163400D02*
D03*
Y138000D02*
D03*
Y112600D02*
D03*
Y265000D02*
D03*
Y239600D02*
D03*
Y214200D02*
D03*
Y476200D02*
D03*
Y450800D02*
D03*
Y425400D02*
D03*
Y400000D02*
D03*
X454600Y52698D02*
D03*
X480000Y27298D02*
D03*
Y52698D02*
D03*
X505400Y27298D02*
D03*
Y52698D02*
D03*
D41*
X850000Y67300D02*
D03*
X20000Y341200D02*
D03*
Y290400D02*
D03*
Y87200D02*
D03*
Y188800D02*
D03*
Y501600D02*
D03*
D42*
X60000Y60000D02*
D03*
Y520000D02*
D03*
X1060000D02*
D03*
Y60000D02*
D03*
D43*
X454600Y27298D02*
D03*
D44*
X855000Y460000D02*
D03*
X842500D02*
D03*
D45*
X1051200Y390000D02*
D03*
Y440800D02*
D03*
X1102000Y390000D02*
D03*
Y440800D02*
D03*
X1076600Y415400D02*
D03*
D100*
X233500Y202300D02*
D03*
Y227700D02*
D03*
X136500D02*
D03*
Y202300D02*
D03*
X141500Y357300D02*
D03*
Y382700D02*
D03*
X238500D02*
D03*
Y357300D02*
D03*
Y437300D02*
D03*
Y462700D02*
D03*
X141500D02*
D03*
Y437300D02*
D03*
X138000Y279600D02*
D03*
Y305000D02*
D03*
X235000D02*
D03*
Y279600D02*
D03*
D101*
X515000Y138500D02*
D03*
X524500Y161500D02*
D03*
X505500D02*
D03*
X480000Y138500D02*
D03*
X489500Y161500D02*
D03*
X470500D02*
D03*
D102*
X879000Y415000D02*
D03*
Y402000D02*
D03*
Y389000D02*
D03*
Y376000D02*
D03*
Y363000D02*
D03*
Y350000D02*
D03*
Y428000D02*
D03*
X1011000Y402000D02*
D03*
Y415000D02*
D03*
Y428000D02*
D03*
D103*
X906000Y458000D02*
D03*
X919000D02*
D03*
X932000D02*
D03*
X945000D02*
D03*
X958000D02*
D03*
X971000D02*
D03*
X984000D02*
D03*
Y320000D02*
D03*
X971000D02*
D03*
X958000D02*
D03*
X945000D02*
D03*
X932000D02*
D03*
X919000D02*
D03*
X906000D02*
D03*
D104*
X511500Y274000D02*
D03*
Y279000D02*
D03*
X505000Y274000D02*
D03*
Y279000D02*
D03*
Y284000D02*
D03*
X511500Y224000D02*
D03*
Y229000D02*
D03*
X505000Y224000D02*
D03*
Y229000D02*
D03*
Y234000D02*
D03*
D105*
X511250Y284000D02*
D03*
Y234000D02*
D03*
D106*
X1054000Y209050D02*
D03*
Y196350D02*
D03*
Y183650D02*
D03*
Y170950D02*
D03*
X996000D02*
D03*
Y183650D02*
D03*
Y196350D02*
D03*
Y209050D02*
D03*
D107*
X1025000Y190000D02*
D03*
D108*
X300000Y435000D02*
D03*
Y458000D02*
D03*
Y481000D02*
D03*
X298500Y202000D02*
D03*
Y225000D02*
D03*
Y248000D02*
D03*
Y282000D02*
D03*
Y305000D02*
D03*
Y328000D02*
D03*
Y408000D02*
D03*
Y385000D02*
D03*
Y362000D02*
D03*
X53500Y433000D02*
D03*
Y410000D02*
D03*
Y387000D02*
D03*
D109*
X363000Y458000D02*
D03*
X361500Y225000D02*
D03*
Y305000D02*
D03*
Y385000D02*
D03*
X116500Y410000D02*
D03*
D110*
X587500Y178000D02*
D03*
Y170000D02*
D03*
Y162000D02*
D03*
Y154000D02*
D03*
Y146000D02*
D03*
Y138000D02*
D03*
Y130000D02*
D03*
Y122000D02*
D03*
X672500D02*
D03*
Y130000D02*
D03*
Y138000D02*
D03*
Y146000D02*
D03*
Y154000D02*
D03*
Y162000D02*
D03*
Y170000D02*
D03*
Y178000D02*
D03*
D111*
X602000Y107500D02*
D03*
X610000D02*
D03*
X618000D02*
D03*
X626000D02*
D03*
X634000D02*
D03*
X642000D02*
D03*
X650000D02*
D03*
X658000D02*
D03*
Y192500D02*
D03*
X650000D02*
D03*
X642000D02*
D03*
X634000D02*
D03*
X626000D02*
D03*
X618000D02*
D03*
X610000D02*
D03*
X602000D02*
D03*
D112*
X608000Y267500D02*
D03*
X672000D02*
D03*
Y242500D02*
D03*
X608000D02*
D03*
D113*
X1008000Y256500D02*
D03*
Y243500D02*
D03*
X1032000Y256500D02*
D03*
Y250000D02*
D03*
Y243500D02*
D03*
D114*
X91500Y474500D02*
D03*
Y455500D02*
D03*
X68500Y465000D02*
D03*
M02*
