M48
;Layer_Color=9474304
;FILE_FORMAT=4:4
METRIC,LZ
;TYPE=PLATED
T1F00S00C0.3000
T2F00S00C0.5000
T3F00S00C1.1000
T4F00S00C1.5000
;TYPE=NON_PLATED
T5F00S00C3.0000
%
T01
X00860919Y00012325
X00868419Y00027325
X00860919Y00042325
X0087Y00085
X00898419Y00087325
X00905919Y00132325
X00935919
X00950919
X00958419Y00117325
X00973419
X00985Y0011
X00980919Y00102325
X00965919
X00973419Y00087325
X00958419
X00935919Y00102325
X00943419Y00117325
Y00147325
X00935919Y00162325
X00925Y00165
X00928419Y00177325
X00943419
X00935919Y00192325
X00920919
X00928419Y00207325
X00943419
X00935919Y00222325
X00920919
X00928419Y00237325
X00925Y00245
X00943419Y00237325
X00950919Y00252325
X00965919
X00973419Y00237325
X00988419
X009965Y002565
X01003419Y00267325
X01015Y0027
X01025919Y00282325
X01033419Y00297325
X01018419
X01010919Y00312325
X01025919
X01040919
X01055919
X01070919
X01085919
X01100919
X01108419Y00297325
X01093419
X01078419
X01063419
X01048419
Y00267325
X01063419
X01070919Y00282325
X01085919
X01100919
X01108419Y00267325
X01100919Y00252325
X01085919
X01093419Y00237325
X01108419
X01100919Y00222325
X01085919
X01093419Y00207325
X01108419
X01100919Y00192325
X01085919
X01093419Y00177325
X01078419
X01085919Y00162325
X01100919
X01108419Y00177325
Y00147325
X01093419
X01078419
Y00117325
X01093419
X01108419
X01100919Y00132325
Y00102325
X01085919
X01070919
X01093419Y00087325
X01108419
X01100919Y00072325
X01108419Y00057325
X01078419Y00027325
X01070919Y00012325
X01055919
X01040919
X01025919
X01033419Y00027325
X01025919Y00042325
X00988419Y00027325
X00995Y00065
X01003419Y00087325
X00995919Y00102325
X01015Y00105
X01025Y00125
X0104Y00115
X0105Y0012
X0104Y0016
X01018419Y00147325
X0101Y0015
X00995Y0016
X00973419Y00147325
X00965Y0015
X00950919Y00162325
Y00192325
Y00222325
X00975Y002
X0098Y0019
X00973419Y00177325
X00995Y00125
X0101Y00225
X01025
X0104
X01055919Y00222325
X01065Y0023
X01018419Y00237325
X00988419Y00267325
X00973419
X00965919Y00282325
X00950919
X00935919
X00913419Y00267325
Y00297325
X00868419Y00267325
X0086Y00255
X00845919Y00252325
X00853419Y00237325
X00845919Y00222325
X00860919
X00855Y00195
X00845919Y00192325
X0087Y00195
X00885
X0089Y0021
X00905Y00165
X00877465Y0016
X00854697Y00149697
X00845Y00155
X00980919Y00282325
X00995919
Y00312325
X01003419Y00327325
X01018419
X01033419
X01048419
X01063419
X01078419
X01093419
X01108419
X01100919Y00342325
X01085919
X01070919
X01055919
X01040919
X01025919
X01010919
X00995919
X00980919
X00965919
X00973419Y00357325
X00988419
X00980919Y00372325
X00988419Y00387325
X00973419
X00950919Y00372325
X00943419Y00357325
X00928419
X01018419
X01033419
X01048419
X01063419
X01078419
X01093419
X01108419
X00838419Y00237325
X00823419
X00815919Y00222325
X00800919
X00785919
X00770919
X00755919
X00763419Y00207325
X00778419
X00793419
X00808419
X00823419
X00838419
X00830919Y00222325
Y00192325
X00815919
X00800919
X00785919
X00770919
X00755919
X00748419Y00207325
X00755Y00170464
X0073Y0015
X0071Y0016
Y001365
X0069Y00135683
X007Y00125
X00681154Y00110346
X0068Y001
X00680657Y00085657
X00675Y00075
X00695Y0006
X00715Y00085
X00725
X00735Y00025
X0076
X00755919Y00042325
X0079Y00025
X00805
X00815Y00045
Y0007
Y001
Y00115
X00838419Y00117325
X00835Y00125
Y001385
X0083Y0016
X00835Y001
X0078Y00115
X00645Y00125
X0065092Y00132325
X0065Y0015
Y0017
X0064342Y00177325
X0065842
X0067342Y00207325
X0069Y0021
X0069592Y00192325
X00605Y00165
Y0015
X0057Y0018
X00555Y0019
X00535Y0018
X0052342Y00147325
X0049342
X00485Y0011
X00505
X00519596Y0008
X00525Y0007
Y00045
X00555
X0056Y0003
X0058
X0061342Y00027325
X0062842
X00635Y0006
X0063Y0007
X00615
X00585Y00085
X00575Y0009
X00558709Y00075
X00565Y00062
X00544199Y00087898
X00485Y0008
X0045Y0007
X0046Y0011
X0050092Y00252325
X00525Y0025
X0052342Y00267325
Y00297325
X0050842
X0050092Y00312325
X0051592
X0053092
X0054592
X0056092
X0057592
X0056842Y00327325
X0055342
X0053842
X0052342
X0050842
X0051592Y00342325
X0053092
X0054592
X0056092
X00605Y0034
X0059842Y00327325
X0061342
X006385Y00325
X0064Y00345
X0065092Y00282325
X0057Y00275
X0057592Y00252325
X0056842Y00237325
X0056092Y00222325
X0057592
X0060592
X0054592Y00252325
X0055342Y00297325
X0053842
X0047Y003
X0046342Y003535
X0066Y004
X0065Y0006
X0069Y0002
X00835Y0001
X0042592Y00012325
X0041Y0003
X0037342Y00027325
X0036592Y00072325
X0038092
X0039592
X00425Y00075
Y00085
X0043342Y00087325
X0042592Y00102325
X00425Y00115
X0044092Y00102325
X0042655Y0006155
X0038Y0009
X0037342Y00117325
X0038092Y00132325
X0034Y00125
X0035092Y00102325
Y00072325
X0032092
X0030592
X0029092
X0028Y0006
X0026842Y00057325
X0027Y000215
X0023842Y00027325
X0023092Y00072325
X00195Y0009
X0017842Y00087325
X0014842
X0013342
X0013Y00125
X00115
Y0014
Y00155
Y0017
X0013
X00145
X0016
X00175
Y00155
X0016
X00145
X0013
Y0014
X00145
Y00125
X00175
Y0014
X0019
Y00155
Y0017
X00205
Y00155
Y0014
Y00125
X0019
X0022342Y00147325
X0023092Y00162325
X0024592
X0023842Y00177325
X0022342
X00205Y00185
X0019
X00175
X0016
X00145
X0013
X00115
X0008842Y00177325
X0008092Y00162325
X0008842Y00147325
X0008092Y00192325
X0008842Y00207325
X0008092Y00222325
X0009592
Y00252325
X0011092
X0012592
X0014092
X0015592
Y00222325
X0017092
X0018592
X0019342Y00207325
X0017842
X0016342
X0020842
X0025Y00205
X0026092Y00192325
X00285Y00145
X0029842Y00147325
Y00117325
X0028342
X0026842
X0027592Y00102325
X0029092
Y00042325
X00181858Y00022
X0007342Y00027325
X0005092Y00102325
X0005Y0013
X0005092Y00222325
X0005842Y00267325
X0008092Y00252325
X0008842Y00327325
X0005842
X00055Y0034
X0005092Y00372325
X00075Y004
X0010342Y00387325
X0011842Y00357325
X0012Y00345
X0016342Y00357325
X0017842
X0019342
X0020842
X00205Y0034
X00185Y0033
X0018592Y00312325
X0020092
X0022342Y00327325
X00249565Y00304958
X002596Y002796
X0024592Y00252325
X0023092
X0021592
X0020092
X0016342Y00327325
X0015592Y00372325
X0017092
X0018592
X0020092
X0021592
X00238479Y00379155
X0032Y00385
X0032092Y00372325
X0032842Y00357325
X0031342
X0029092Y00342325
X00275124Y00321439
X00295Y00305
X0031342Y00297325
X00325Y0024975
X004035Y00235765
X0041Y00215
X00395
X004Y002
X00385Y0019
X0040342Y00177325
X0035Y001765
X0043Y0021
X00435Y00255
X00412904Y00272096
X00405Y00295
X00385Y00285
X0039592Y00342325
X0041092
X0042592
X0042Y00335
X0040342Y00357325
X0035842
X0037Y00345
X00045Y00275
X00035Y0024
X00045Y0019
X0004342Y00117325
X0003592Y00102325
Y00462325
X0002092Y00522325
X0002842Y00537325
X0005842Y00567325
X0007342
X0008842
X0008092Y00552325
X0009592
X0011Y00545
Y0053
Y00515
Y005
X00125
X0014
Y00515
X00125
Y0053
X0014
X00155
X0017
Y00515
Y005
X00185
X002
Y00515
X00185
Y0053
X002
Y00545
X00185
X0017
X00155
X0014
X00125
Y0056
X0011
X0014
X00155
X0017
X00185
X002
X0021592Y00552325
X0022342Y00567325
X0023842
X0025342
X0026842
X0028342
X0029842
X0031342
X0032842
X0034342
X0035842
X0037342
X0038842
X0038092Y00552325
X0036592
X0037342Y00537325
X0038842
Y00507325
X0034342Y00537325
X0032842
X0031342
X0029842
X0028342
X0026842
X0025342
X0022342
X0021592Y00522325
X0022342Y00507325
X0021592Y00462325
X0020092
X0020842Y00447325
X0020092Y00432325
X0020842Y00417325
X0022342
X0023842
X0020092Y00402325
X00278592Y00402606
X0032092Y00402325
X0033592
X0041092
X0040342Y00417325
X0032842Y00477325
X0028342
X0026842
X0025342
X0026092Y00462325
X0028342Y00447325
X0029842Y00507325
X0030592Y00522325
X0009592
Y00492325
X0007342Y00477325
X0005842
Y00447325
X00075Y0043
X0009592Y00432325
X0010342Y00447325
X0008092Y00462325
X0008842Y00417325
X0009592Y00402325
X000535Y0041
X0044842Y00417325
X0061342
X0062842
X0064342
X0065842
X00855Y0042
X00883419Y00447325
X00891Y00453
X00915Y00475
X00945
X00975
X00995919Y00462325
X01010919
X01018419Y00447325
X01033419
X01003419
X00995919Y00402325
X00980919
X00950919
X00920919
X00905919
X00928419Y00417325
X00920919Y00432325
X01055919Y00462325
X01070919
X01085919
X01100919
T02
X008425Y0046
X00855
T03
X0085Y000673
Y000927
X005054Y00052698
X0048
X004546
Y00027298
X0048
X005054
X0002Y000872
Y001126
Y00138
Y001634
Y001888
Y002142
Y002396
Y00265
Y002904
Y003158
Y003412
Y003666
Y004
Y004254
Y004508
Y004762
Y005016
T04
X010512Y0039
X01102
Y004408
X010512
X010766Y004154
T05
X0106Y0006
X0006
Y0052
X0106
M30
