G04*
G04 #@! TF.GenerationSoftware,Altium Limited,Altium Designer,22.8.2 (66)*
G04*
G04 Layer_Color=8388736*
%FSLAX44Y44*%
%MOMM*%
G71*
G04*
G04 #@! TF.SameCoordinates,CF27D90D-B1D3-4D20-95BB-87DB92CEE313*
G04*
G04*
G04 #@! TF.FilePolarity,Negative*
G04*
G01*
G75*
%ADD15R,1.9532X1.1532*%
%ADD16R,1.9532X3.4032*%
%ADD17R,1.7532X0.8532*%
%ADD18R,1.6732X1.1932*%
%ADD19R,0.7032X1.0032*%
%ADD20R,5.9032X2.2032*%
%ADD21R,0.8382X1.4732*%
%ADD22C,2.2032*%
%ADD23R,1.0032X1.5032*%
%ADD24C,0.7032*%
%ADD25R,1.5032X1.0032*%
%ADD26R,1.3032X1.3032*%
%ADD27R,2.3032X2.3032*%
%ADD28R,5.8032X3.3032*%
%ADD29R,6.2032X4.2032*%
%ADD30R,0.9832X1.1832*%
%ADD31R,4.7032X1.8532*%
%ADD32R,1.1832X0.9832*%
%ADD33R,1.0032X0.7032*%
%ADD34R,2.9032X2.2532*%
%ADD35R,10.7032X8.2032*%
%ADD36R,1.4032X4.8032*%
%ADD37R,1.0032X1.0032*%
%ADD38C,1.0032*%
%ADD39C,1.8032*%
G04:AMPARAMS|DCode=40|XSize=1.8032mm|YSize=1.8032mm|CornerRadius=0.5016mm|HoleSize=0mm|Usage=FLASHONLY|Rotation=180.000|XOffset=0mm|YOffset=0mm|HoleType=Round|Shape=RoundedRectangle|*
%AMROUNDEDRECTD40*
21,1,1.8032,0.8000,0,0,180.0*
21,1,0.8000,1.8032,0,0,180.0*
1,1,1.0032,-0.4000,0.4000*
1,1,1.0032,0.4000,0.4000*
1,1,1.0032,0.4000,-0.4000*
1,1,1.0032,-0.4000,-0.4000*
%
%ADD40ROUNDEDRECTD40*%
%ADD41C,3.2032*%
G04:AMPARAMS|DCode=42|XSize=1.8032mm|YSize=1.8032mm|CornerRadius=0.5016mm|HoleSize=0mm|Usage=FLASHONLY|Rotation=90.000|XOffset=0mm|YOffset=0mm|HoleType=Round|Shape=RoundedRectangle|*
%AMROUNDEDRECTD42*
21,1,1.8032,0.8000,0,0,90.0*
21,1,0.8000,1.8032,0,0,90.0*
1,1,1.0032,0.4000,0.4000*
1,1,1.0032,0.4000,-0.4000*
1,1,1.0032,-0.4000,-0.4000*
1,1,1.0032,-0.4000,0.4000*
%
%ADD42ROUNDEDRECTD42*%
%ADD43C,2.4532*%
G36*
X463133Y140009D02*
X463264Y139984D01*
X463390Y139941D01*
X463509Y139882D01*
X463620Y139808D01*
X463720Y139720D01*
X463808Y139620D01*
X463882Y139509D01*
X463941Y139390D01*
X463983Y139263D01*
X464010Y139133D01*
X464018Y139000D01*
Y118000D01*
X464010Y117867D01*
X463983Y117737D01*
X463941Y117610D01*
X463882Y117491D01*
X463808Y117380D01*
X463720Y117280D01*
X463620Y117192D01*
X463509Y117118D01*
X463390Y117059D01*
X463264Y117016D01*
X463133Y116990D01*
X463000Y116982D01*
X462867Y116990D01*
X462737Y117016D01*
X462610Y117059D01*
X462491Y117118D01*
X462380Y117192D01*
X462280Y117280D01*
X441280Y138280D01*
X441192Y138380D01*
X441118Y138491D01*
X441059Y138610D01*
X441017Y138736D01*
X440990Y138867D01*
X440982Y139000D01*
X440990Y139133D01*
X441017Y139263D01*
X441059Y139390D01*
X441118Y139509D01*
X441192Y139620D01*
X441280Y139720D01*
X441380Y139808D01*
X441491Y139882D01*
X441610Y139941D01*
X441736Y139984D01*
X441867Y140009D01*
X442000Y140018D01*
X463000D01*
X463133Y140009D01*
D02*
G37*
D15*
X937000Y393000D02*
D03*
Y370000D02*
D03*
Y347000D02*
D03*
D16*
X1000000Y370000D02*
D03*
D17*
X742750Y45550D02*
D03*
Y58250D02*
D03*
Y70950D02*
D03*
Y83650D02*
D03*
Y96350D02*
D03*
Y109050D02*
D03*
Y121750D02*
D03*
Y134450D02*
D03*
X797250D02*
D03*
Y121750D02*
D03*
Y109050D02*
D03*
Y96350D02*
D03*
Y83650D02*
D03*
Y70950D02*
D03*
Y58250D02*
D03*
Y45550D02*
D03*
D18*
X945000Y438200D02*
D03*
Y421800D02*
D03*
D19*
X717000Y30000D02*
D03*
X703000D02*
D03*
Y105000D02*
D03*
X717000D02*
D03*
X247000Y320000D02*
D03*
X233000D02*
D03*
X717000Y60000D02*
D03*
X703000D02*
D03*
X923000Y295000D02*
D03*
X937000D02*
D03*
X423000Y281000D02*
D03*
X409000D02*
D03*
X424000Y312000D02*
D03*
X410000D02*
D03*
X422000Y200000D02*
D03*
X408000D02*
D03*
X422000Y165000D02*
D03*
X408000D02*
D03*
D20*
X193500Y290000D02*
D03*
X96500D02*
D03*
D21*
X915000Y125000D02*
D03*
X925000D02*
D03*
D22*
X915000Y90000D02*
D03*
X90000Y20000D02*
D03*
X580000Y35000D02*
D03*
D23*
X513000Y124500D02*
D03*
X477000D02*
D03*
X489000D02*
D03*
X501000D02*
D03*
X525000D02*
D03*
X537000D02*
D03*
X549000D02*
D03*
X561000D02*
D03*
X573000D02*
D03*
X585000D02*
D03*
X597000D02*
D03*
X501002Y401500D02*
D03*
X549002D02*
D03*
X525002D02*
D03*
X537002D02*
D03*
X489002D02*
D03*
X477002D02*
D03*
X513002D02*
D03*
X561002D02*
D03*
X573002D02*
D03*
X585002D02*
D03*
X597001D02*
D03*
D24*
X458000Y133500D02*
D03*
D25*
X448500Y149000D02*
D03*
Y161000D02*
D03*
Y173000D02*
D03*
Y185000D02*
D03*
Y197000D02*
D03*
Y209000D02*
D03*
Y221000D02*
D03*
Y233000D02*
D03*
Y245000D02*
D03*
X625500Y149000D02*
D03*
Y197000D02*
D03*
Y173000D02*
D03*
Y221000D02*
D03*
Y209000D02*
D03*
Y233000D02*
D03*
Y185000D02*
D03*
Y161000D02*
D03*
Y245000D02*
D03*
X448500Y257000D02*
D03*
Y269000D02*
D03*
Y281000D02*
D03*
Y293000D02*
D03*
Y305000D02*
D03*
Y317000D02*
D03*
Y329000D02*
D03*
Y341000D02*
D03*
Y353000D02*
D03*
Y365000D02*
D03*
Y377000D02*
D03*
X625500Y305000D02*
D03*
Y341000D02*
D03*
Y293000D02*
D03*
Y269000D02*
D03*
Y317000D02*
D03*
Y257000D02*
D03*
Y281000D02*
D03*
Y329000D02*
D03*
Y353000D02*
D03*
Y377000D02*
D03*
Y365000D02*
D03*
D26*
X487000Y163000D02*
D03*
X562000D02*
D03*
X537002D02*
D03*
X512000D02*
D03*
X487000Y188000D02*
D03*
Y213000D02*
D03*
Y238000D02*
D03*
X587003Y188000D02*
D03*
Y213000D02*
D03*
Y163000D02*
D03*
Y238000D02*
D03*
X487000Y263000D02*
D03*
Y288000D02*
D03*
Y313000D02*
D03*
X587003D02*
D03*
X487000Y338000D02*
D03*
X537002Y363000D02*
D03*
X512000D02*
D03*
X487000D02*
D03*
X562000D02*
D03*
X587000D02*
D03*
X587003Y288000D02*
D03*
Y263000D02*
D03*
Y338000D02*
D03*
D27*
X621500Y128500D02*
D03*
X452500Y397500D02*
D03*
X621500D02*
D03*
D28*
X340000Y30000D02*
D03*
Y131000D02*
D03*
D29*
X333000Y430000D02*
D03*
Y330000D02*
D03*
D30*
X923000Y260000D02*
D03*
X937000D02*
D03*
X297000Y165000D02*
D03*
X283000D02*
D03*
D31*
X365000Y245000D02*
D03*
X275000D02*
D03*
X360000Y520000D02*
D03*
X270000D02*
D03*
D32*
X910000Y384000D02*
D03*
Y370000D02*
D03*
Y350000D02*
D03*
Y336000D02*
D03*
X980000Y437000D02*
D03*
Y423000D02*
D03*
X910000Y437000D02*
D03*
Y423000D02*
D03*
X420000Y368000D02*
D03*
Y382000D02*
D03*
D33*
X850000Y13000D02*
D03*
Y27000D02*
D03*
X235000Y497000D02*
D03*
Y483000D02*
D03*
Y550000D02*
D03*
Y536000D02*
D03*
D34*
X250000Y86500D02*
D03*
Y43500D02*
D03*
X235000Y441500D02*
D03*
Y398500D02*
D03*
D35*
X160000Y160000D02*
D03*
X155000Y528000D02*
D03*
D36*
X126000Y56330D02*
D03*
X143000D02*
D03*
X160000D02*
D03*
X177000D02*
D03*
X194000D02*
D03*
X121000Y424330D02*
D03*
X138000D02*
D03*
X155000D02*
D03*
X172000D02*
D03*
X189000D02*
D03*
D37*
X248250Y350000D02*
D03*
X231750D02*
D03*
D38*
X842500Y460000D02*
D03*
X855000D02*
D03*
D39*
X850000Y92700D02*
D03*
X20000Y366600D02*
D03*
Y315800D02*
D03*
Y163400D02*
D03*
Y138000D02*
D03*
Y112600D02*
D03*
Y265000D02*
D03*
Y239600D02*
D03*
Y214200D02*
D03*
Y476200D02*
D03*
Y450800D02*
D03*
Y425400D02*
D03*
Y400000D02*
D03*
X454600Y52698D02*
D03*
X480000Y27298D02*
D03*
Y52698D02*
D03*
X505400Y27298D02*
D03*
Y52698D02*
D03*
D40*
X850000Y67300D02*
D03*
X20000Y341200D02*
D03*
Y290400D02*
D03*
Y87200D02*
D03*
Y188800D02*
D03*
Y501600D02*
D03*
D41*
X60000Y60000D02*
D03*
Y520000D02*
D03*
X1060000D02*
D03*
Y60000D02*
D03*
D42*
X454600Y27298D02*
D03*
D43*
X1051200Y390000D02*
D03*
Y440800D02*
D03*
X1102000Y390000D02*
D03*
Y440800D02*
D03*
X1076600Y415400D02*
D03*
M02*
